%TF.GenerationSoftware,KiCad,Pcbnew,8.0.8*%
%TF.CreationDate,2025-01-23T20:15:16-05:00*%
%TF.ProjectId,compact_sqm,636f6d70-6163-4745-9f73-716d2e6b6963,rev?*%
%TF.SameCoordinates,Original*%
%TF.FileFunction,Legend,Top*%
%TF.FilePolarity,Positive*%
%FSLAX46Y46*%
G04 Gerber Fmt 4.6, Leading zero omitted, Abs format (unit mm)*
G04 Created by KiCad (PCBNEW 8.0.8) date 2025-01-23 20:15:16*
%MOMM*%
%LPD*%
G01*
G04 APERTURE LIST*
%ADD10C,0.100000*%
%ADD11C,0.300000*%
%ADD12C,0.254000*%
%ADD13C,0.088900*%
%ADD14C,0.120000*%
G04 APERTURE END LIST*
D10*
X127710284Y-117042666D02*
X128472189Y-117042666D01*
X127735684Y-119989066D02*
X128497589Y-119989066D01*
X128116636Y-120370019D02*
X128116636Y-119608114D01*
D11*
G36*
X127620252Y-89407769D02*
G01*
X127672642Y-89416928D01*
X127764050Y-89434737D01*
X127851794Y-89453176D01*
X127935874Y-89472244D01*
X128016291Y-89491942D01*
X128093045Y-89512269D01*
X128166134Y-89533226D01*
X128252344Y-89560308D01*
X128301323Y-89577030D01*
X128380746Y-89606484D01*
X128459418Y-89638746D01*
X128537338Y-89673817D01*
X128614507Y-89711697D01*
X128690925Y-89752385D01*
X128766591Y-89795882D01*
X128796647Y-89814067D01*
X128893406Y-89875250D01*
X128983922Y-89937166D01*
X129068196Y-89999814D01*
X129146227Y-90063195D01*
X129218016Y-90127309D01*
X129283563Y-90192155D01*
X129342866Y-90257734D01*
X129395928Y-90324046D01*
X129442746Y-90391091D01*
X129483323Y-90458868D01*
X129517656Y-90527379D01*
X129545748Y-90596621D01*
X129567596Y-90666597D01*
X129588665Y-90772934D01*
X129595688Y-90880920D01*
X129591818Y-90964016D01*
X129580209Y-91046242D01*
X129560860Y-91127598D01*
X129537581Y-91198070D01*
X129533772Y-91208083D01*
X129500364Y-91284516D01*
X129461690Y-91354080D01*
X129417749Y-91416774D01*
X129368542Y-91472598D01*
X129306520Y-91526261D01*
X129238883Y-91568821D01*
X129165630Y-91600278D01*
X129086762Y-91620632D01*
X129002278Y-91629885D01*
X128972868Y-91630501D01*
X128887410Y-91623945D01*
X128807438Y-91604278D01*
X128732953Y-91571498D01*
X128663955Y-91525607D01*
X128600443Y-91466603D01*
X128580492Y-91444022D01*
X128535214Y-91383520D01*
X128497610Y-91318564D01*
X128467680Y-91249153D01*
X128445424Y-91175288D01*
X128430843Y-91096969D01*
X128423936Y-91014195D01*
X128423322Y-90979838D01*
X128426397Y-90897036D01*
X128435622Y-90812669D01*
X128450998Y-90726737D01*
X128472524Y-90639240D01*
X128500200Y-90550178D01*
X128534026Y-90459551D01*
X128574002Y-90367359D01*
X128620128Y-90273603D01*
X128672405Y-90178281D01*
X128710673Y-90113864D01*
X128751674Y-90048751D01*
X128773200Y-90015934D01*
X128862226Y-90151489D01*
X128819392Y-90218633D01*
X128779043Y-90288174D01*
X128741181Y-90360113D01*
X128705806Y-90434448D01*
X128672917Y-90511181D01*
X128642515Y-90590310D01*
X128631051Y-90622633D01*
X128604981Y-90702230D01*
X128583330Y-90778445D01*
X128566098Y-90851280D01*
X128551252Y-90934219D01*
X128542768Y-91012289D01*
X128540559Y-91073628D01*
X128544371Y-91149074D01*
X128558456Y-91230551D01*
X128582919Y-91304981D01*
X128617761Y-91372363D01*
X128649002Y-91416178D01*
X128706865Y-91474842D01*
X128772009Y-91516745D01*
X128844435Y-91541887D01*
X128924142Y-91550268D01*
X128998611Y-91543774D01*
X129072906Y-91524293D01*
X129140297Y-91495313D01*
X129204718Y-91456852D01*
X129263344Y-91410162D01*
X129316173Y-91355243D01*
X129326044Y-91343272D01*
X129369236Y-91279630D01*
X129403468Y-91209677D01*
X129430178Y-91136870D01*
X129435587Y-91119423D01*
X129456307Y-91039963D01*
X129470247Y-90960677D01*
X129477405Y-90881565D01*
X129478451Y-90837689D01*
X129474436Y-90751664D01*
X129462390Y-90667931D01*
X129442313Y-90586491D01*
X129414206Y-90507343D01*
X129378068Y-90430488D01*
X129333899Y-90355926D01*
X129281700Y-90283656D01*
X129221470Y-90213679D01*
X129153209Y-90145995D01*
X129076917Y-90080603D01*
X129021595Y-90038282D01*
X128952927Y-89990991D01*
X128879365Y-89945014D01*
X128814325Y-89907703D01*
X128745886Y-89871305D01*
X128674048Y-89835818D01*
X128598811Y-89801245D01*
X128522804Y-89768658D01*
X128448658Y-89739363D01*
X128376373Y-89713360D01*
X128305948Y-89690648D01*
X128223894Y-89667739D01*
X128144519Y-89649570D01*
X127911878Y-89603408D01*
X127771194Y-89575564D01*
X127744815Y-89570435D01*
X127743356Y-89645461D01*
X127743350Y-89650669D01*
X127743350Y-89746656D01*
X127751957Y-89820710D01*
X127755440Y-89833851D01*
X127789429Y-89901380D01*
X127825782Y-89937166D01*
X127895191Y-89970539D01*
X127941919Y-89976000D01*
X128017511Y-89963407D01*
X128060255Y-89943760D01*
X128122629Y-89898240D01*
X128178184Y-89846668D01*
X128198374Y-89826157D01*
X128255424Y-89775889D01*
X128324026Y-89742089D01*
X128356644Y-89737864D01*
X128433373Y-89748989D01*
X128503020Y-89779008D01*
X128543123Y-89805275D01*
X128598713Y-89856451D01*
X128632121Y-89922161D01*
X128634348Y-89944493D01*
X128612961Y-90016537D01*
X128592949Y-90038649D01*
X128524265Y-90071046D01*
X128485604Y-90074552D01*
X128430649Y-90069423D01*
X128488609Y-90020665D01*
X128533689Y-89959377D01*
X128540559Y-89928007D01*
X128512390Y-89858983D01*
X128451532Y-89842644D01*
X128383241Y-89870148D01*
X128323581Y-89922681D01*
X128307185Y-89940097D01*
X128246162Y-89996196D01*
X128180697Y-90036267D01*
X128110790Y-90060310D01*
X128036441Y-90068324D01*
X127955750Y-90060676D01*
X127880737Y-90037733D01*
X127811402Y-89999493D01*
X127747746Y-89945958D01*
X127694532Y-89881799D01*
X127656522Y-89812052D01*
X127633715Y-89736719D01*
X127626113Y-89655798D01*
X127626113Y-89561276D01*
X127626113Y-89473715D01*
X127620252Y-89407769D01*
G37*
G36*
X128873950Y-88913910D02*
G01*
X128918280Y-88883136D01*
X128960183Y-88948051D01*
X128992866Y-89013680D01*
X129021832Y-89087548D01*
X129047082Y-89169657D01*
X129056766Y-89207368D01*
X128978852Y-89194305D01*
X128904267Y-89170640D01*
X128830597Y-89140952D01*
X128762339Y-89109580D01*
X128687837Y-89072180D01*
X128746862Y-89119660D01*
X128801662Y-89168402D01*
X128860256Y-89226863D01*
X128913100Y-89287042D01*
X128953818Y-89339992D01*
X128998697Y-89407884D01*
X129033860Y-89475778D01*
X129054797Y-89546558D01*
X129056400Y-89568970D01*
X129024174Y-89636809D01*
X128954550Y-89652867D01*
X128874523Y-89644051D01*
X128802132Y-89621875D01*
X128727532Y-89586199D01*
X128661831Y-89544875D01*
X128617129Y-89511817D01*
X128551690Y-89456411D01*
X128490836Y-89395983D01*
X128434568Y-89330531D01*
X128382885Y-89260056D01*
X128343318Y-89197489D01*
X128321106Y-89158275D01*
X128283005Y-89083444D01*
X128251361Y-89008703D01*
X128226175Y-88934051D01*
X128207448Y-88859488D01*
X128195178Y-88785015D01*
X128189366Y-88710631D01*
X128188849Y-88680903D01*
X128224386Y-88636206D01*
X128296674Y-88663695D01*
X128312314Y-88672110D01*
X128307643Y-88746207D01*
X128306085Y-88814626D01*
X128309703Y-88890583D01*
X128320557Y-88963850D01*
X128344299Y-89051651D01*
X128379347Y-89135247D01*
X128415525Y-89199098D01*
X128458940Y-89260258D01*
X128509589Y-89318727D01*
X128537628Y-89346953D01*
X128600933Y-89402607D01*
X128663903Y-89446747D01*
X128736945Y-89483690D01*
X128809532Y-89504960D01*
X128871386Y-89510718D01*
X128937508Y-89475768D01*
X128939163Y-89461625D01*
X128909457Y-89389147D01*
X128860083Y-89326069D01*
X128854899Y-89320208D01*
X128799215Y-89262835D01*
X128737949Y-89209326D01*
X128678038Y-89164471D01*
X128657062Y-89150215D01*
X128587466Y-89107710D01*
X128515241Y-89071235D01*
X128440386Y-89040791D01*
X128362901Y-89016378D01*
X128317443Y-89005135D01*
X128372943Y-88953293D01*
X128433580Y-88941021D01*
X128511599Y-88953232D01*
X128585016Y-88985877D01*
X128646438Y-89027850D01*
X128626173Y-88952699D01*
X128611633Y-88908415D01*
X128654132Y-88928931D01*
X128727419Y-88961801D01*
X128797097Y-88991554D01*
X128867079Y-89018001D01*
X128900328Y-89025651D01*
X128915716Y-89010264D01*
X128887697Y-88939511D01*
X128873950Y-88913910D01*
G37*
G36*
X128880545Y-88121831D02*
G01*
X128927806Y-88093254D01*
X128971884Y-88163940D01*
X129004629Y-88231162D01*
X129031940Y-88303397D01*
X129053817Y-88380647D01*
X129061529Y-88415289D01*
X128985610Y-88400897D01*
X128913823Y-88380561D01*
X128834291Y-88352640D01*
X128765088Y-88324842D01*
X128690928Y-88292190D01*
X128611811Y-88254684D01*
X128527736Y-88212323D01*
X128400607Y-88145278D01*
X128332876Y-88114710D01*
X128322206Y-88112672D01*
X128306085Y-88123663D01*
X128339333Y-88190000D01*
X128376427Y-88238701D01*
X128427306Y-88298214D01*
X128478368Y-88351566D01*
X128534010Y-88404202D01*
X128539826Y-88409427D01*
X128602412Y-88462591D01*
X128669041Y-88513089D01*
X128739713Y-88560922D01*
X128814427Y-88606090D01*
X128893185Y-88648592D01*
X128959102Y-88680675D01*
X129010238Y-88703617D01*
X129033630Y-88778051D01*
X129062842Y-88852257D01*
X129071787Y-88873610D01*
X129002417Y-88839929D01*
X128932153Y-88806892D01*
X128860995Y-88774499D01*
X128788942Y-88742750D01*
X128715995Y-88711644D01*
X128642153Y-88681183D01*
X128612366Y-88669179D01*
X128542426Y-88641526D01*
X128471225Y-88614530D01*
X128397889Y-88589033D01*
X128331365Y-88573192D01*
X128306085Y-88591143D01*
X128325503Y-88654158D01*
X128333929Y-88678338D01*
X128277509Y-88689329D01*
X128255275Y-88614797D01*
X128232171Y-88545073D01*
X128205140Y-88472382D01*
X128183353Y-88420051D01*
X128170531Y-88392208D01*
X128206068Y-88388178D01*
X128284228Y-88401451D01*
X128362740Y-88426538D01*
X128445636Y-88458395D01*
X128525715Y-88492242D01*
X128596979Y-88524099D01*
X128622624Y-88549012D01*
X128595513Y-88540219D01*
X128538598Y-88487819D01*
X128485547Y-88436635D01*
X128426986Y-88376820D01*
X128373989Y-88318757D01*
X128326556Y-88262446D01*
X128298025Y-88225878D01*
X128255485Y-88165459D01*
X128216143Y-88096277D01*
X128191514Y-88024709D01*
X128188849Y-87996901D01*
X128232667Y-87936139D01*
X128250398Y-87934619D01*
X128328425Y-87957111D01*
X128398089Y-87987856D01*
X128473205Y-88024590D01*
X128546664Y-88062521D01*
X128562540Y-88070906D01*
X128633587Y-88108516D01*
X128710722Y-88148476D01*
X128786164Y-88186085D01*
X128857702Y-88218680D01*
X128898496Y-88231374D01*
X128915716Y-88215254D01*
X128893176Y-88142718D01*
X128890070Y-88136485D01*
X128880545Y-88121831D01*
G37*
G36*
X128880545Y-87305571D02*
G01*
X128927806Y-87276995D01*
X128971884Y-87347680D01*
X129004629Y-87414902D01*
X129031940Y-87487138D01*
X129053817Y-87564387D01*
X129061529Y-87599029D01*
X128985610Y-87584638D01*
X128913823Y-87564302D01*
X128834291Y-87536381D01*
X128765088Y-87508583D01*
X128690928Y-87475931D01*
X128611811Y-87438424D01*
X128527736Y-87396063D01*
X128400607Y-87329018D01*
X128332876Y-87298450D01*
X128322206Y-87296412D01*
X128306085Y-87307403D01*
X128339333Y-87373741D01*
X128376427Y-87422441D01*
X128427306Y-87481955D01*
X128478368Y-87535307D01*
X128534010Y-87587943D01*
X128539826Y-87593167D01*
X128602412Y-87646331D01*
X128669041Y-87696830D01*
X128739713Y-87744663D01*
X128814427Y-87789830D01*
X128893185Y-87832333D01*
X128959102Y-87864415D01*
X129010238Y-87887358D01*
X129033630Y-87961792D01*
X129062842Y-88035998D01*
X129071787Y-88057351D01*
X129002417Y-88023669D01*
X128932153Y-87990632D01*
X128860995Y-87958239D01*
X128788942Y-87926490D01*
X128715995Y-87895385D01*
X128642153Y-87864924D01*
X128612366Y-87852919D01*
X128542426Y-87825267D01*
X128471225Y-87798270D01*
X128397889Y-87772774D01*
X128331365Y-87756932D01*
X128306085Y-87774884D01*
X128325503Y-87837898D01*
X128333929Y-87862078D01*
X128277509Y-87873069D01*
X128255275Y-87798537D01*
X128232171Y-87728813D01*
X128205140Y-87656122D01*
X128183353Y-87603792D01*
X128170531Y-87575948D01*
X128206068Y-87571918D01*
X128284228Y-87585192D01*
X128362740Y-87610279D01*
X128445636Y-87642135D01*
X128525715Y-87675983D01*
X128596979Y-87707839D01*
X128622624Y-87732752D01*
X128595513Y-87723959D01*
X128538598Y-87671559D01*
X128485547Y-87620375D01*
X128426986Y-87560561D01*
X128373989Y-87502498D01*
X128326556Y-87446186D01*
X128298025Y-87409619D01*
X128255485Y-87349199D01*
X128216143Y-87280017D01*
X128191514Y-87208449D01*
X128188849Y-87180641D01*
X128232667Y-87119880D01*
X128250398Y-87118359D01*
X128328425Y-87140852D01*
X128398089Y-87171596D01*
X128473205Y-87208330D01*
X128546664Y-87246262D01*
X128562540Y-87254647D01*
X128633587Y-87292256D01*
X128710722Y-87332216D01*
X128786164Y-87369826D01*
X128857702Y-87402421D01*
X128898496Y-87415114D01*
X128915716Y-87398994D01*
X128893176Y-87326458D01*
X128890070Y-87320226D01*
X128880545Y-87305571D01*
G37*
G36*
X128566570Y-86614242D02*
G01*
X128635156Y-86588150D01*
X128643507Y-86587497D01*
X128715933Y-86604164D01*
X128779892Y-86642595D01*
X128840296Y-86695489D01*
X128871752Y-86728547D01*
X128924946Y-86790649D01*
X128969125Y-86849870D01*
X129010238Y-86917133D01*
X129041794Y-86990366D01*
X129056219Y-87067148D01*
X129056400Y-87076227D01*
X129039386Y-87151526D01*
X128982019Y-87198023D01*
X128912418Y-87208485D01*
X128835505Y-87202508D01*
X128756805Y-87184579D01*
X128686478Y-87159087D01*
X128614783Y-87124443D01*
X128594048Y-87112864D01*
X128524084Y-87068327D01*
X128459729Y-87018707D01*
X128400985Y-86964002D01*
X128347851Y-86904213D01*
X128320007Y-86867766D01*
X128275434Y-86800700D01*
X128240083Y-86736338D01*
X128210495Y-86664669D01*
X128192051Y-86587269D01*
X128188849Y-86541335D01*
X128208598Y-86468726D01*
X128258824Y-86448279D01*
X128329510Y-86471360D01*
X128356644Y-86489312D01*
X128412606Y-86538000D01*
X128456661Y-86590062D01*
X128494855Y-86653534D01*
X128526020Y-86721244D01*
X128530300Y-86731845D01*
X128554493Y-86803844D01*
X128564006Y-86865201D01*
X128524005Y-86929603D01*
X128479376Y-86949831D01*
X128492980Y-86875771D01*
X128493664Y-86863369D01*
X128484473Y-86785184D01*
X128456902Y-86712562D01*
X128437977Y-86680920D01*
X128387808Y-86624069D01*
X128320007Y-86597755D01*
X128282638Y-86649779D01*
X128297963Y-86725617D01*
X128338492Y-86795913D01*
X128389154Y-86853078D01*
X128412331Y-86874727D01*
X128473533Y-86924036D01*
X128540816Y-86967549D01*
X128606572Y-87001755D01*
X128629585Y-87012113D01*
X128704418Y-87040321D01*
X128780287Y-87059282D01*
X128849404Y-87065603D01*
X128919440Y-87043889D01*
X128939163Y-86988666D01*
X128923079Y-86912258D01*
X128884346Y-86844960D01*
X128841710Y-86794493D01*
X128780546Y-86738909D01*
X128715522Y-86692713D01*
X128650399Y-86654771D01*
X128577598Y-86619143D01*
X128566570Y-86614242D01*
G37*
G36*
X128165402Y-85985194D02*
G01*
X128212296Y-86012305D01*
X128212296Y-86156653D01*
X128223654Y-86161782D01*
X128293177Y-86191785D01*
X128361366Y-86220327D01*
X128438012Y-86252101D01*
X128475712Y-86267661D01*
X128548853Y-86298109D01*
X128623736Y-86329701D01*
X128692761Y-86359045D01*
X128711284Y-86366946D01*
X128780750Y-86395782D01*
X128851877Y-86422450D01*
X128924955Y-86440879D01*
X128927806Y-86440951D01*
X128962610Y-86407246D01*
X128933862Y-86334435D01*
X128887989Y-86273848D01*
X128871752Y-86255205D01*
X128920112Y-86226628D01*
X128965539Y-86285595D01*
X129006212Y-86353155D01*
X129018664Y-86378303D01*
X129045750Y-86448515D01*
X129056400Y-86513492D01*
X129032752Y-86585478D01*
X128981661Y-86602518D01*
X128909563Y-86585758D01*
X128840469Y-86561132D01*
X128763370Y-86530605D01*
X128725573Y-86514957D01*
X128472415Y-86407612D01*
X128398265Y-86376842D01*
X128327482Y-86347553D01*
X128255740Y-86318057D01*
X128220723Y-86303931D01*
X128212296Y-86300268D01*
X128212296Y-86438387D01*
X128165402Y-86409811D01*
X128165402Y-86390027D01*
X128158371Y-86316523D01*
X128140489Y-86278286D01*
X128074482Y-86236180D01*
X128002973Y-86203539D01*
X127987349Y-86196953D01*
X127977823Y-86167277D01*
X127974879Y-86091636D01*
X127971595Y-86051873D01*
X128042145Y-86080326D01*
X128085901Y-86099134D01*
X128158807Y-86129908D01*
X128165402Y-86132839D01*
X128165402Y-85985194D01*
G37*
G36*
X128165402Y-85569005D02*
G01*
X128212296Y-85596115D01*
X128212296Y-85740463D01*
X128223654Y-85745592D01*
X128293177Y-85775595D01*
X128361366Y-85804137D01*
X128438012Y-85835911D01*
X128475712Y-85851471D01*
X128548853Y-85881920D01*
X128623736Y-85913511D01*
X128692761Y-85942855D01*
X128711284Y-85950756D01*
X128780750Y-85979592D01*
X128851877Y-86006260D01*
X128924955Y-86024689D01*
X128927806Y-86024762D01*
X128962610Y-85991056D01*
X128933862Y-85918246D01*
X128887989Y-85857658D01*
X128871752Y-85839015D01*
X128920112Y-85810439D01*
X128965539Y-85869405D01*
X129006212Y-85936965D01*
X129018664Y-85962113D01*
X129045750Y-86032325D01*
X129056400Y-86097302D01*
X129032752Y-86169288D01*
X128981661Y-86186328D01*
X128909563Y-86169569D01*
X128840469Y-86144942D01*
X128763370Y-86114415D01*
X128725573Y-86098767D01*
X128472415Y-85991423D01*
X128398265Y-85960652D01*
X128327482Y-85931363D01*
X128255740Y-85901868D01*
X128220723Y-85887741D01*
X128212296Y-85884078D01*
X128212296Y-86022197D01*
X128165402Y-85993621D01*
X128165402Y-85973837D01*
X128158371Y-85900333D01*
X128140489Y-85862096D01*
X128074482Y-85819991D01*
X128002973Y-85787349D01*
X127987349Y-85780763D01*
X127977823Y-85751088D01*
X127974879Y-85675446D01*
X127971595Y-85635683D01*
X128042145Y-85664136D01*
X128085901Y-85682944D01*
X128158807Y-85713718D01*
X128165402Y-85716649D01*
X128165402Y-85569005D01*
G37*
G36*
X127907893Y-82026042D02*
G01*
X127980569Y-82051760D01*
X128050406Y-82094624D01*
X128108005Y-82145010D01*
X128154411Y-82196621D01*
X128205918Y-82266912D01*
X128243783Y-82330446D01*
X128277051Y-82398488D01*
X128305722Y-82471038D01*
X128329795Y-82548096D01*
X128349270Y-82629663D01*
X128352614Y-82646517D01*
X128420321Y-82694865D01*
X128484077Y-82743869D01*
X128541241Y-82790039D01*
X128602072Y-82841056D01*
X128666571Y-82896921D01*
X128720810Y-82945104D01*
X128775473Y-82994735D01*
X128841949Y-83056741D01*
X128906369Y-83118712D01*
X128968731Y-83180647D01*
X129029037Y-83242546D01*
X129087285Y-83304409D01*
X129121246Y-83341510D01*
X128997781Y-83340411D01*
X128907983Y-83341395D01*
X128818792Y-83344346D01*
X128730210Y-83349266D01*
X128642236Y-83356153D01*
X128554870Y-83365008D01*
X128468113Y-83375831D01*
X128436244Y-83380334D01*
X128459592Y-83397197D01*
X128518399Y-83447717D01*
X128566204Y-83488788D01*
X128625097Y-83539163D01*
X128686091Y-83590798D01*
X128744416Y-83639095D01*
X128747921Y-83641928D01*
X129067390Y-83897284D01*
X129115018Y-83937951D01*
X129030193Y-83938466D01*
X128943514Y-83940012D01*
X128854979Y-83942588D01*
X128764590Y-83946194D01*
X128672347Y-83950831D01*
X128578248Y-83956498D01*
X128482295Y-83963196D01*
X128409113Y-83968895D01*
X128384487Y-83970924D01*
X128309635Y-83977449D01*
X128232659Y-83986198D01*
X128180423Y-83996203D01*
X128141954Y-84036503D01*
X128183468Y-84100977D01*
X128196176Y-84115271D01*
X128135726Y-84145313D01*
X128118507Y-84119301D01*
X128054393Y-84011224D01*
X128013380Y-83946372D01*
X127989913Y-83911206D01*
X127965000Y-83872372D01*
X128053970Y-83857345D01*
X128149236Y-83844322D01*
X128224818Y-83835869D01*
X128303942Y-83828544D01*
X128386608Y-83822345D01*
X128472816Y-83817274D01*
X128562566Y-83813329D01*
X128655857Y-83810512D01*
X128752691Y-83808821D01*
X128853067Y-83808258D01*
X128795499Y-83760162D01*
X128733060Y-83709202D01*
X128670031Y-83658106D01*
X128659993Y-83649988D01*
X128598742Y-83600094D01*
X128538422Y-83549412D01*
X128481725Y-83500751D01*
X128420416Y-83447273D01*
X128365803Y-83399029D01*
X128359208Y-83393533D01*
X128353713Y-83394633D01*
X128359571Y-83468986D01*
X128382068Y-83542625D01*
X128429640Y-83607049D01*
X128500178Y-83648333D01*
X128578918Y-83665300D01*
X128593681Y-83666475D01*
X128533506Y-83712156D01*
X128513814Y-83715201D01*
X128441085Y-83696198D01*
X128378299Y-83649658D01*
X128346752Y-83615917D01*
X128301171Y-83554257D01*
X128267396Y-83487341D01*
X128250764Y-83421377D01*
X128174157Y-83449992D01*
X128102559Y-83484546D01*
X128035969Y-83525040D01*
X127974388Y-83571472D01*
X127917817Y-83623844D01*
X127866254Y-83682154D01*
X127847031Y-83707141D01*
X127803652Y-83772541D01*
X127767626Y-83841430D01*
X127738952Y-83913806D01*
X127717630Y-83989671D01*
X127703661Y-84069024D01*
X127697044Y-84151866D01*
X127696455Y-84185979D01*
X127699323Y-84263368D01*
X127707927Y-84337082D01*
X127726748Y-84424056D01*
X127754531Y-84505287D01*
X127791277Y-84580777D01*
X127836985Y-84650524D01*
X127880004Y-84702187D01*
X127939975Y-84759603D01*
X128005169Y-84807287D01*
X128075587Y-84845240D01*
X128151228Y-84873462D01*
X128232093Y-84891952D01*
X128318181Y-84900710D01*
X128354079Y-84901489D01*
X128436592Y-84897178D01*
X128514686Y-84884244D01*
X128588361Y-84862688D01*
X128657618Y-84832509D01*
X128722456Y-84793708D01*
X128782876Y-84746285D01*
X128805806Y-84724901D01*
X128857734Y-84667448D01*
X128900861Y-84605683D01*
X128935186Y-84539606D01*
X128960710Y-84469219D01*
X128977432Y-84394520D01*
X128985353Y-84315511D01*
X128986058Y-84282700D01*
X128975960Y-84209541D01*
X128968106Y-84178286D01*
X129008406Y-84165463D01*
X129035730Y-84240797D01*
X129050728Y-84315444D01*
X129056353Y-84395958D01*
X129056400Y-84404333D01*
X129051981Y-84486412D01*
X129038725Y-84563894D01*
X129016633Y-84636779D01*
X128985703Y-84705066D01*
X128945936Y-84768756D01*
X128897332Y-84827848D01*
X128875416Y-84850198D01*
X128816391Y-84900859D01*
X128752662Y-84942934D01*
X128684228Y-84976422D01*
X128611089Y-85001323D01*
X128533246Y-85017638D01*
X128450698Y-85025366D01*
X128416361Y-85026053D01*
X128329825Y-85022011D01*
X128247170Y-85009887D01*
X128168395Y-84989680D01*
X128093503Y-84961389D01*
X128022491Y-84925016D01*
X127955360Y-84880560D01*
X127892111Y-84828021D01*
X127832743Y-84767400D01*
X127778819Y-84700561D01*
X127732084Y-84629372D01*
X127692540Y-84553832D01*
X127660185Y-84473942D01*
X127635021Y-84389701D01*
X127617046Y-84301109D01*
X127606261Y-84208167D01*
X127602666Y-84110875D01*
X127605294Y-84030927D01*
X127613176Y-83954483D01*
X127626314Y-83881542D01*
X127650126Y-83795293D01*
X127682149Y-83714517D01*
X127722382Y-83639216D01*
X127770827Y-83569388D01*
X127826544Y-83505582D01*
X127888593Y-83448574D01*
X127956975Y-83398363D01*
X128031690Y-83354951D01*
X128112737Y-83318336D01*
X128182135Y-83293938D01*
X128236843Y-83278495D01*
X128208822Y-83252483D01*
X128355178Y-83252483D01*
X128433446Y-83236173D01*
X128506579Y-83225159D01*
X128586904Y-83216488D01*
X128674420Y-83210161D01*
X128749610Y-83206786D01*
X128829403Y-83204911D01*
X128892268Y-83204490D01*
X128901061Y-83204490D01*
X128844755Y-83145894D01*
X128789665Y-83092557D01*
X128729140Y-83037291D01*
X128672936Y-82988386D01*
X128633249Y-82954995D01*
X128574323Y-82906953D01*
X128510818Y-82857611D01*
X128445153Y-82810063D01*
X128380092Y-82767849D01*
X128366902Y-82760090D01*
X128373739Y-82838502D01*
X128376279Y-82914403D01*
X128376427Y-82939242D01*
X128374046Y-83020550D01*
X128369324Y-83095128D01*
X128363125Y-83171053D01*
X128356277Y-83244057D01*
X128355178Y-83252483D01*
X128208822Y-83252483D01*
X128176708Y-83222671D01*
X128119678Y-83167993D01*
X128065751Y-83114462D01*
X127998678Y-83044870D01*
X127937123Y-82977316D01*
X127881086Y-82911800D01*
X127830568Y-82848321D01*
X127785568Y-82786881D01*
X127755440Y-82742138D01*
X127711428Y-82668906D01*
X127674876Y-82596444D01*
X127645783Y-82524750D01*
X127624150Y-82453826D01*
X127608037Y-82369733D01*
X127607740Y-82365149D01*
X127719903Y-82365149D01*
X127728197Y-82456265D01*
X127753082Y-82551377D01*
X127782631Y-82625332D01*
X127821513Y-82701536D01*
X127869726Y-82779987D01*
X127927271Y-82860685D01*
X127994147Y-82943631D01*
X128043915Y-83000177D01*
X128097831Y-83057722D01*
X128155894Y-83116266D01*
X128218104Y-83175809D01*
X128250764Y-83205955D01*
X128253628Y-83126760D01*
X128255899Y-83050193D01*
X128257578Y-82976253D01*
X128258788Y-82893311D01*
X128259191Y-82813945D01*
X128266518Y-82708066D01*
X128198008Y-82680039D01*
X128138291Y-82670697D01*
X128092010Y-82728860D01*
X128089564Y-82752396D01*
X128087732Y-82785002D01*
X128024718Y-82785002D01*
X128024718Y-82496307D01*
X128100953Y-82516071D01*
X128173038Y-82542847D01*
X128240973Y-82576636D01*
X128254062Y-82584235D01*
X128238577Y-82507569D01*
X128216715Y-82430426D01*
X128186811Y-82356997D01*
X128155510Y-82303600D01*
X128106696Y-82243358D01*
X128045198Y-82192628D01*
X127977609Y-82161224D01*
X127903930Y-82149145D01*
X127894292Y-82148994D01*
X127819858Y-82165538D01*
X127768263Y-82207612D01*
X127731993Y-82276122D01*
X127720092Y-82352899D01*
X127719903Y-82365149D01*
X127607740Y-82365149D01*
X127602666Y-82286747D01*
X127610285Y-82210830D01*
X127635977Y-82139269D01*
X127667146Y-82093307D01*
X127725346Y-82044205D01*
X127795759Y-82020135D01*
X127832376Y-82017469D01*
X127907893Y-82026042D01*
G37*
D12*
G36*
X148663009Y-86700426D02*
G01*
X148630501Y-86669656D01*
X148608664Y-86638389D01*
X148615612Y-86620274D01*
X148658046Y-86613326D01*
X148871456Y-86599429D01*
X148899000Y-86597940D01*
X148926297Y-86620274D01*
X148902474Y-86643848D01*
X148853344Y-86666167D01*
X148806266Y-86693920D01*
X148762146Y-86724687D01*
X148733484Y-86746831D01*
X148697224Y-86781156D01*
X148666690Y-86824951D01*
X148647788Y-86873616D01*
X148640518Y-86927150D01*
X148640427Y-86934184D01*
X148645177Y-86983965D01*
X148661374Y-87032622D01*
X148689065Y-87074886D01*
X148726784Y-87110993D01*
X148768505Y-87138677D01*
X148817301Y-87161466D01*
X148822570Y-87163476D01*
X148872818Y-87178830D01*
X148921933Y-87188260D01*
X148975235Y-87193719D01*
X149025309Y-87195239D01*
X149086486Y-87193076D01*
X149143617Y-87186588D01*
X149196700Y-87175773D01*
X149245737Y-87160634D01*
X149299238Y-87136756D01*
X149346912Y-87106649D01*
X149387476Y-87071901D01*
X149419648Y-87034100D01*
X149446574Y-86986139D01*
X149462077Y-86934023D01*
X149466273Y-86886043D01*
X149460297Y-86833271D01*
X149442369Y-86782157D01*
X149412489Y-86732701D01*
X149378459Y-86692753D01*
X149336129Y-86653956D01*
X149296290Y-86623748D01*
X149275693Y-86595707D01*
X149298027Y-86573373D01*
X149344538Y-86591516D01*
X149387295Y-86625333D01*
X149426521Y-86663658D01*
X149444932Y-86683304D01*
X149479171Y-86726482D01*
X149506326Y-86773569D01*
X149526397Y-86824564D01*
X149539384Y-86879467D01*
X149545288Y-86938279D01*
X149545681Y-86958751D01*
X149543572Y-87012092D01*
X149537244Y-87062556D01*
X149523402Y-87121590D01*
X149502968Y-87176129D01*
X149475943Y-87226172D01*
X149442326Y-87271720D01*
X149410687Y-87304922D01*
X149366909Y-87341524D01*
X149320102Y-87371922D01*
X149270266Y-87396117D01*
X149217401Y-87414108D01*
X149161506Y-87425895D01*
X149102583Y-87431479D01*
X149078165Y-87431975D01*
X149018092Y-87428849D01*
X148960550Y-87419470D01*
X148905542Y-87403840D01*
X148853065Y-87381957D01*
X148803121Y-87353822D01*
X148755710Y-87319435D01*
X148737454Y-87303929D01*
X148695776Y-87262267D01*
X148661162Y-87217309D01*
X148633613Y-87169055D01*
X148613127Y-87117506D01*
X148599705Y-87062661D01*
X148593347Y-87004520D01*
X148592782Y-86980340D01*
X148595251Y-86928613D01*
X148602658Y-86876536D01*
X148615002Y-86824110D01*
X148632285Y-86771336D01*
X148654505Y-86718212D01*
X148663009Y-86700426D01*
G37*
G36*
X149267495Y-85834497D02*
G01*
X149320542Y-85848248D01*
X149370809Y-85871165D01*
X149418298Y-85903250D01*
X149444187Y-85925700D01*
X149478679Y-85963341D01*
X149509901Y-86011843D01*
X149531409Y-86065285D01*
X149542113Y-86115023D01*
X149545681Y-86168391D01*
X149541608Y-86225602D01*
X149529389Y-86278681D01*
X149509025Y-86327627D01*
X149480514Y-86372441D01*
X149460565Y-86396194D01*
X149420500Y-86432066D01*
X149374995Y-86459128D01*
X149324052Y-86477379D01*
X149267671Y-86486819D01*
X149233011Y-86488258D01*
X149180882Y-86484838D01*
X149124960Y-86472203D01*
X149074311Y-86450259D01*
X149028934Y-86419006D01*
X148999750Y-86390982D01*
X148964941Y-86346297D01*
X148938681Y-86297575D01*
X148920971Y-86244815D01*
X148911811Y-86188018D01*
X148911072Y-86169880D01*
X148958060Y-86169880D01*
X148970552Y-86219352D01*
X149008028Y-86257900D01*
X149023324Y-86266907D01*
X149074238Y-86286404D01*
X149125143Y-86296336D01*
X149177379Y-86300617D01*
X149205963Y-86301152D01*
X149259786Y-86299300D01*
X149309216Y-86293742D01*
X149360327Y-86282855D01*
X149410968Y-86264822D01*
X149416146Y-86262440D01*
X149459331Y-86235410D01*
X149490039Y-86195489D01*
X149498036Y-86155984D01*
X149485497Y-86104279D01*
X149451397Y-86067496D01*
X149432524Y-86056227D01*
X149382588Y-86037154D01*
X149328693Y-86026685D01*
X149273267Y-86022858D01*
X149260060Y-86022727D01*
X149203745Y-86025115D01*
X149150191Y-86032281D01*
X149099398Y-86044223D01*
X149051365Y-86060942D01*
X149006262Y-86084909D01*
X148971181Y-86121293D01*
X148958060Y-86169880D01*
X148911072Y-86169880D01*
X148910415Y-86153750D01*
X148913381Y-86102395D01*
X148924340Y-86046979D01*
X148943373Y-85996407D01*
X148970480Y-85950681D01*
X148994787Y-85920985D01*
X149033918Y-85885499D01*
X149077704Y-85858729D01*
X149126145Y-85840675D01*
X149179240Y-85831337D01*
X149211670Y-85829914D01*
X149267495Y-85834497D01*
G37*
G36*
X149019850Y-85483495D02*
G01*
X148982476Y-85445610D01*
X148950887Y-85404331D01*
X148937712Y-85382002D01*
X148918119Y-85333463D01*
X148910522Y-85284161D01*
X148910415Y-85277530D01*
X148917148Y-85226314D01*
X148926049Y-85198122D01*
X148951918Y-85154261D01*
X148988377Y-85115792D01*
X148998757Y-85106554D01*
X148966513Y-85065215D01*
X148939942Y-85019781D01*
X148932501Y-85003324D01*
X148916648Y-84952939D01*
X148910502Y-84901354D01*
X148910415Y-84894385D01*
X148914557Y-84844549D01*
X148930868Y-84794621D01*
X148962775Y-84753932D01*
X149009943Y-84727167D01*
X149060179Y-84714299D01*
X149113887Y-84710052D01*
X149120351Y-84710009D01*
X149359816Y-84713484D01*
X149409975Y-84712718D01*
X149461001Y-84708484D01*
X149476447Y-84703806D01*
X149496750Y-84658505D01*
X149498036Y-84650701D01*
X149512925Y-84626383D01*
X149529800Y-84654920D01*
X149529800Y-84669065D01*
X149529800Y-84722303D01*
X149529800Y-84775310D01*
X149529800Y-84796614D01*
X149529800Y-84846829D01*
X149529800Y-84887437D01*
X149529800Y-84924908D01*
X149514166Y-84959897D01*
X149498036Y-84936819D01*
X149484897Y-84888770D01*
X149484388Y-84888182D01*
X149433525Y-84875534D01*
X149420365Y-84874285D01*
X149367776Y-84871261D01*
X149314274Y-84869909D01*
X149264329Y-84869400D01*
X149232515Y-84869322D01*
X149176728Y-84869725D01*
X149125349Y-84871143D01*
X149075593Y-84874621D01*
X149066502Y-84875774D01*
X149018597Y-84889830D01*
X148997764Y-84904311D01*
X148974523Y-84949949D01*
X148973942Y-84960145D01*
X148986884Y-85009593D01*
X148993546Y-85021190D01*
X149025999Y-85060643D01*
X149053102Y-85084965D01*
X149105611Y-85093377D01*
X149157990Y-85098943D01*
X149217174Y-85102991D01*
X149271692Y-85105205D01*
X149330935Y-85106365D01*
X149368750Y-85106554D01*
X149420680Y-85105088D01*
X149470616Y-85096364D01*
X149474710Y-85094147D01*
X149496586Y-85047491D01*
X149498036Y-85036824D01*
X149512429Y-85010272D01*
X149529800Y-85043772D01*
X149529800Y-85094541D01*
X149529800Y-85097373D01*
X149529800Y-85148805D01*
X149529800Y-85187451D01*
X149529800Y-85240394D01*
X149529800Y-85291040D01*
X149529800Y-85294901D01*
X149529800Y-85319219D01*
X149513918Y-85349990D01*
X149498036Y-85319964D01*
X149471748Y-85276879D01*
X149453121Y-85269837D01*
X149398994Y-85263904D01*
X149348435Y-85261705D01*
X149294961Y-85260433D01*
X149244757Y-85259782D01*
X149187953Y-85259456D01*
X149157077Y-85259415D01*
X149103575Y-85260848D01*
X149052098Y-85266491D01*
X149013398Y-85277530D01*
X148977795Y-85313346D01*
X148973942Y-85336838D01*
X148984690Y-85386030D01*
X149016934Y-85426777D01*
X149050372Y-85449250D01*
X149097443Y-85467272D01*
X149153363Y-85478818D01*
X149212239Y-85485576D01*
X149269019Y-85488995D01*
X149319495Y-85490283D01*
X149346416Y-85490443D01*
X149398143Y-85489423D01*
X149450474Y-85484344D01*
X149472725Y-85477540D01*
X149497676Y-85433280D01*
X149498036Y-85428902D01*
X149512181Y-85402350D01*
X149529800Y-85430887D01*
X149529800Y-85450491D01*
X149529800Y-85503623D01*
X149529800Y-85553602D01*
X149529800Y-85574815D01*
X149529800Y-85628450D01*
X149529800Y-85678411D01*
X149529800Y-85695664D01*
X149529800Y-85720727D01*
X149513918Y-85743805D01*
X149498036Y-85717998D01*
X149485958Y-85669306D01*
X149482899Y-85666382D01*
X149434262Y-85654054D01*
X149410439Y-85651741D01*
X149357120Y-85648916D01*
X149302798Y-85647598D01*
X149244529Y-85646953D01*
X149186607Y-85646778D01*
X149135062Y-85646933D01*
X149082260Y-85647585D01*
X149030243Y-85649614D01*
X149025805Y-85650004D01*
X148979521Y-85669260D01*
X148976175Y-85672834D01*
X148958346Y-85721248D01*
X148958060Y-85727676D01*
X148942427Y-85756213D01*
X148926297Y-85727676D01*
X148922493Y-85674851D01*
X148917793Y-85622735D01*
X148917363Y-85618241D01*
X148913129Y-85566467D01*
X148910748Y-85516600D01*
X148910415Y-85492429D01*
X148961413Y-85484528D01*
X148978160Y-85484240D01*
X149019850Y-85483495D01*
G37*
G36*
X149280932Y-83893070D02*
G01*
X149332725Y-83905645D01*
X149381193Y-83926604D01*
X149426336Y-83955945D01*
X149450639Y-83976476D01*
X149487672Y-84016308D01*
X149515609Y-84059156D01*
X149536400Y-84111818D01*
X149544846Y-84161129D01*
X149545681Y-84183185D01*
X149541307Y-84232820D01*
X149533274Y-84265571D01*
X149514460Y-84312020D01*
X149496547Y-84342994D01*
X149547919Y-84342859D01*
X149609914Y-84342258D01*
X149664480Y-84341177D01*
X149722240Y-84339148D01*
X149776231Y-84335723D01*
X149825875Y-84328556D01*
X149829069Y-84327609D01*
X149868258Y-84293969D01*
X149879196Y-84245223D01*
X149895077Y-84220904D01*
X149910959Y-84253660D01*
X149910959Y-84304555D01*
X149910959Y-84311728D01*
X149910959Y-84365364D01*
X149910959Y-84418191D01*
X149910959Y-84453918D01*
X149910959Y-84505835D01*
X149910959Y-84553923D01*
X149910959Y-84590153D01*
X149895822Y-84626383D01*
X149879196Y-84587423D01*
X149858262Y-84539099D01*
X149811863Y-84514265D01*
X149798547Y-84511489D01*
X149749083Y-84506558D01*
X149692800Y-84503777D01*
X149635202Y-84501997D01*
X149584670Y-84500922D01*
X149527852Y-84500069D01*
X149464749Y-84499439D01*
X149395360Y-84499031D01*
X149345609Y-84498883D01*
X149293064Y-84498833D01*
X149057569Y-84503052D01*
X149006902Y-84506139D01*
X148968979Y-84519182D01*
X148945956Y-84563456D01*
X148945156Y-84569804D01*
X148927786Y-84596356D01*
X148910415Y-84566330D01*
X148910415Y-84512941D01*
X148910415Y-84460906D01*
X148910415Y-84410224D01*
X148910415Y-84353960D01*
X148910415Y-84333317D01*
X148975927Y-84331828D01*
X148995531Y-84333317D01*
X148960260Y-84296919D01*
X148931756Y-84253164D01*
X148920253Y-84220160D01*
X148973942Y-84220160D01*
X148988761Y-84268166D01*
X149029060Y-84302282D01*
X149051365Y-84312720D01*
X149100939Y-84327715D01*
X149155354Y-84336923D01*
X149210957Y-84341800D01*
X149264552Y-84343618D01*
X149283634Y-84343739D01*
X149333693Y-84342302D01*
X149387237Y-84336232D01*
X149436152Y-84322363D01*
X149452376Y-84313713D01*
X149486621Y-84274815D01*
X149497858Y-84226225D01*
X149498036Y-84218175D01*
X149486162Y-84166565D01*
X149450539Y-84127685D01*
X149435999Y-84118914D01*
X149386076Y-84099983D01*
X149334412Y-84090338D01*
X149280315Y-84086182D01*
X149250382Y-84085662D01*
X149195765Y-84087455D01*
X149140237Y-84093896D01*
X149086556Y-84106739D01*
X149046650Y-84123133D01*
X149005255Y-84151392D01*
X148977421Y-84195076D01*
X148973942Y-84220160D01*
X148920253Y-84220160D01*
X148914500Y-84203655D01*
X148910415Y-84163085D01*
X148917423Y-84108854D01*
X148935418Y-84061934D01*
X148964486Y-84016224D01*
X148999005Y-83977220D01*
X149040138Y-83942798D01*
X149086021Y-83916831D01*
X149136653Y-83899317D01*
X149192035Y-83890259D01*
X149225815Y-83888879D01*
X149280932Y-83893070D01*
G37*
G36*
X149508707Y-83186860D02*
G01*
X149525694Y-83234703D01*
X149531537Y-83258576D01*
X149541206Y-83308503D01*
X149545626Y-83360211D01*
X149545681Y-83366273D01*
X149539483Y-83416421D01*
X149531288Y-83432281D01*
X149484787Y-83453391D01*
X149482651Y-83453622D01*
X149510196Y-83496987D01*
X149529800Y-83540723D01*
X149542641Y-83590372D01*
X149545681Y-83629313D01*
X149538555Y-83681814D01*
X149514942Y-83726353D01*
X149502503Y-83739244D01*
X149457701Y-83767030D01*
X149408507Y-83777615D01*
X149397039Y-83777955D01*
X149346378Y-83770575D01*
X149311427Y-83754629D01*
X149272672Y-83722993D01*
X149253111Y-83696810D01*
X149230220Y-83650902D01*
X149210364Y-83601815D01*
X149203233Y-83582661D01*
X149185557Y-83535553D01*
X149165762Y-83493078D01*
X149130589Y-83457813D01*
X149125810Y-83454863D01*
X149091149Y-83444441D01*
X149180403Y-83444441D01*
X149213419Y-83483544D01*
X149238719Y-83524593D01*
X149266342Y-83567993D01*
X149297530Y-83602016D01*
X149345065Y-83619706D01*
X149373961Y-83621620D01*
X149425616Y-83615103D01*
X149454610Y-83601024D01*
X149481724Y-83557760D01*
X149482155Y-83550401D01*
X149466354Y-83502070D01*
X149441706Y-83475211D01*
X149394487Y-83451293D01*
X149340792Y-83441896D01*
X149299019Y-83440222D01*
X149245855Y-83441557D01*
X149196204Y-83443687D01*
X149180403Y-83444441D01*
X149091149Y-83444441D01*
X149077839Y-83440439D01*
X149058065Y-83439478D01*
X149008377Y-83448493D01*
X148985357Y-83462556D01*
X148959766Y-83506944D01*
X148958060Y-83526082D01*
X148973764Y-83573803D01*
X148975927Y-83575712D01*
X149023057Y-83595472D01*
X149035235Y-83598046D01*
X149081717Y-83615469D01*
X149112970Y-83655964D01*
X149116877Y-83683906D01*
X149100575Y-83731512D01*
X149099506Y-83732792D01*
X149053385Y-83752814D01*
X149049380Y-83752892D01*
X148998379Y-83740851D01*
X148959091Y-83704729D01*
X148944908Y-83679936D01*
X148926719Y-83631575D01*
X148915266Y-83577690D01*
X148910718Y-83524469D01*
X148910415Y-83505734D01*
X148912960Y-83454446D01*
X148921637Y-83405307D01*
X148936471Y-83363792D01*
X148962752Y-83321102D01*
X148997020Y-83293813D01*
X149047794Y-83281373D01*
X149099699Y-83278443D01*
X149104221Y-83278428D01*
X149267008Y-83279669D01*
X149318840Y-83279253D01*
X149372534Y-83277497D01*
X149424379Y-83272535D01*
X149432028Y-83270983D01*
X149468364Y-83237032D01*
X149468506Y-83233513D01*
X149467762Y-83222346D01*
X149466273Y-83203486D01*
X149486373Y-83174949D01*
X149508707Y-83186860D01*
G37*
G36*
X149232267Y-83094300D02*
G01*
X149176013Y-83090001D01*
X149123416Y-83077106D01*
X149074476Y-83055613D01*
X149029194Y-83025523D01*
X149004961Y-83004469D01*
X148968121Y-82962851D01*
X148940330Y-82916816D01*
X148921587Y-82866363D01*
X148911893Y-82811493D01*
X148910415Y-82778156D01*
X148914680Y-82724406D01*
X148927476Y-82674824D01*
X148948801Y-82629411D01*
X148954090Y-82620828D01*
X148985851Y-82582117D01*
X149031788Y-82556089D01*
X149057072Y-82552835D01*
X149105936Y-82567498D01*
X149112658Y-82573432D01*
X149132582Y-82619526D01*
X149132758Y-82625295D01*
X149113729Y-82674070D01*
X149071103Y-82702254D01*
X149046154Y-82711155D01*
X148999286Y-82728707D01*
X148978409Y-82741926D01*
X148958140Y-82788018D01*
X148958060Y-82792052D01*
X148972577Y-82842303D01*
X149012555Y-82876567D01*
X149016127Y-82878409D01*
X149067692Y-82895950D01*
X149117129Y-82903793D01*
X149168818Y-82906941D01*
X149190081Y-82907194D01*
X149245719Y-82904926D01*
X149296252Y-82898122D01*
X149347751Y-82884792D01*
X149397716Y-82862714D01*
X149402746Y-82859798D01*
X149444622Y-82827436D01*
X149472771Y-82785513D01*
X149482155Y-82736963D01*
X149472615Y-82685122D01*
X149443996Y-82642665D01*
X149402539Y-82612801D01*
X149361553Y-82595269D01*
X149323338Y-82564002D01*
X149344183Y-82544398D01*
X149395017Y-82554596D01*
X149440589Y-82579155D01*
X149475206Y-82606188D01*
X149509274Y-82645773D01*
X149532192Y-82695016D01*
X149543204Y-82746895D01*
X149545681Y-82790812D01*
X149541442Y-82847268D01*
X149528725Y-82898950D01*
X149507529Y-82945859D01*
X149477855Y-82987995D01*
X149457091Y-83009929D01*
X149416053Y-83042804D01*
X149370456Y-83067604D01*
X149320298Y-83084330D01*
X149265581Y-83092982D01*
X149232267Y-83094300D01*
G37*
G36*
X148928530Y-82173661D02*
G01*
X148926927Y-82123723D01*
X148926351Y-82069483D01*
X148926297Y-82043134D01*
X148930015Y-81993009D01*
X148933493Y-81977374D01*
X148981863Y-81989529D01*
X148991809Y-81995985D01*
X148997585Y-82050085D01*
X149001563Y-82107144D01*
X149005076Y-82163210D01*
X149005705Y-82173661D01*
X149313412Y-82181105D01*
X149364085Y-82179870D01*
X149409695Y-82174653D01*
X149454488Y-82151157D01*
X149461310Y-82144131D01*
X149481157Y-82098578D01*
X149482155Y-82082838D01*
X149471298Y-82031947D01*
X149454362Y-81991270D01*
X149450391Y-81975885D01*
X149463295Y-81962733D01*
X149500318Y-81997265D01*
X149513670Y-82019311D01*
X149534396Y-82068475D01*
X149544149Y-82119529D01*
X149545681Y-82151824D01*
X149541416Y-82204342D01*
X149526872Y-82253380D01*
X149502007Y-82293269D01*
X149460286Y-82322515D01*
X149409008Y-82337413D01*
X149358459Y-82343383D01*
X149316638Y-82344637D01*
X149258225Y-82344436D01*
X149199864Y-82343834D01*
X149141555Y-82342831D01*
X149083299Y-82341426D01*
X149025095Y-82339620D01*
X149005705Y-82338929D01*
X149005040Y-82391597D01*
X149002231Y-82436701D01*
X148980890Y-82465238D01*
X148957564Y-82432482D01*
X148941979Y-82381950D01*
X148918613Y-82336006D01*
X148905204Y-82316347D01*
X148870261Y-82279951D01*
X148827195Y-82250327D01*
X148784107Y-82228750D01*
X148742914Y-82208898D01*
X148735717Y-82193761D01*
X148768721Y-82173661D01*
X148928530Y-82173661D01*
G37*
G36*
X150344578Y-84565090D02*
G01*
X150319514Y-84546975D01*
X150299662Y-84523400D01*
X150329192Y-84500322D01*
X150513320Y-84475755D01*
X150535654Y-84473026D01*
X150553769Y-84491885D01*
X150547317Y-84512233D01*
X150505131Y-84535808D01*
X150461278Y-84563841D01*
X150424145Y-84599225D01*
X150395945Y-84635068D01*
X150370296Y-84678257D01*
X150353054Y-84725933D01*
X150347307Y-84773784D01*
X150353778Y-84825100D01*
X150375220Y-84872028D01*
X150386515Y-84886693D01*
X150427511Y-84918932D01*
X150477449Y-84931433D01*
X150484783Y-84931608D01*
X150534998Y-84918339D01*
X150570147Y-84889671D01*
X150598657Y-84847330D01*
X150620085Y-84801284D01*
X150639166Y-84750072D01*
X150646329Y-84728373D01*
X150665638Y-84672924D01*
X150685723Y-84623364D01*
X150710848Y-84571666D01*
X150737090Y-84528447D01*
X150769117Y-84488742D01*
X150783308Y-84475259D01*
X150827635Y-84443471D01*
X150874631Y-84422086D01*
X150924297Y-84411105D01*
X150953043Y-84409499D01*
X151004349Y-84413307D01*
X151055647Y-84426471D01*
X151100934Y-84449037D01*
X151113349Y-84457640D01*
X151154621Y-84492966D01*
X151189384Y-84532749D01*
X151215339Y-84572782D01*
X151236531Y-84623302D01*
X151248163Y-84676965D01*
X151252416Y-84731560D01*
X151252561Y-84744503D01*
X151249474Y-84797205D01*
X151241078Y-84847588D01*
X151236431Y-84867337D01*
X151221880Y-84915540D01*
X151202791Y-84964860D01*
X151187546Y-84998361D01*
X151226257Y-85022183D01*
X151252561Y-85050224D01*
X151214842Y-85071069D01*
X150960488Y-85091417D01*
X150939395Y-85092906D01*
X150919047Y-85071813D01*
X150954780Y-85042532D01*
X151006147Y-85019283D01*
X151053048Y-84992219D01*
X151095482Y-84961340D01*
X151133449Y-84926645D01*
X151167996Y-84883843D01*
X151191237Y-84837232D01*
X151203171Y-84786814D01*
X151204916Y-84757158D01*
X151199081Y-84704271D01*
X151179405Y-84655137D01*
X151155534Y-84624149D01*
X151116613Y-84593301D01*
X151066442Y-84575306D01*
X151043370Y-84573527D01*
X150992358Y-84582504D01*
X150948755Y-84609435D01*
X150937658Y-84620427D01*
X150908613Y-84661356D01*
X150885546Y-84708017D01*
X150865570Y-84759446D01*
X150855768Y-84788673D01*
X150839119Y-84837357D01*
X150820527Y-84885928D01*
X150800167Y-84931562D01*
X150782564Y-84964116D01*
X150752658Y-85004049D01*
X150715423Y-85037491D01*
X150686529Y-85056180D01*
X150640501Y-85077199D01*
X150590086Y-85089022D01*
X150562702Y-85090673D01*
X150509924Y-85085384D01*
X150461270Y-85069518D01*
X150416743Y-85043074D01*
X150376341Y-85006053D01*
X150346463Y-84966003D01*
X150323924Y-84920110D01*
X150308723Y-84868375D01*
X150300860Y-84810798D01*
X150299662Y-84775273D01*
X150304049Y-84720840D01*
X150313874Y-84669930D01*
X150327076Y-84620015D01*
X150344578Y-84565090D01*
G37*
G36*
X151468593Y-83350337D02*
G01*
X151506379Y-83382529D01*
X151531731Y-83405977D01*
X151565283Y-83443438D01*
X151593537Y-83491048D01*
X151611028Y-83543776D01*
X151617503Y-83594112D01*
X151617839Y-83609213D01*
X151614099Y-83660412D01*
X151602877Y-83712608D01*
X151584175Y-83765802D01*
X151562190Y-83812191D01*
X151539672Y-83851408D01*
X151513057Y-83894354D01*
X151486594Y-83938308D01*
X151462249Y-83981687D01*
X151445007Y-84028529D01*
X151443141Y-84046951D01*
X151458157Y-84094663D01*
X151464234Y-84100551D01*
X151511506Y-84117674D01*
X151534212Y-84119411D01*
X151584471Y-84128108D01*
X151600220Y-84137526D01*
X151617770Y-84184345D01*
X151617839Y-84188645D01*
X151601537Y-84236529D01*
X151600468Y-84237779D01*
X151558531Y-84257631D01*
X151505659Y-84240663D01*
X151465334Y-84205668D01*
X151431290Y-84161925D01*
X151403766Y-84117385D01*
X151375987Y-84064363D01*
X151354984Y-84019028D01*
X151340903Y-83986154D01*
X151318087Y-83934704D01*
X151297719Y-83889385D01*
X151276508Y-83843095D01*
X151253709Y-83795109D01*
X151237176Y-83762818D01*
X151247693Y-83814570D01*
X151252501Y-83865922D01*
X151252561Y-83871756D01*
X151249134Y-83924861D01*
X151238851Y-83977469D01*
X151221713Y-84029580D01*
X151201094Y-84074771D01*
X151197720Y-84081196D01*
X151171174Y-84124133D01*
X151139522Y-84163271D01*
X151102764Y-84198610D01*
X151060900Y-84230148D01*
X151034685Y-84246464D01*
X150985971Y-84270927D01*
X150934716Y-84289381D01*
X150880920Y-84301828D01*
X150824583Y-84308265D01*
X150791249Y-84309246D01*
X150741363Y-84306951D01*
X150681601Y-84297626D01*
X150624722Y-84281128D01*
X150570728Y-84257456D01*
X150519617Y-84226612D01*
X150471390Y-84188594D01*
X150443838Y-84162341D01*
X150410047Y-84124727D01*
X150374144Y-84075212D01*
X150345280Y-84022922D01*
X150323457Y-83967857D01*
X150308673Y-83910018D01*
X150300930Y-83849404D01*
X150299871Y-83817908D01*
X150347307Y-83817908D01*
X150354054Y-83870392D01*
X150374294Y-83918161D01*
X150408027Y-83961215D01*
X150448612Y-83995019D01*
X150455253Y-83999554D01*
X150499414Y-84023926D01*
X150550938Y-84043256D01*
X150599500Y-84055512D01*
X150653174Y-84064266D01*
X150711962Y-84069519D01*
X150762674Y-84071200D01*
X150775864Y-84071270D01*
X150837378Y-84069591D01*
X150894433Y-84064557D01*
X150947029Y-84056166D01*
X151004259Y-84041667D01*
X151055068Y-84022334D01*
X151092504Y-84002532D01*
X151136305Y-83970203D01*
X151173190Y-83927730D01*
X151196024Y-83879364D01*
X151204806Y-83825105D01*
X151204916Y-83817908D01*
X151198573Y-83768231D01*
X151179543Y-83721935D01*
X151147826Y-83679021D01*
X151109667Y-83644244D01*
X151103423Y-83639487D01*
X151060907Y-83613766D01*
X151009668Y-83593366D01*
X150960305Y-83580432D01*
X150904883Y-83571193D01*
X150843402Y-83565649D01*
X150789856Y-83563875D01*
X150775864Y-83563801D01*
X150724221Y-83564926D01*
X150664303Y-83569494D01*
X150609534Y-83577576D01*
X150559915Y-83589171D01*
X150507169Y-83607725D01*
X150461839Y-83631338D01*
X150455005Y-83635765D01*
X150413041Y-83668993D01*
X150377702Y-83711504D01*
X150355826Y-83758855D01*
X150347412Y-83811044D01*
X150347307Y-83817908D01*
X150299871Y-83817908D01*
X150299662Y-83811704D01*
X150301775Y-83756642D01*
X150308115Y-83704611D01*
X150318681Y-83655613D01*
X150337831Y-83598629D01*
X150363585Y-83546383D01*
X150395943Y-83498875D01*
X150434904Y-83456104D01*
X150478411Y-83418787D01*
X150524559Y-83387795D01*
X150573348Y-83363127D01*
X150624779Y-83344785D01*
X150678851Y-83332768D01*
X150735564Y-83327075D01*
X150758989Y-83326569D01*
X150813361Y-83329501D01*
X150866267Y-83338298D01*
X150913091Y-83351384D01*
X150962787Y-83371260D01*
X151010196Y-83396765D01*
X151051311Y-83424837D01*
X151090584Y-83457382D01*
X151128063Y-83494532D01*
X151163749Y-83536287D01*
X151170671Y-83545190D01*
X151200734Y-83587140D01*
X151229227Y-83632308D01*
X151256150Y-83680696D01*
X151270428Y-83708970D01*
X151367455Y-83909475D01*
X151363736Y-83859661D01*
X151363733Y-83858604D01*
X151368993Y-83806967D01*
X151380359Y-83766044D01*
X151401081Y-83716715D01*
X151423444Y-83671592D01*
X151445871Y-83629561D01*
X151470155Y-83583651D01*
X151485327Y-83551146D01*
X151490786Y-83507967D01*
X151481637Y-83457613D01*
X151454191Y-83413005D01*
X151413363Y-83377440D01*
X151395496Y-83350392D01*
X151423289Y-83324584D01*
X151468593Y-83350337D01*
G37*
G36*
X150315544Y-82909924D02*
G01*
X150363014Y-82888184D01*
X150408787Y-82865443D01*
X150452523Y-82842923D01*
X150499594Y-82818543D01*
X150547007Y-82794286D01*
X150594760Y-82770153D01*
X150642855Y-82746145D01*
X150691740Y-82721438D01*
X150741867Y-82695212D01*
X150786745Y-82671017D01*
X150832574Y-82645658D01*
X150845842Y-82638199D01*
X150891765Y-82612206D01*
X150936912Y-82587655D01*
X150944854Y-82583854D01*
X150896566Y-82562287D01*
X150849471Y-82541385D01*
X150803571Y-82521149D01*
X150736960Y-82492040D01*
X150673036Y-82464428D01*
X150611799Y-82438312D01*
X150553249Y-82413692D01*
X150497386Y-82390568D01*
X150444210Y-82368940D01*
X150393721Y-82348809D01*
X150345919Y-82330173D01*
X150315544Y-82318581D01*
X150315544Y-82266867D01*
X150315544Y-82216413D01*
X150315544Y-82157531D01*
X150315544Y-82100464D01*
X150315544Y-82045212D01*
X150315544Y-82009385D01*
X150315544Y-81989781D01*
X150332418Y-81961244D01*
X150347307Y-81983577D01*
X150354984Y-82035608D01*
X150383347Y-82076815D01*
X150401900Y-82088049D01*
X150451312Y-82101135D01*
X150504098Y-82107411D01*
X150561269Y-82110901D01*
X150617322Y-82112476D01*
X150667670Y-82112864D01*
X151012599Y-82113608D01*
X151067037Y-82111430D01*
X151119925Y-82102849D01*
X151160497Y-82086064D01*
X151194044Y-82046993D01*
X151204916Y-81996233D01*
X151222535Y-81966207D01*
X151237920Y-81978863D01*
X151236680Y-82174902D01*
X151236680Y-82230812D01*
X151236680Y-82281544D01*
X151236680Y-82338618D01*
X151236680Y-82392585D01*
X151236680Y-82421315D01*
X151221542Y-82434467D01*
X151204916Y-82398237D01*
X151190384Y-82350506D01*
X151186801Y-82344885D01*
X151142382Y-82320070D01*
X151090135Y-82312819D01*
X151047340Y-82311633D01*
X150733182Y-82308903D01*
X150676080Y-82308891D01*
X150625376Y-82308857D01*
X150570992Y-82308780D01*
X150518927Y-82308641D01*
X150467819Y-82308333D01*
X150455501Y-82308159D01*
X150509315Y-82331324D01*
X150560639Y-82353361D01*
X150609475Y-82374269D01*
X150655821Y-82394050D01*
X150720672Y-82421605D01*
X150779923Y-82446621D01*
X150833573Y-82469098D01*
X150881622Y-82489037D01*
X150936975Y-82511673D01*
X150992165Y-82533622D01*
X151017811Y-82543406D01*
X151206653Y-82613880D01*
X151236680Y-82637703D01*
X151199705Y-82667729D01*
X151154142Y-82690018D01*
X151100323Y-82717053D01*
X151049826Y-82742698D01*
X150990644Y-82772945D01*
X150946365Y-82795666D01*
X150898225Y-82820433D01*
X150846226Y-82847245D01*
X150790367Y-82876102D01*
X150730648Y-82907004D01*
X150667069Y-82939952D01*
X150599630Y-82974945D01*
X150528332Y-83011984D01*
X150491235Y-83031270D01*
X150548552Y-83032271D01*
X150598663Y-83032949D01*
X150652558Y-83033519D01*
X150710237Y-83033981D01*
X150771701Y-83034333D01*
X150836949Y-83034578D01*
X150888369Y-83034690D01*
X150941917Y-83034741D01*
X150960240Y-83034744D01*
X151014564Y-83034133D01*
X151067777Y-83031877D01*
X151120106Y-83026534D01*
X151157023Y-83017373D01*
X151190932Y-82981005D01*
X151203915Y-82929377D01*
X151204916Y-82919602D01*
X151221294Y-82893050D01*
X151236680Y-82914639D01*
X151236680Y-82931513D01*
X151236680Y-82983435D01*
X151236680Y-83033403D01*
X151236680Y-83051618D01*
X151236680Y-83103505D01*
X151236680Y-83156578D01*
X151236680Y-83201501D01*
X151236680Y-83216390D01*
X151219557Y-83240709D01*
X151208142Y-83234753D01*
X151199209Y-83202990D01*
X151183718Y-83153247D01*
X151150819Y-83115393D01*
X151103609Y-83099946D01*
X151053137Y-83095118D01*
X151033444Y-83094796D01*
X150632432Y-83091322D01*
X150576945Y-83091655D01*
X150524407Y-83092849D01*
X150471109Y-83095909D01*
X150451282Y-83098271D01*
X150404017Y-83114904D01*
X150383289Y-83132515D01*
X150358992Y-83176915D01*
X150347307Y-83221105D01*
X150330185Y-83244183D01*
X150315544Y-83219120D01*
X150315544Y-83203735D01*
X150315544Y-83151700D01*
X150315544Y-83094672D01*
X150315544Y-83034261D01*
X150315544Y-82975788D01*
X150315544Y-82923688D01*
X150315544Y-82909924D01*
G37*
D13*
X144847733Y-77979787D02*
X144678399Y-77737882D01*
X144557447Y-77979787D02*
X144557447Y-77471787D01*
X144557447Y-77471787D02*
X144750971Y-77471787D01*
X144750971Y-77471787D02*
X144799352Y-77495977D01*
X144799352Y-77495977D02*
X144823542Y-77520168D01*
X144823542Y-77520168D02*
X144847733Y-77568549D01*
X144847733Y-77568549D02*
X144847733Y-77641120D01*
X144847733Y-77641120D02*
X144823542Y-77689501D01*
X144823542Y-77689501D02*
X144799352Y-77713692D01*
X144799352Y-77713692D02*
X144750971Y-77737882D01*
X144750971Y-77737882D02*
X144557447Y-77737882D01*
X145089637Y-77979787D02*
X145186399Y-77979787D01*
X145186399Y-77979787D02*
X145234780Y-77955597D01*
X145234780Y-77955597D02*
X145258971Y-77931406D01*
X145258971Y-77931406D02*
X145307352Y-77858835D01*
X145307352Y-77858835D02*
X145331542Y-77762073D01*
X145331542Y-77762073D02*
X145331542Y-77568549D01*
X145331542Y-77568549D02*
X145307352Y-77520168D01*
X145307352Y-77520168D02*
X145283161Y-77495977D01*
X145283161Y-77495977D02*
X145234780Y-77471787D01*
X145234780Y-77471787D02*
X145138018Y-77471787D01*
X145138018Y-77471787D02*
X145089637Y-77495977D01*
X145089637Y-77495977D02*
X145065447Y-77520168D01*
X145065447Y-77520168D02*
X145041256Y-77568549D01*
X145041256Y-77568549D02*
X145041256Y-77689501D01*
X145041256Y-77689501D02*
X145065447Y-77737882D01*
X145065447Y-77737882D02*
X145089637Y-77762073D01*
X145089637Y-77762073D02*
X145138018Y-77786263D01*
X145138018Y-77786263D02*
X145234780Y-77786263D01*
X145234780Y-77786263D02*
X145283161Y-77762073D01*
X145283161Y-77762073D02*
X145307352Y-77737882D01*
X145307352Y-77737882D02*
X145331542Y-77689501D01*
X144873133Y-79658606D02*
X144848942Y-79682797D01*
X144848942Y-79682797D02*
X144776371Y-79706987D01*
X144776371Y-79706987D02*
X144727990Y-79706987D01*
X144727990Y-79706987D02*
X144655418Y-79682797D01*
X144655418Y-79682797D02*
X144607037Y-79634416D01*
X144607037Y-79634416D02*
X144582847Y-79586035D01*
X144582847Y-79586035D02*
X144558656Y-79489273D01*
X144558656Y-79489273D02*
X144558656Y-79416701D01*
X144558656Y-79416701D02*
X144582847Y-79319939D01*
X144582847Y-79319939D02*
X144607037Y-79271558D01*
X144607037Y-79271558D02*
X144655418Y-79223177D01*
X144655418Y-79223177D02*
X144727990Y-79198987D01*
X144727990Y-79198987D02*
X144776371Y-79198987D01*
X144776371Y-79198987D02*
X144848942Y-79223177D01*
X144848942Y-79223177D02*
X144873133Y-79247368D01*
X145042466Y-79198987D02*
X145356942Y-79198987D01*
X145356942Y-79198987D02*
X145187609Y-79392511D01*
X145187609Y-79392511D02*
X145260180Y-79392511D01*
X145260180Y-79392511D02*
X145308561Y-79416701D01*
X145308561Y-79416701D02*
X145332752Y-79440892D01*
X145332752Y-79440892D02*
X145356942Y-79489273D01*
X145356942Y-79489273D02*
X145356942Y-79610225D01*
X145356942Y-79610225D02*
X145332752Y-79658606D01*
X145332752Y-79658606D02*
X145308561Y-79682797D01*
X145308561Y-79682797D02*
X145260180Y-79706987D01*
X145260180Y-79706987D02*
X145115037Y-79706987D01*
X145115037Y-79706987D02*
X145066656Y-79682797D01*
X145066656Y-79682797D02*
X145042466Y-79658606D01*
X131345819Y-112699168D02*
X131297438Y-112674977D01*
X131297438Y-112674977D02*
X131249057Y-112626597D01*
X131249057Y-112626597D02*
X131176485Y-112554025D01*
X131176485Y-112554025D02*
X131128104Y-112529835D01*
X131128104Y-112529835D02*
X131079723Y-112529835D01*
X131103914Y-112650787D02*
X131055533Y-112626597D01*
X131055533Y-112626597D02*
X131007152Y-112578216D01*
X131007152Y-112578216D02*
X130982961Y-112481454D01*
X130982961Y-112481454D02*
X130982961Y-112312120D01*
X130982961Y-112312120D02*
X131007152Y-112215358D01*
X131007152Y-112215358D02*
X131055533Y-112166977D01*
X131055533Y-112166977D02*
X131103914Y-112142787D01*
X131103914Y-112142787D02*
X131200676Y-112142787D01*
X131200676Y-112142787D02*
X131249057Y-112166977D01*
X131249057Y-112166977D02*
X131297438Y-112215358D01*
X131297438Y-112215358D02*
X131321628Y-112312120D01*
X131321628Y-112312120D02*
X131321628Y-112481454D01*
X131321628Y-112481454D02*
X131297438Y-112578216D01*
X131297438Y-112578216D02*
X131249057Y-112626597D01*
X131249057Y-112626597D02*
X131200676Y-112650787D01*
X131200676Y-112650787D02*
X131103914Y-112650787D01*
X131515151Y-112191168D02*
X131539342Y-112166977D01*
X131539342Y-112166977D02*
X131587723Y-112142787D01*
X131587723Y-112142787D02*
X131708675Y-112142787D01*
X131708675Y-112142787D02*
X131757056Y-112166977D01*
X131757056Y-112166977D02*
X131781247Y-112191168D01*
X131781247Y-112191168D02*
X131805437Y-112239549D01*
X131805437Y-112239549D02*
X131805437Y-112287930D01*
X131805437Y-112287930D02*
X131781247Y-112360501D01*
X131781247Y-112360501D02*
X131490961Y-112650787D01*
X131490961Y-112650787D02*
X131805437Y-112650787D01*
X128576587Y-94306571D02*
X128334682Y-94475905D01*
X128576587Y-94596857D02*
X128068587Y-94596857D01*
X128068587Y-94596857D02*
X128068587Y-94403333D01*
X128068587Y-94403333D02*
X128092777Y-94354952D01*
X128092777Y-94354952D02*
X128116968Y-94330762D01*
X128116968Y-94330762D02*
X128165349Y-94306571D01*
X128165349Y-94306571D02*
X128237920Y-94306571D01*
X128237920Y-94306571D02*
X128286301Y-94330762D01*
X128286301Y-94330762D02*
X128310492Y-94354952D01*
X128310492Y-94354952D02*
X128334682Y-94403333D01*
X128334682Y-94403333D02*
X128334682Y-94596857D01*
X128576587Y-93822762D02*
X128576587Y-94113048D01*
X128576587Y-93967905D02*
X128068587Y-93967905D01*
X128068587Y-93967905D02*
X128141158Y-94016286D01*
X128141158Y-94016286D02*
X128189539Y-94064667D01*
X128189539Y-94064667D02*
X128213730Y-94113048D01*
X128068587Y-93653428D02*
X128068587Y-93338952D01*
X128068587Y-93338952D02*
X128262111Y-93508285D01*
X128262111Y-93508285D02*
X128262111Y-93435714D01*
X128262111Y-93435714D02*
X128286301Y-93387333D01*
X128286301Y-93387333D02*
X128310492Y-93363142D01*
X128310492Y-93363142D02*
X128358873Y-93338952D01*
X128358873Y-93338952D02*
X128479825Y-93338952D01*
X128479825Y-93338952D02*
X128528206Y-93363142D01*
X128528206Y-93363142D02*
X128552397Y-93387333D01*
X128552397Y-93387333D02*
X128576587Y-93435714D01*
X128576587Y-93435714D02*
X128576587Y-93580857D01*
X128576587Y-93580857D02*
X128552397Y-93629238D01*
X128552397Y-93629238D02*
X128528206Y-93653428D01*
X129737152Y-88012787D02*
X129737152Y-88424025D01*
X129737152Y-88424025D02*
X129761342Y-88472406D01*
X129761342Y-88472406D02*
X129785533Y-88496597D01*
X129785533Y-88496597D02*
X129833914Y-88520787D01*
X129833914Y-88520787D02*
X129930676Y-88520787D01*
X129930676Y-88520787D02*
X129979057Y-88496597D01*
X129979057Y-88496597D02*
X130003247Y-88472406D01*
X130003247Y-88472406D02*
X130027438Y-88424025D01*
X130027438Y-88424025D02*
X130027438Y-88012787D01*
X130220961Y-88012787D02*
X130535437Y-88012787D01*
X130535437Y-88012787D02*
X130366104Y-88206311D01*
X130366104Y-88206311D02*
X130438675Y-88206311D01*
X130438675Y-88206311D02*
X130487056Y-88230501D01*
X130487056Y-88230501D02*
X130511247Y-88254692D01*
X130511247Y-88254692D02*
X130535437Y-88303073D01*
X130535437Y-88303073D02*
X130535437Y-88424025D01*
X130535437Y-88424025D02*
X130511247Y-88472406D01*
X130511247Y-88472406D02*
X130487056Y-88496597D01*
X130487056Y-88496597D02*
X130438675Y-88520787D01*
X130438675Y-88520787D02*
X130293532Y-88520787D01*
X130293532Y-88520787D02*
X130245151Y-88496597D01*
X130245151Y-88496597D02*
X130220961Y-88472406D01*
X139422387Y-107780666D02*
X139180482Y-107950000D01*
X139422387Y-108070952D02*
X138914387Y-108070952D01*
X138914387Y-108070952D02*
X138914387Y-107877428D01*
X138914387Y-107877428D02*
X138938577Y-107829047D01*
X138938577Y-107829047D02*
X138962768Y-107804857D01*
X138962768Y-107804857D02*
X139011149Y-107780666D01*
X139011149Y-107780666D02*
X139083720Y-107780666D01*
X139083720Y-107780666D02*
X139132101Y-107804857D01*
X139132101Y-107804857D02*
X139156292Y-107829047D01*
X139156292Y-107829047D02*
X139180482Y-107877428D01*
X139180482Y-107877428D02*
X139180482Y-108070952D01*
X138914387Y-107321047D02*
X138914387Y-107562952D01*
X138914387Y-107562952D02*
X139156292Y-107587143D01*
X139156292Y-107587143D02*
X139132101Y-107562952D01*
X139132101Y-107562952D02*
X139107911Y-107514571D01*
X139107911Y-107514571D02*
X139107911Y-107393619D01*
X139107911Y-107393619D02*
X139132101Y-107345238D01*
X139132101Y-107345238D02*
X139156292Y-107321047D01*
X139156292Y-107321047D02*
X139204673Y-107296857D01*
X139204673Y-107296857D02*
X139325625Y-107296857D01*
X139325625Y-107296857D02*
X139374006Y-107321047D01*
X139374006Y-107321047D02*
X139398197Y-107345238D01*
X139398197Y-107345238D02*
X139422387Y-107393619D01*
X139422387Y-107393619D02*
X139422387Y-107514571D01*
X139422387Y-107514571D02*
X139398197Y-107562952D01*
X139398197Y-107562952D02*
X139374006Y-107587143D01*
X137306352Y-76481187D02*
X137306352Y-76892425D01*
X137306352Y-76892425D02*
X137330542Y-76940806D01*
X137330542Y-76940806D02*
X137354733Y-76964997D01*
X137354733Y-76964997D02*
X137403114Y-76989187D01*
X137403114Y-76989187D02*
X137499876Y-76989187D01*
X137499876Y-76989187D02*
X137548257Y-76964997D01*
X137548257Y-76964997D02*
X137572447Y-76940806D01*
X137572447Y-76940806D02*
X137596638Y-76892425D01*
X137596638Y-76892425D02*
X137596638Y-76481187D01*
X138104637Y-76989187D02*
X137814351Y-76989187D01*
X137959494Y-76989187D02*
X137959494Y-76481187D01*
X137959494Y-76481187D02*
X137911113Y-76553758D01*
X137911113Y-76553758D02*
X137862732Y-76602139D01*
X137862732Y-76602139D02*
X137814351Y-76626330D01*
X133861628Y-79656187D02*
X133692294Y-79414282D01*
X133571342Y-79656187D02*
X133571342Y-79148187D01*
X133571342Y-79148187D02*
X133764866Y-79148187D01*
X133764866Y-79148187D02*
X133813247Y-79172377D01*
X133813247Y-79172377D02*
X133837437Y-79196568D01*
X133837437Y-79196568D02*
X133861628Y-79244949D01*
X133861628Y-79244949D02*
X133861628Y-79317520D01*
X133861628Y-79317520D02*
X133837437Y-79365901D01*
X133837437Y-79365901D02*
X133813247Y-79390092D01*
X133813247Y-79390092D02*
X133764866Y-79414282D01*
X133764866Y-79414282D02*
X133571342Y-79414282D01*
X134345437Y-79656187D02*
X134055151Y-79656187D01*
X134200294Y-79656187D02*
X134200294Y-79148187D01*
X134200294Y-79148187D02*
X134151913Y-79220758D01*
X134151913Y-79220758D02*
X134103532Y-79269139D01*
X134103532Y-79269139D02*
X134055151Y-79293330D01*
X134829247Y-79656187D02*
X134538961Y-79656187D01*
X134684104Y-79656187D02*
X134684104Y-79148187D01*
X134684104Y-79148187D02*
X134635723Y-79220758D01*
X134635723Y-79220758D02*
X134587342Y-79269139D01*
X134587342Y-79269139D02*
X134538961Y-79293330D01*
X147121006Y-114892666D02*
X147145197Y-114916857D01*
X147145197Y-114916857D02*
X147169387Y-114989428D01*
X147169387Y-114989428D02*
X147169387Y-115037809D01*
X147169387Y-115037809D02*
X147145197Y-115110381D01*
X147145197Y-115110381D02*
X147096816Y-115158762D01*
X147096816Y-115158762D02*
X147048435Y-115182952D01*
X147048435Y-115182952D02*
X146951673Y-115207143D01*
X146951673Y-115207143D02*
X146879101Y-115207143D01*
X146879101Y-115207143D02*
X146782339Y-115182952D01*
X146782339Y-115182952D02*
X146733958Y-115158762D01*
X146733958Y-115158762D02*
X146685577Y-115110381D01*
X146685577Y-115110381D02*
X146661387Y-115037809D01*
X146661387Y-115037809D02*
X146661387Y-114989428D01*
X146661387Y-114989428D02*
X146685577Y-114916857D01*
X146685577Y-114916857D02*
X146709768Y-114892666D01*
X146830720Y-114457238D02*
X147169387Y-114457238D01*
X146637197Y-114578190D02*
X147000054Y-114699143D01*
X147000054Y-114699143D02*
X147000054Y-114384666D01*
X131422019Y-109193968D02*
X131373638Y-109169777D01*
X131373638Y-109169777D02*
X131325257Y-109121397D01*
X131325257Y-109121397D02*
X131252685Y-109048825D01*
X131252685Y-109048825D02*
X131204304Y-109024635D01*
X131204304Y-109024635D02*
X131155923Y-109024635D01*
X131180114Y-109145587D02*
X131131733Y-109121397D01*
X131131733Y-109121397D02*
X131083352Y-109073016D01*
X131083352Y-109073016D02*
X131059161Y-108976254D01*
X131059161Y-108976254D02*
X131059161Y-108806920D01*
X131059161Y-108806920D02*
X131083352Y-108710158D01*
X131083352Y-108710158D02*
X131131733Y-108661777D01*
X131131733Y-108661777D02*
X131180114Y-108637587D01*
X131180114Y-108637587D02*
X131276876Y-108637587D01*
X131276876Y-108637587D02*
X131325257Y-108661777D01*
X131325257Y-108661777D02*
X131373638Y-108710158D01*
X131373638Y-108710158D02*
X131397828Y-108806920D01*
X131397828Y-108806920D02*
X131397828Y-108976254D01*
X131397828Y-108976254D02*
X131373638Y-109073016D01*
X131373638Y-109073016D02*
X131325257Y-109121397D01*
X131325257Y-109121397D02*
X131276876Y-109145587D01*
X131276876Y-109145587D02*
X131180114Y-109145587D01*
X131881637Y-109145587D02*
X131591351Y-109145587D01*
X131736494Y-109145587D02*
X131736494Y-108637587D01*
X131736494Y-108637587D02*
X131688113Y-108710158D01*
X131688113Y-108710158D02*
X131639732Y-108758539D01*
X131639732Y-108758539D02*
X131591351Y-108782730D01*
X135713987Y-107298066D02*
X135472082Y-107467400D01*
X135713987Y-107588352D02*
X135205987Y-107588352D01*
X135205987Y-107588352D02*
X135205987Y-107394828D01*
X135205987Y-107394828D02*
X135230177Y-107346447D01*
X135230177Y-107346447D02*
X135254368Y-107322257D01*
X135254368Y-107322257D02*
X135302749Y-107298066D01*
X135302749Y-107298066D02*
X135375320Y-107298066D01*
X135375320Y-107298066D02*
X135423701Y-107322257D01*
X135423701Y-107322257D02*
X135447892Y-107346447D01*
X135447892Y-107346447D02*
X135472082Y-107394828D01*
X135472082Y-107394828D02*
X135472082Y-107588352D01*
X135205987Y-106862638D02*
X135205987Y-106959400D01*
X135205987Y-106959400D02*
X135230177Y-107007781D01*
X135230177Y-107007781D02*
X135254368Y-107031971D01*
X135254368Y-107031971D02*
X135326939Y-107080352D01*
X135326939Y-107080352D02*
X135423701Y-107104543D01*
X135423701Y-107104543D02*
X135617225Y-107104543D01*
X135617225Y-107104543D02*
X135665606Y-107080352D01*
X135665606Y-107080352D02*
X135689797Y-107056162D01*
X135689797Y-107056162D02*
X135713987Y-107007781D01*
X135713987Y-107007781D02*
X135713987Y-106911019D01*
X135713987Y-106911019D02*
X135689797Y-106862638D01*
X135689797Y-106862638D02*
X135665606Y-106838447D01*
X135665606Y-106838447D02*
X135617225Y-106814257D01*
X135617225Y-106814257D02*
X135496273Y-106814257D01*
X135496273Y-106814257D02*
X135447892Y-106838447D01*
X135447892Y-106838447D02*
X135423701Y-106862638D01*
X135423701Y-106862638D02*
X135399511Y-106911019D01*
X135399511Y-106911019D02*
X135399511Y-107007781D01*
X135399511Y-107007781D02*
X135423701Y-107056162D01*
X135423701Y-107056162D02*
X135447892Y-107080352D01*
X135447892Y-107080352D02*
X135496273Y-107104543D01*
X144934187Y-116833952D02*
X144426187Y-116833952D01*
X144426187Y-116833952D02*
X144426187Y-116713000D01*
X144426187Y-116713000D02*
X144450377Y-116640428D01*
X144450377Y-116640428D02*
X144498758Y-116592047D01*
X144498758Y-116592047D02*
X144547139Y-116567857D01*
X144547139Y-116567857D02*
X144643901Y-116543666D01*
X144643901Y-116543666D02*
X144716473Y-116543666D01*
X144716473Y-116543666D02*
X144813235Y-116567857D01*
X144813235Y-116567857D02*
X144861616Y-116592047D01*
X144861616Y-116592047D02*
X144909997Y-116640428D01*
X144909997Y-116640428D02*
X144934187Y-116713000D01*
X144934187Y-116713000D02*
X144934187Y-116833952D01*
X144934187Y-116059857D02*
X144934187Y-116350143D01*
X144934187Y-116205000D02*
X144426187Y-116205000D01*
X144426187Y-116205000D02*
X144498758Y-116253381D01*
X144498758Y-116253381D02*
X144547139Y-116301762D01*
X144547139Y-116301762D02*
X144571330Y-116350143D01*
X148937133Y-111713406D02*
X148912942Y-111737597D01*
X148912942Y-111737597D02*
X148840371Y-111761787D01*
X148840371Y-111761787D02*
X148791990Y-111761787D01*
X148791990Y-111761787D02*
X148719418Y-111737597D01*
X148719418Y-111737597D02*
X148671037Y-111689216D01*
X148671037Y-111689216D02*
X148646847Y-111640835D01*
X148646847Y-111640835D02*
X148622656Y-111544073D01*
X148622656Y-111544073D02*
X148622656Y-111471501D01*
X148622656Y-111471501D02*
X148646847Y-111374739D01*
X148646847Y-111374739D02*
X148671037Y-111326358D01*
X148671037Y-111326358D02*
X148719418Y-111277977D01*
X148719418Y-111277977D02*
X148791990Y-111253787D01*
X148791990Y-111253787D02*
X148840371Y-111253787D01*
X148840371Y-111253787D02*
X148912942Y-111277977D01*
X148912942Y-111277977D02*
X148937133Y-111302168D01*
X149420942Y-111761787D02*
X149130656Y-111761787D01*
X149275799Y-111761787D02*
X149275799Y-111253787D01*
X149275799Y-111253787D02*
X149227418Y-111326358D01*
X149227418Y-111326358D02*
X149179037Y-111374739D01*
X149179037Y-111374739D02*
X149130656Y-111398930D01*
X134992533Y-118647606D02*
X134968342Y-118671797D01*
X134968342Y-118671797D02*
X134895771Y-118695987D01*
X134895771Y-118695987D02*
X134847390Y-118695987D01*
X134847390Y-118695987D02*
X134774818Y-118671797D01*
X134774818Y-118671797D02*
X134726437Y-118623416D01*
X134726437Y-118623416D02*
X134702247Y-118575035D01*
X134702247Y-118575035D02*
X134678056Y-118478273D01*
X134678056Y-118478273D02*
X134678056Y-118405701D01*
X134678056Y-118405701D02*
X134702247Y-118308939D01*
X134702247Y-118308939D02*
X134726437Y-118260558D01*
X134726437Y-118260558D02*
X134774818Y-118212177D01*
X134774818Y-118212177D02*
X134847390Y-118187987D01*
X134847390Y-118187987D02*
X134895771Y-118187987D01*
X134895771Y-118187987D02*
X134968342Y-118212177D01*
X134968342Y-118212177D02*
X134992533Y-118236368D01*
X135282818Y-118405701D02*
X135234437Y-118381511D01*
X135234437Y-118381511D02*
X135210247Y-118357320D01*
X135210247Y-118357320D02*
X135186056Y-118308939D01*
X135186056Y-118308939D02*
X135186056Y-118284749D01*
X135186056Y-118284749D02*
X135210247Y-118236368D01*
X135210247Y-118236368D02*
X135234437Y-118212177D01*
X135234437Y-118212177D02*
X135282818Y-118187987D01*
X135282818Y-118187987D02*
X135379580Y-118187987D01*
X135379580Y-118187987D02*
X135427961Y-118212177D01*
X135427961Y-118212177D02*
X135452152Y-118236368D01*
X135452152Y-118236368D02*
X135476342Y-118284749D01*
X135476342Y-118284749D02*
X135476342Y-118308939D01*
X135476342Y-118308939D02*
X135452152Y-118357320D01*
X135452152Y-118357320D02*
X135427961Y-118381511D01*
X135427961Y-118381511D02*
X135379580Y-118405701D01*
X135379580Y-118405701D02*
X135282818Y-118405701D01*
X135282818Y-118405701D02*
X135234437Y-118429892D01*
X135234437Y-118429892D02*
X135210247Y-118454082D01*
X135210247Y-118454082D02*
X135186056Y-118502463D01*
X135186056Y-118502463D02*
X135186056Y-118599225D01*
X135186056Y-118599225D02*
X135210247Y-118647606D01*
X135210247Y-118647606D02*
X135234437Y-118671797D01*
X135234437Y-118671797D02*
X135282818Y-118695987D01*
X135282818Y-118695987D02*
X135379580Y-118695987D01*
X135379580Y-118695987D02*
X135427961Y-118671797D01*
X135427961Y-118671797D02*
X135452152Y-118647606D01*
X135452152Y-118647606D02*
X135476342Y-118599225D01*
X135476342Y-118599225D02*
X135476342Y-118502463D01*
X135476342Y-118502463D02*
X135452152Y-118454082D01*
X135452152Y-118454082D02*
X135427961Y-118429892D01*
X135427961Y-118429892D02*
X135379580Y-118405701D01*
X143793606Y-107907666D02*
X143817797Y-107931857D01*
X143817797Y-107931857D02*
X143841987Y-108004428D01*
X143841987Y-108004428D02*
X143841987Y-108052809D01*
X143841987Y-108052809D02*
X143817797Y-108125381D01*
X143817797Y-108125381D02*
X143769416Y-108173762D01*
X143769416Y-108173762D02*
X143721035Y-108197952D01*
X143721035Y-108197952D02*
X143624273Y-108222143D01*
X143624273Y-108222143D02*
X143551701Y-108222143D01*
X143551701Y-108222143D02*
X143454939Y-108197952D01*
X143454939Y-108197952D02*
X143406558Y-108173762D01*
X143406558Y-108173762D02*
X143358177Y-108125381D01*
X143358177Y-108125381D02*
X143333987Y-108052809D01*
X143333987Y-108052809D02*
X143333987Y-108004428D01*
X143333987Y-108004428D02*
X143358177Y-107931857D01*
X143358177Y-107931857D02*
X143382368Y-107907666D01*
X143333987Y-107472238D02*
X143333987Y-107569000D01*
X143333987Y-107569000D02*
X143358177Y-107617381D01*
X143358177Y-107617381D02*
X143382368Y-107641571D01*
X143382368Y-107641571D02*
X143454939Y-107689952D01*
X143454939Y-107689952D02*
X143551701Y-107714143D01*
X143551701Y-107714143D02*
X143745225Y-107714143D01*
X143745225Y-107714143D02*
X143793606Y-107689952D01*
X143793606Y-107689952D02*
X143817797Y-107665762D01*
X143817797Y-107665762D02*
X143841987Y-107617381D01*
X143841987Y-107617381D02*
X143841987Y-107520619D01*
X143841987Y-107520619D02*
X143817797Y-107472238D01*
X143817797Y-107472238D02*
X143793606Y-107448047D01*
X143793606Y-107448047D02*
X143745225Y-107423857D01*
X143745225Y-107423857D02*
X143624273Y-107423857D01*
X143624273Y-107423857D02*
X143575892Y-107448047D01*
X143575892Y-107448047D02*
X143551701Y-107472238D01*
X143551701Y-107472238D02*
X143527511Y-107520619D01*
X143527511Y-107520619D02*
X143527511Y-107617381D01*
X143527511Y-107617381D02*
X143551701Y-107665762D01*
X143551701Y-107665762D02*
X143575892Y-107689952D01*
X143575892Y-107689952D02*
X143624273Y-107714143D01*
X142409333Y-118822987D02*
X142239999Y-118581082D01*
X142119047Y-118822987D02*
X142119047Y-118314987D01*
X142119047Y-118314987D02*
X142312571Y-118314987D01*
X142312571Y-118314987D02*
X142360952Y-118339177D01*
X142360952Y-118339177D02*
X142385142Y-118363368D01*
X142385142Y-118363368D02*
X142409333Y-118411749D01*
X142409333Y-118411749D02*
X142409333Y-118484320D01*
X142409333Y-118484320D02*
X142385142Y-118532701D01*
X142385142Y-118532701D02*
X142360952Y-118556892D01*
X142360952Y-118556892D02*
X142312571Y-118581082D01*
X142312571Y-118581082D02*
X142119047Y-118581082D01*
X142602856Y-118363368D02*
X142627047Y-118339177D01*
X142627047Y-118339177D02*
X142675428Y-118314987D01*
X142675428Y-118314987D02*
X142796380Y-118314987D01*
X142796380Y-118314987D02*
X142844761Y-118339177D01*
X142844761Y-118339177D02*
X142868952Y-118363368D01*
X142868952Y-118363368D02*
X142893142Y-118411749D01*
X142893142Y-118411749D02*
X142893142Y-118460130D01*
X142893142Y-118460130D02*
X142868952Y-118532701D01*
X142868952Y-118532701D02*
X142578666Y-118822987D01*
X142578666Y-118822987D02*
X142893142Y-118822987D01*
X144342152Y-109374187D02*
X144342152Y-109785425D01*
X144342152Y-109785425D02*
X144366342Y-109833806D01*
X144366342Y-109833806D02*
X144390533Y-109857997D01*
X144390533Y-109857997D02*
X144438914Y-109882187D01*
X144438914Y-109882187D02*
X144535676Y-109882187D01*
X144535676Y-109882187D02*
X144584057Y-109857997D01*
X144584057Y-109857997D02*
X144608247Y-109833806D01*
X144608247Y-109833806D02*
X144632438Y-109785425D01*
X144632438Y-109785425D02*
X144632438Y-109374187D01*
X144850151Y-109422568D02*
X144874342Y-109398377D01*
X144874342Y-109398377D02*
X144922723Y-109374187D01*
X144922723Y-109374187D02*
X145043675Y-109374187D01*
X145043675Y-109374187D02*
X145092056Y-109398377D01*
X145092056Y-109398377D02*
X145116247Y-109422568D01*
X145116247Y-109422568D02*
X145140437Y-109470949D01*
X145140437Y-109470949D02*
X145140437Y-109519330D01*
X145140437Y-109519330D02*
X145116247Y-109591901D01*
X145116247Y-109591901D02*
X144825961Y-109882187D01*
X144825961Y-109882187D02*
X145140437Y-109882187D01*
X139386733Y-118822987D02*
X139217399Y-118581082D01*
X139096447Y-118822987D02*
X139096447Y-118314987D01*
X139096447Y-118314987D02*
X139289971Y-118314987D01*
X139289971Y-118314987D02*
X139338352Y-118339177D01*
X139338352Y-118339177D02*
X139362542Y-118363368D01*
X139362542Y-118363368D02*
X139386733Y-118411749D01*
X139386733Y-118411749D02*
X139386733Y-118484320D01*
X139386733Y-118484320D02*
X139362542Y-118532701D01*
X139362542Y-118532701D02*
X139338352Y-118556892D01*
X139338352Y-118556892D02*
X139289971Y-118581082D01*
X139289971Y-118581082D02*
X139096447Y-118581082D01*
X139870542Y-118822987D02*
X139580256Y-118822987D01*
X139725399Y-118822987D02*
X139725399Y-118314987D01*
X139725399Y-118314987D02*
X139677018Y-118387558D01*
X139677018Y-118387558D02*
X139628637Y-118435939D01*
X139628637Y-118435939D02*
X139580256Y-118460130D01*
X132833533Y-107725606D02*
X132809342Y-107749797D01*
X132809342Y-107749797D02*
X132736771Y-107773987D01*
X132736771Y-107773987D02*
X132688390Y-107773987D01*
X132688390Y-107773987D02*
X132615818Y-107749797D01*
X132615818Y-107749797D02*
X132567437Y-107701416D01*
X132567437Y-107701416D02*
X132543247Y-107653035D01*
X132543247Y-107653035D02*
X132519056Y-107556273D01*
X132519056Y-107556273D02*
X132519056Y-107483701D01*
X132519056Y-107483701D02*
X132543247Y-107386939D01*
X132543247Y-107386939D02*
X132567437Y-107338558D01*
X132567437Y-107338558D02*
X132615818Y-107290177D01*
X132615818Y-107290177D02*
X132688390Y-107265987D01*
X132688390Y-107265987D02*
X132736771Y-107265987D01*
X132736771Y-107265987D02*
X132809342Y-107290177D01*
X132809342Y-107290177D02*
X132833533Y-107314368D01*
X133002866Y-107265987D02*
X133341533Y-107265987D01*
X133341533Y-107265987D02*
X133123818Y-107773987D01*
X150105533Y-92457787D02*
X149936199Y-92215882D01*
X149815247Y-92457787D02*
X149815247Y-91949787D01*
X149815247Y-91949787D02*
X150008771Y-91949787D01*
X150008771Y-91949787D02*
X150057152Y-91973977D01*
X150057152Y-91973977D02*
X150081342Y-91998168D01*
X150081342Y-91998168D02*
X150105533Y-92046549D01*
X150105533Y-92046549D02*
X150105533Y-92119120D01*
X150105533Y-92119120D02*
X150081342Y-92167501D01*
X150081342Y-92167501D02*
X150057152Y-92191692D01*
X150057152Y-92191692D02*
X150008771Y-92215882D01*
X150008771Y-92215882D02*
X149815247Y-92215882D01*
X150274866Y-91949787D02*
X150589342Y-91949787D01*
X150589342Y-91949787D02*
X150420009Y-92143311D01*
X150420009Y-92143311D02*
X150492580Y-92143311D01*
X150492580Y-92143311D02*
X150540961Y-92167501D01*
X150540961Y-92167501D02*
X150565152Y-92191692D01*
X150565152Y-92191692D02*
X150589342Y-92240073D01*
X150589342Y-92240073D02*
X150589342Y-92361025D01*
X150589342Y-92361025D02*
X150565152Y-92409406D01*
X150565152Y-92409406D02*
X150540961Y-92433597D01*
X150540961Y-92433597D02*
X150492580Y-92457787D01*
X150492580Y-92457787D02*
X150347437Y-92457787D01*
X150347437Y-92457787D02*
X150299056Y-92433597D01*
X150299056Y-92433597D02*
X150274866Y-92409406D01*
X151312006Y-108085466D02*
X151336197Y-108109657D01*
X151336197Y-108109657D02*
X151360387Y-108182228D01*
X151360387Y-108182228D02*
X151360387Y-108230609D01*
X151360387Y-108230609D02*
X151336197Y-108303181D01*
X151336197Y-108303181D02*
X151287816Y-108351562D01*
X151287816Y-108351562D02*
X151239435Y-108375752D01*
X151239435Y-108375752D02*
X151142673Y-108399943D01*
X151142673Y-108399943D02*
X151070101Y-108399943D01*
X151070101Y-108399943D02*
X150973339Y-108375752D01*
X150973339Y-108375752D02*
X150924958Y-108351562D01*
X150924958Y-108351562D02*
X150876577Y-108303181D01*
X150876577Y-108303181D02*
X150852387Y-108230609D01*
X150852387Y-108230609D02*
X150852387Y-108182228D01*
X150852387Y-108182228D02*
X150876577Y-108109657D01*
X150876577Y-108109657D02*
X150900768Y-108085466D01*
X150852387Y-107625847D02*
X150852387Y-107867752D01*
X150852387Y-107867752D02*
X151094292Y-107891943D01*
X151094292Y-107891943D02*
X151070101Y-107867752D01*
X151070101Y-107867752D02*
X151045911Y-107819371D01*
X151045911Y-107819371D02*
X151045911Y-107698419D01*
X151045911Y-107698419D02*
X151070101Y-107650038D01*
X151070101Y-107650038D02*
X151094292Y-107625847D01*
X151094292Y-107625847D02*
X151142673Y-107601657D01*
X151142673Y-107601657D02*
X151263625Y-107601657D01*
X151263625Y-107601657D02*
X151312006Y-107625847D01*
X151312006Y-107625847D02*
X151336197Y-107650038D01*
X151336197Y-107650038D02*
X151360387Y-107698419D01*
X151360387Y-107698419D02*
X151360387Y-107819371D01*
X151360387Y-107819371D02*
X151336197Y-107867752D01*
X151336197Y-107867752D02*
X151312006Y-107891943D01*
X146109266Y-118568987D02*
X146109266Y-118931844D01*
X146109266Y-118931844D02*
X146085075Y-119004416D01*
X146085075Y-119004416D02*
X146036694Y-119052797D01*
X146036694Y-119052797D02*
X145964123Y-119076987D01*
X145964123Y-119076987D02*
X145915742Y-119076987D01*
X146617266Y-119076987D02*
X146326980Y-119076987D01*
X146472123Y-119076987D02*
X146472123Y-118568987D01*
X146472123Y-118568987D02*
X146423742Y-118641558D01*
X146423742Y-118641558D02*
X146375361Y-118689939D01*
X146375361Y-118689939D02*
X146326980Y-118714130D01*
X150257933Y-88393787D02*
X150088599Y-88151882D01*
X149967647Y-88393787D02*
X149967647Y-87885787D01*
X149967647Y-87885787D02*
X150161171Y-87885787D01*
X150161171Y-87885787D02*
X150209552Y-87909977D01*
X150209552Y-87909977D02*
X150233742Y-87934168D01*
X150233742Y-87934168D02*
X150257933Y-87982549D01*
X150257933Y-87982549D02*
X150257933Y-88055120D01*
X150257933Y-88055120D02*
X150233742Y-88103501D01*
X150233742Y-88103501D02*
X150209552Y-88127692D01*
X150209552Y-88127692D02*
X150161171Y-88151882D01*
X150161171Y-88151882D02*
X149967647Y-88151882D01*
X150693361Y-88055120D02*
X150693361Y-88393787D01*
X150572409Y-87861597D02*
X150451456Y-88224454D01*
X150451456Y-88224454D02*
X150765933Y-88224454D01*
X132310387Y-117023847D02*
X132721625Y-117023847D01*
X132721625Y-117023847D02*
X132770006Y-116999657D01*
X132770006Y-116999657D02*
X132794197Y-116975466D01*
X132794197Y-116975466D02*
X132818387Y-116927085D01*
X132818387Y-116927085D02*
X132818387Y-116830323D01*
X132818387Y-116830323D02*
X132794197Y-116781942D01*
X132794197Y-116781942D02*
X132770006Y-116757752D01*
X132770006Y-116757752D02*
X132721625Y-116733561D01*
X132721625Y-116733561D02*
X132310387Y-116733561D01*
X132479720Y-116273943D02*
X132818387Y-116273943D01*
X132286197Y-116394895D02*
X132649054Y-116515848D01*
X132649054Y-116515848D02*
X132649054Y-116201371D01*
X143232387Y-110473066D02*
X142990482Y-110642400D01*
X143232387Y-110763352D02*
X142724387Y-110763352D01*
X142724387Y-110763352D02*
X142724387Y-110569828D01*
X142724387Y-110569828D02*
X142748577Y-110521447D01*
X142748577Y-110521447D02*
X142772768Y-110497257D01*
X142772768Y-110497257D02*
X142821149Y-110473066D01*
X142821149Y-110473066D02*
X142893720Y-110473066D01*
X142893720Y-110473066D02*
X142942101Y-110497257D01*
X142942101Y-110497257D02*
X142966292Y-110521447D01*
X142966292Y-110521447D02*
X142990482Y-110569828D01*
X142990482Y-110569828D02*
X142990482Y-110763352D01*
X142942101Y-110182781D02*
X142917911Y-110231162D01*
X142917911Y-110231162D02*
X142893720Y-110255352D01*
X142893720Y-110255352D02*
X142845339Y-110279543D01*
X142845339Y-110279543D02*
X142821149Y-110279543D01*
X142821149Y-110279543D02*
X142772768Y-110255352D01*
X142772768Y-110255352D02*
X142748577Y-110231162D01*
X142748577Y-110231162D02*
X142724387Y-110182781D01*
X142724387Y-110182781D02*
X142724387Y-110086019D01*
X142724387Y-110086019D02*
X142748577Y-110037638D01*
X142748577Y-110037638D02*
X142772768Y-110013447D01*
X142772768Y-110013447D02*
X142821149Y-109989257D01*
X142821149Y-109989257D02*
X142845339Y-109989257D01*
X142845339Y-109989257D02*
X142893720Y-110013447D01*
X142893720Y-110013447D02*
X142917911Y-110037638D01*
X142917911Y-110037638D02*
X142942101Y-110086019D01*
X142942101Y-110086019D02*
X142942101Y-110182781D01*
X142942101Y-110182781D02*
X142966292Y-110231162D01*
X142966292Y-110231162D02*
X142990482Y-110255352D01*
X142990482Y-110255352D02*
X143038863Y-110279543D01*
X143038863Y-110279543D02*
X143135625Y-110279543D01*
X143135625Y-110279543D02*
X143184006Y-110255352D01*
X143184006Y-110255352D02*
X143208197Y-110231162D01*
X143208197Y-110231162D02*
X143232387Y-110182781D01*
X143232387Y-110182781D02*
X143232387Y-110086019D01*
X143232387Y-110086019D02*
X143208197Y-110037638D01*
X143208197Y-110037638D02*
X143184006Y-110013447D01*
X143184006Y-110013447D02*
X143135625Y-109989257D01*
X143135625Y-109989257D02*
X143038863Y-109989257D01*
X143038863Y-109989257D02*
X142990482Y-110013447D01*
X142990482Y-110013447D02*
X142966292Y-110037638D01*
X142966292Y-110037638D02*
X142942101Y-110086019D01*
X151334987Y-102688571D02*
X151093082Y-102857905D01*
X151334987Y-102978857D02*
X150826987Y-102978857D01*
X150826987Y-102978857D02*
X150826987Y-102785333D01*
X150826987Y-102785333D02*
X150851177Y-102736952D01*
X150851177Y-102736952D02*
X150875368Y-102712762D01*
X150875368Y-102712762D02*
X150923749Y-102688571D01*
X150923749Y-102688571D02*
X150996320Y-102688571D01*
X150996320Y-102688571D02*
X151044701Y-102712762D01*
X151044701Y-102712762D02*
X151068892Y-102736952D01*
X151068892Y-102736952D02*
X151093082Y-102785333D01*
X151093082Y-102785333D02*
X151093082Y-102978857D01*
X151334987Y-102204762D02*
X151334987Y-102495048D01*
X151334987Y-102349905D02*
X150826987Y-102349905D01*
X150826987Y-102349905D02*
X150899558Y-102398286D01*
X150899558Y-102398286D02*
X150947939Y-102446667D01*
X150947939Y-102446667D02*
X150972130Y-102495048D01*
X150875368Y-102011238D02*
X150851177Y-101987047D01*
X150851177Y-101987047D02*
X150826987Y-101938666D01*
X150826987Y-101938666D02*
X150826987Y-101817714D01*
X150826987Y-101817714D02*
X150851177Y-101769333D01*
X150851177Y-101769333D02*
X150875368Y-101745142D01*
X150875368Y-101745142D02*
X150923749Y-101720952D01*
X150923749Y-101720952D02*
X150972130Y-101720952D01*
X150972130Y-101720952D02*
X151044701Y-101745142D01*
X151044701Y-101745142D02*
X151334987Y-102035428D01*
X151334987Y-102035428D02*
X151334987Y-101720952D01*
X128604406Y-104224666D02*
X128628597Y-104248857D01*
X128628597Y-104248857D02*
X128652787Y-104321428D01*
X128652787Y-104321428D02*
X128652787Y-104369809D01*
X128652787Y-104369809D02*
X128628597Y-104442381D01*
X128628597Y-104442381D02*
X128580216Y-104490762D01*
X128580216Y-104490762D02*
X128531835Y-104514952D01*
X128531835Y-104514952D02*
X128435073Y-104539143D01*
X128435073Y-104539143D02*
X128362501Y-104539143D01*
X128362501Y-104539143D02*
X128265739Y-104514952D01*
X128265739Y-104514952D02*
X128217358Y-104490762D01*
X128217358Y-104490762D02*
X128168977Y-104442381D01*
X128168977Y-104442381D02*
X128144787Y-104369809D01*
X128144787Y-104369809D02*
X128144787Y-104321428D01*
X128144787Y-104321428D02*
X128168977Y-104248857D01*
X128168977Y-104248857D02*
X128193168Y-104224666D01*
X128193168Y-104031143D02*
X128168977Y-104006952D01*
X128168977Y-104006952D02*
X128144787Y-103958571D01*
X128144787Y-103958571D02*
X128144787Y-103837619D01*
X128144787Y-103837619D02*
X128168977Y-103789238D01*
X128168977Y-103789238D02*
X128193168Y-103765047D01*
X128193168Y-103765047D02*
X128241549Y-103740857D01*
X128241549Y-103740857D02*
X128289930Y-103740857D01*
X128289930Y-103740857D02*
X128362501Y-103765047D01*
X128362501Y-103765047D02*
X128652787Y-104055333D01*
X128652787Y-104055333D02*
X128652787Y-103740857D01*
X148897797Y-118888933D02*
X148921987Y-118816361D01*
X148921987Y-118816361D02*
X148921987Y-118695409D01*
X148921987Y-118695409D02*
X148897797Y-118647028D01*
X148897797Y-118647028D02*
X148873606Y-118622837D01*
X148873606Y-118622837D02*
X148825225Y-118598647D01*
X148825225Y-118598647D02*
X148776844Y-118598647D01*
X148776844Y-118598647D02*
X148728463Y-118622837D01*
X148728463Y-118622837D02*
X148704273Y-118647028D01*
X148704273Y-118647028D02*
X148680082Y-118695409D01*
X148680082Y-118695409D02*
X148655892Y-118792171D01*
X148655892Y-118792171D02*
X148631701Y-118840552D01*
X148631701Y-118840552D02*
X148607511Y-118864742D01*
X148607511Y-118864742D02*
X148559130Y-118888933D01*
X148559130Y-118888933D02*
X148510749Y-118888933D01*
X148510749Y-118888933D02*
X148462368Y-118864742D01*
X148462368Y-118864742D02*
X148438177Y-118840552D01*
X148438177Y-118840552D02*
X148413987Y-118792171D01*
X148413987Y-118792171D02*
X148413987Y-118671218D01*
X148413987Y-118671218D02*
X148438177Y-118598647D01*
X148413987Y-118429313D02*
X148921987Y-118308361D01*
X148921987Y-118308361D02*
X148559130Y-118211599D01*
X148559130Y-118211599D02*
X148921987Y-118114837D01*
X148921987Y-118114837D02*
X148413987Y-117993885D01*
X148921987Y-117534266D02*
X148921987Y-117824552D01*
X148921987Y-117679409D02*
X148413987Y-117679409D01*
X148413987Y-117679409D02*
X148486558Y-117727790D01*
X148486558Y-117727790D02*
X148534939Y-117776171D01*
X148534939Y-117776171D02*
X148559130Y-117824552D01*
X149978533Y-109729787D02*
X149809199Y-109487882D01*
X149688247Y-109729787D02*
X149688247Y-109221787D01*
X149688247Y-109221787D02*
X149881771Y-109221787D01*
X149881771Y-109221787D02*
X149930152Y-109245977D01*
X149930152Y-109245977D02*
X149954342Y-109270168D01*
X149954342Y-109270168D02*
X149978533Y-109318549D01*
X149978533Y-109318549D02*
X149978533Y-109391120D01*
X149978533Y-109391120D02*
X149954342Y-109439501D01*
X149954342Y-109439501D02*
X149930152Y-109463692D01*
X149930152Y-109463692D02*
X149881771Y-109487882D01*
X149881771Y-109487882D02*
X149688247Y-109487882D01*
X150147866Y-109221787D02*
X150486533Y-109221787D01*
X150486533Y-109221787D02*
X150268818Y-109729787D01*
X147669552Y-105462587D02*
X147669552Y-105873825D01*
X147669552Y-105873825D02*
X147693742Y-105922206D01*
X147693742Y-105922206D02*
X147717933Y-105946397D01*
X147717933Y-105946397D02*
X147766314Y-105970587D01*
X147766314Y-105970587D02*
X147863076Y-105970587D01*
X147863076Y-105970587D02*
X147911457Y-105946397D01*
X147911457Y-105946397D02*
X147935647Y-105922206D01*
X147935647Y-105922206D02*
X147959838Y-105873825D01*
X147959838Y-105873825D02*
X147959838Y-105462587D01*
X148443647Y-105462587D02*
X148201742Y-105462587D01*
X148201742Y-105462587D02*
X148177551Y-105704492D01*
X148177551Y-105704492D02*
X148201742Y-105680301D01*
X148201742Y-105680301D02*
X148250123Y-105656111D01*
X148250123Y-105656111D02*
X148371075Y-105656111D01*
X148371075Y-105656111D02*
X148419456Y-105680301D01*
X148419456Y-105680301D02*
X148443647Y-105704492D01*
X148443647Y-105704492D02*
X148467837Y-105752873D01*
X148467837Y-105752873D02*
X148467837Y-105873825D01*
X148467837Y-105873825D02*
X148443647Y-105922206D01*
X148443647Y-105922206D02*
X148419456Y-105946397D01*
X148419456Y-105946397D02*
X148371075Y-105970587D01*
X148371075Y-105970587D02*
X148250123Y-105970587D01*
X148250123Y-105970587D02*
X148201742Y-105946397D01*
X148201742Y-105946397D02*
X148177551Y-105922206D01*
X133861628Y-77954387D02*
X133692294Y-77712482D01*
X133571342Y-77954387D02*
X133571342Y-77446387D01*
X133571342Y-77446387D02*
X133764866Y-77446387D01*
X133764866Y-77446387D02*
X133813247Y-77470577D01*
X133813247Y-77470577D02*
X133837437Y-77494768D01*
X133837437Y-77494768D02*
X133861628Y-77543149D01*
X133861628Y-77543149D02*
X133861628Y-77615720D01*
X133861628Y-77615720D02*
X133837437Y-77664101D01*
X133837437Y-77664101D02*
X133813247Y-77688292D01*
X133813247Y-77688292D02*
X133764866Y-77712482D01*
X133764866Y-77712482D02*
X133571342Y-77712482D01*
X134345437Y-77954387D02*
X134055151Y-77954387D01*
X134200294Y-77954387D02*
X134200294Y-77446387D01*
X134200294Y-77446387D02*
X134151913Y-77518958D01*
X134151913Y-77518958D02*
X134103532Y-77567339D01*
X134103532Y-77567339D02*
X134055151Y-77591530D01*
X134659914Y-77446387D02*
X134708295Y-77446387D01*
X134708295Y-77446387D02*
X134756676Y-77470577D01*
X134756676Y-77470577D02*
X134780866Y-77494768D01*
X134780866Y-77494768D02*
X134805057Y-77543149D01*
X134805057Y-77543149D02*
X134829247Y-77639911D01*
X134829247Y-77639911D02*
X134829247Y-77760863D01*
X134829247Y-77760863D02*
X134805057Y-77857625D01*
X134805057Y-77857625D02*
X134780866Y-77906006D01*
X134780866Y-77906006D02*
X134756676Y-77930197D01*
X134756676Y-77930197D02*
X134708295Y-77954387D01*
X134708295Y-77954387D02*
X134659914Y-77954387D01*
X134659914Y-77954387D02*
X134611533Y-77930197D01*
X134611533Y-77930197D02*
X134587342Y-77906006D01*
X134587342Y-77906006D02*
X134563152Y-77857625D01*
X134563152Y-77857625D02*
X134538961Y-77760863D01*
X134538961Y-77760863D02*
X134538961Y-77639911D01*
X134538961Y-77639911D02*
X134563152Y-77543149D01*
X134563152Y-77543149D02*
X134587342Y-77494768D01*
X134587342Y-77494768D02*
X134611533Y-77470577D01*
X134611533Y-77470577D02*
X134659914Y-77446387D01*
X128259692Y-119017143D02*
X128283882Y-118944571D01*
X128283882Y-118944571D02*
X128308073Y-118920381D01*
X128308073Y-118920381D02*
X128356454Y-118896190D01*
X128356454Y-118896190D02*
X128429025Y-118896190D01*
X128429025Y-118896190D02*
X128477406Y-118920381D01*
X128477406Y-118920381D02*
X128501597Y-118944571D01*
X128501597Y-118944571D02*
X128525787Y-118992952D01*
X128525787Y-118992952D02*
X128525787Y-119186476D01*
X128525787Y-119186476D02*
X128017787Y-119186476D01*
X128017787Y-119186476D02*
X128017787Y-119017143D01*
X128017787Y-119017143D02*
X128041977Y-118968762D01*
X128041977Y-118968762D02*
X128066168Y-118944571D01*
X128066168Y-118944571D02*
X128114549Y-118920381D01*
X128114549Y-118920381D02*
X128162930Y-118920381D01*
X128162930Y-118920381D02*
X128211311Y-118944571D01*
X128211311Y-118944571D02*
X128235501Y-118968762D01*
X128235501Y-118968762D02*
X128259692Y-119017143D01*
X128259692Y-119017143D02*
X128259692Y-119186476D01*
X128017787Y-118751048D02*
X128017787Y-118460762D01*
X128525787Y-118605905D02*
X128017787Y-118605905D01*
X128525787Y-118025333D02*
X128525787Y-118315619D01*
X128525787Y-118170476D02*
X128017787Y-118170476D01*
X128017787Y-118170476D02*
X128090358Y-118218857D01*
X128090358Y-118218857D02*
X128138739Y-118267238D01*
X128138739Y-118267238D02*
X128162930Y-118315619D01*
D14*
%TO.C,R9*%
X142764742Y-77201500D02*
X143239258Y-77201500D01*
X142764742Y-78246500D02*
X143239258Y-78246500D01*
%TO.C,C3*%
X142861420Y-78992000D02*
X143142580Y-78992000D01*
X142861420Y-80012000D02*
X143142580Y-80012000D01*
%TO.C,Q2*%
X129921000Y-111952600D02*
X129271000Y-111952600D01*
X129921000Y-111952600D02*
X130571000Y-111952600D01*
X129921000Y-115072600D02*
X129271000Y-115072600D01*
X129921000Y-115072600D02*
X130571000Y-115072600D01*
X128758500Y-112002600D02*
X128518500Y-111672600D01*
X128998500Y-111672600D01*
X128758500Y-112002600D01*
G36*
X128758500Y-112002600D02*
G01*
X128518500Y-111672600D01*
X128998500Y-111672600D01*
X128758500Y-112002600D01*
G37*
%TO.C,R13*%
X129017500Y-94217258D02*
X129017500Y-93742742D01*
X130062500Y-94217258D02*
X130062500Y-93742742D01*
%TO.C,U3*%
X131580000Y-80590000D02*
X147820000Y-80590000D01*
X131580000Y-88210000D02*
X131580000Y-80590000D01*
X131580000Y-104830000D02*
X131580000Y-104210000D01*
X133700000Y-104830000D02*
X131580000Y-104830000D01*
X147820000Y-80590000D02*
X147820000Y-88210000D01*
X147820000Y-104210000D02*
X147820000Y-104830000D01*
X147820000Y-104830000D02*
X145700000Y-104830000D01*
X131150000Y-88210000D02*
X130910000Y-87874000D01*
X131390000Y-87874000D01*
X131150000Y-88210000D01*
G36*
X131150000Y-88210000D02*
G01*
X130910000Y-87874000D01*
X131390000Y-87874000D01*
X131150000Y-88210000D01*
G37*
%TO.C,R5*%
X137653500Y-107933258D02*
X137653500Y-107458742D01*
X138698500Y-107933258D02*
X138698500Y-107458742D01*
%TO.C,U1*%
X138700000Y-76922000D02*
X140700000Y-76922000D01*
X138700000Y-79542000D02*
X140700000Y-79542000D01*
X138470000Y-77222000D02*
X138190000Y-77222000D01*
X138470000Y-76942000D01*
X138470000Y-77222000D01*
G36*
X138470000Y-77222000D02*
G01*
X138190000Y-77222000D01*
X138470000Y-76942000D01*
X138470000Y-77222000D01*
G37*
%TO.C,R11*%
X136635258Y-78979500D02*
X136160742Y-78979500D01*
X136635258Y-80024500D02*
X136160742Y-80024500D01*
%TO.C,C4*%
X145286000Y-114667420D02*
X145286000Y-114948580D01*
X146306000Y-114667420D02*
X146306000Y-114948580D01*
%TO.C,Q1*%
X129921000Y-108396600D02*
X129271000Y-108396600D01*
X129921000Y-108396600D02*
X130571000Y-108396600D01*
X129921000Y-111516600D02*
X129271000Y-111516600D01*
X129921000Y-111516600D02*
X130571000Y-111516600D01*
X128758500Y-108446600D02*
X128518500Y-108116600D01*
X128998500Y-108116600D01*
X128758500Y-108446600D01*
G36*
X128758500Y-108446600D02*
G01*
X128518500Y-108116600D01*
X128998500Y-108116600D01*
X128758500Y-108446600D01*
G37*
%TO.C,R6*%
X135875500Y-107933258D02*
X135875500Y-107458742D01*
X136920500Y-107933258D02*
X136920500Y-107458742D01*
%TO.C,D1*%
X143181400Y-112970200D02*
X143181400Y-115430200D01*
X144651400Y-112970200D02*
X143181400Y-112970200D01*
X144651400Y-115430200D02*
X144651400Y-112970200D01*
%TO.C,C1*%
X150557620Y-111707200D02*
X150838780Y-111707200D01*
X150557620Y-112727200D02*
X150838780Y-112727200D01*
%TO.C,C8*%
X136284580Y-117092000D02*
X136003420Y-117092000D01*
X136284580Y-118112000D02*
X136003420Y-118112000D01*
%TO.C,C6*%
X144219200Y-107963580D02*
X144219200Y-107682420D01*
X145239200Y-107963580D02*
X145239200Y-107682420D01*
%TO.C,R2*%
X142256742Y-117079500D02*
X142731258Y-117079500D01*
X142256742Y-118124500D02*
X142731258Y-118124500D01*
%TO.C,U2*%
X146913600Y-109728700D02*
X146113600Y-109728700D01*
X146913600Y-109728700D02*
X147713600Y-109728700D01*
X146913600Y-112848700D02*
X146113600Y-112848700D01*
X146913600Y-112848700D02*
X147713600Y-112848700D01*
X145613600Y-109778700D02*
X145373600Y-109448700D01*
X145853600Y-109448700D01*
X145613600Y-109778700D01*
G36*
X145613600Y-109778700D02*
G01*
X145373600Y-109448700D01*
X145853600Y-109448700D01*
X145613600Y-109778700D01*
G37*
%TO.C,R1*%
X139208742Y-117079500D02*
X139683258Y-117079500D01*
X139208742Y-118124500D02*
X139683258Y-118124500D01*
%TO.C,C7*%
X133717420Y-107948000D02*
X133998580Y-107948000D01*
X133717420Y-108968000D02*
X133998580Y-108968000D01*
%TO.C,R3*%
X150605258Y-90663500D02*
X150130742Y-90663500D01*
X150605258Y-91708500D02*
X150130742Y-91708500D01*
%TO.C,C5*%
X150569200Y-106134780D02*
X150569200Y-105853620D01*
X151589200Y-106134780D02*
X151589200Y-105853620D01*
%TO.C,J1*%
X135120000Y-122882000D02*
X135120000Y-121472000D01*
X135940000Y-118802000D02*
X135940000Y-118952000D01*
X136740000Y-118802000D02*
X135940000Y-118802000D01*
X144280000Y-122882000D02*
X144280000Y-121472000D01*
%TO.C,R4*%
X150605258Y-88631500D02*
X150130742Y-88631500D01*
X150605258Y-89676500D02*
X150130742Y-89676500D01*
%TO.C,U4*%
X132616800Y-113030000D02*
X132616800Y-111080000D01*
X132616800Y-113030000D02*
X132616800Y-114980000D01*
X142736800Y-113030000D02*
X142736800Y-111080000D01*
X142736800Y-113030000D02*
X142736800Y-114980000D01*
X132671800Y-115730000D02*
X132341800Y-115970000D01*
X132341800Y-115490000D01*
X132671800Y-115730000D01*
G36*
X132671800Y-115730000D02*
G01*
X132341800Y-115970000D01*
X132341800Y-115490000D01*
X132671800Y-115730000D01*
G37*
%TO.C,R8*%
X143393900Y-111565458D02*
X143393900Y-111090942D01*
X144438900Y-111565458D02*
X144438900Y-111090942D01*
%TO.C,R12*%
X149337500Y-102124742D02*
X149337500Y-102599258D01*
X150382500Y-102124742D02*
X150382500Y-102599258D01*
%TO.C,C2*%
X129030000Y-103999420D02*
X129030000Y-104280580D01*
X130050000Y-103999420D02*
X130050000Y-104280580D01*
%TO.C,SW1*%
X149248000Y-116202000D02*
X149248000Y-116002000D01*
X149248000Y-119202000D02*
X149248000Y-117502000D01*
X150298000Y-121052000D02*
X151088000Y-121052000D01*
X151088000Y-114152000D02*
X150298000Y-114152000D01*
X152098000Y-119002000D02*
X153388000Y-119002000D01*
X152098000Y-120452000D02*
X152098000Y-114752000D01*
X153388000Y-117702000D02*
X152098000Y-117702000D01*
X153388000Y-117702000D02*
X153598000Y-117902000D01*
X153388000Y-119002000D02*
X153598000Y-118802000D01*
X153598000Y-118802000D02*
X153598000Y-117902000D01*
%TO.C,R7*%
X150910058Y-109891300D02*
X150435542Y-109891300D01*
X150910058Y-110936300D02*
X150435542Y-110936300D01*
%TO.C,U5*%
X148056600Y-106186800D02*
X147256600Y-106186800D01*
X148056600Y-106186800D02*
X148856600Y-106186800D01*
X148056600Y-109306800D02*
X147256600Y-109306800D01*
X148056600Y-109306800D02*
X148856600Y-109306800D01*
X146756600Y-106236800D02*
X146516600Y-105906800D01*
X146996600Y-105906800D01*
X146756600Y-106236800D01*
G36*
X146756600Y-106236800D02*
G01*
X146516600Y-105906800D01*
X146996600Y-105906800D01*
X146756600Y-106236800D01*
G37*
%TO.C,R10*%
X136635258Y-77201500D02*
X136160742Y-77201500D01*
X136635258Y-78246500D02*
X136160742Y-78246500D01*
%TO.C,BT1*%
X128718000Y-116023000D02*
X131378000Y-116023000D01*
X128718000Y-118623000D02*
X128718000Y-116023000D01*
X128718000Y-121223000D02*
X128718000Y-119893000D01*
X130048000Y-121223000D02*
X128718000Y-121223000D01*
X131318000Y-118623000D02*
X128718000Y-118623000D01*
X131318000Y-121223000D02*
X131318000Y-118623000D01*
X131318000Y-121223000D02*
X131378000Y-121223000D01*
X131378000Y-121223000D02*
X131378000Y-116023000D01*
%TD*%
M02*
