%TF.GenerationSoftware,KiCad,Pcbnew,8.0.8*%
%TF.CreationDate,2025-01-23T20:15:16-05:00*%
%TF.ProjectId,compact_sqm,636f6d70-6163-4745-9f73-716d2e6b6963,rev?*%
%TF.SameCoordinates,Original*%
%TF.FileFunction,Copper,L1,Top*%
%TF.FilePolarity,Positive*%
%FSLAX46Y46*%
G04 Gerber Fmt 4.6, Leading zero omitted, Abs format (unit mm)*
G04 Created by KiCad (PCBNEW 8.0.8) date 2025-01-23 20:15:16*
%MOMM*%
%LPD*%
G01*
G04 APERTURE LIST*
G04 Aperture macros list*
%AMRoundRect*
0 Rectangle with rounded corners*
0 $1 Rounding radius*
0 $2 $3 $4 $5 $6 $7 $8 $9 X,Y pos of 4 corners*
0 Add a 4 corners polygon primitive as box body*
4,1,4,$2,$3,$4,$5,$6,$7,$8,$9,$2,$3,0*
0 Add four circle primitives for the rounded corners*
1,1,$1+$1,$2,$3*
1,1,$1+$1,$4,$5*
1,1,$1+$1,$6,$7*
1,1,$1+$1,$8,$9*
0 Add four rect primitives between the rounded corners*
20,1,$1+$1,$2,$3,$4,$5,0*
20,1,$1+$1,$4,$5,$6,$7,0*
20,1,$1+$1,$6,$7,$8,$9,0*
20,1,$1+$1,$8,$9,$2,$3,0*%
G04 Aperture macros list end*
%TA.AperFunction,SMDPad,CuDef*%
%ADD10RoundRect,0.200000X-0.200000X-0.275000X0.200000X-0.275000X0.200000X0.275000X-0.200000X0.275000X0*%
%TD*%
%TA.AperFunction,SMDPad,CuDef*%
%ADD11RoundRect,0.225000X-0.225000X-0.250000X0.225000X-0.250000X0.225000X0.250000X-0.225000X0.250000X0*%
%TD*%
%TA.AperFunction,SMDPad,CuDef*%
%ADD12RoundRect,0.150000X-0.587500X-0.150000X0.587500X-0.150000X0.587500X0.150000X-0.587500X0.150000X0*%
%TD*%
%TA.AperFunction,SMDPad,CuDef*%
%ADD13RoundRect,0.200000X0.275000X-0.200000X0.275000X0.200000X-0.275000X0.200000X-0.275000X-0.200000X0*%
%TD*%
%TA.AperFunction,SMDPad,CuDef*%
%ADD14R,2.500000X1.000000*%
%TD*%
%TA.AperFunction,SMDPad,CuDef*%
%ADD15R,1.000000X1.800000*%
%TD*%
%TA.AperFunction,SMDPad,CuDef*%
%ADD16RoundRect,0.100000X-0.337500X-0.100000X0.337500X-0.100000X0.337500X0.100000X-0.337500X0.100000X0*%
%TD*%
%TA.AperFunction,SMDPad,CuDef*%
%ADD17RoundRect,0.200000X0.200000X0.275000X-0.200000X0.275000X-0.200000X-0.275000X0.200000X-0.275000X0*%
%TD*%
%TA.AperFunction,SMDPad,CuDef*%
%ADD18RoundRect,0.225000X-0.250000X0.225000X-0.250000X-0.225000X0.250000X-0.225000X0.250000X0.225000X0*%
%TD*%
%TA.AperFunction,SMDPad,CuDef*%
%ADD19RoundRect,0.237500X-0.237500X0.287500X-0.237500X-0.287500X0.237500X-0.287500X0.237500X0.287500X0*%
%TD*%
%TA.AperFunction,SMDPad,CuDef*%
%ADD20RoundRect,0.225000X0.225000X0.250000X-0.225000X0.250000X-0.225000X-0.250000X0.225000X-0.250000X0*%
%TD*%
%TA.AperFunction,SMDPad,CuDef*%
%ADD21RoundRect,0.225000X0.250000X-0.225000X0.250000X0.225000X-0.250000X0.225000X-0.250000X-0.225000X0*%
%TD*%
%TA.AperFunction,SMDPad,CuDef*%
%ADD22RoundRect,0.150000X-0.512500X-0.150000X0.512500X-0.150000X0.512500X0.150000X-0.512500X0.150000X0*%
%TD*%
%TA.AperFunction,SMDPad,CuDef*%
%ADD23RoundRect,0.150000X-0.150000X-0.425000X0.150000X-0.425000X0.150000X0.425000X-0.150000X0.425000X0*%
%TD*%
%TA.AperFunction,SMDPad,CuDef*%
%ADD24RoundRect,0.075000X-0.075000X-0.500000X0.075000X-0.500000X0.075000X0.500000X-0.075000X0.500000X0*%
%TD*%
%TA.AperFunction,SMDPad,CuDef*%
%ADD25RoundRect,0.250000X-0.840000X-0.750000X0.840000X-0.750000X0.840000X0.750000X-0.840000X0.750000X0*%
%TD*%
%TA.AperFunction,SMDPad,CuDef*%
%ADD26RoundRect,0.150000X0.150000X-0.825000X0.150000X0.825000X-0.150000X0.825000X-0.150000X-0.825000X0*%
%TD*%
%TA.AperFunction,SMDPad,CuDef*%
%ADD27RoundRect,0.200000X-0.275000X0.200000X-0.275000X-0.200000X0.275000X-0.200000X0.275000X0.200000X0*%
%TD*%
%TA.AperFunction,SMDPad,CuDef*%
%ADD28R,0.800000X1.000000*%
%TD*%
%TA.AperFunction,SMDPad,CuDef*%
%ADD29R,1.500000X0.700000*%
%TD*%
%TA.AperFunction,ComponentPad*%
%ADD30R,1.700000X1.700000*%
%TD*%
%TA.AperFunction,ComponentPad*%
%ADD31O,1.700000X1.700000*%
%TD*%
%TA.AperFunction,ViaPad*%
%ADD32C,0.600000*%
%TD*%
%TA.AperFunction,Conductor*%
%ADD33C,0.508000*%
%TD*%
%TA.AperFunction,Conductor*%
%ADD34C,0.200000*%
%TD*%
%TA.AperFunction,Conductor*%
%ADD35C,0.762000*%
%TD*%
G04 APERTURE END LIST*
D10*
%TO.P,R9,1*%
%TO.N,SDA*%
X142177000Y-77724000D03*
%TO.P,R9,2*%
%TO.N,+3.3V*%
X143827000Y-77724000D03*
%TD*%
D11*
%TO.P,C3,1*%
%TO.N,+3.3V*%
X142227000Y-79502000D03*
%TO.P,C3,2*%
%TO.N,GND*%
X143777000Y-79502000D03*
%TD*%
D12*
%TO.P,Q2,1,B*%
%TO.N,Net-(Q2-B)*%
X128983500Y-112562600D03*
%TO.P,Q2,2,E*%
%TO.N,Net-(Q2-E)*%
X128983500Y-114462600D03*
%TO.P,Q2,3,C*%
%TO.N,BOOT*%
X130858500Y-113512600D03*
%TD*%
D13*
%TO.P,R13,1*%
%TO.N,+3.3V*%
X129540000Y-94805000D03*
%TO.P,R13,2*%
%TO.N,Net-(U3-EN)*%
X129540000Y-93155000D03*
%TD*%
D14*
%TO.P,U3,1,~{RST}*%
%TO.N,RST*%
X132100000Y-89210000D03*
%TO.P,U3,2,ADC*%
%TO.N,unconnected-(U3-ADC-Pad2)*%
X132100000Y-91210000D03*
%TO.P,U3,3,EN*%
%TO.N,Net-(U3-EN)*%
X132100000Y-93210000D03*
%TO.P,U3,4,GPIO16*%
%TO.N,unconnected-(U3-GPIO16-Pad4)*%
X132100000Y-95210000D03*
%TO.P,U3,5,GPIO14*%
%TO.N,SCL*%
X132100000Y-97210000D03*
%TO.P,U3,6,GPIO12*%
%TO.N,unconnected-(U3-GPIO12-Pad6)*%
X132100000Y-99210000D03*
%TO.P,U3,7,GPIO13*%
%TO.N,unconnected-(U3-GPIO13-Pad7)*%
X132100000Y-101210000D03*
%TO.P,U3,8,VCC*%
%TO.N,+3.3V*%
X132100000Y-103210000D03*
D15*
%TO.P,U3,9,CS0*%
%TO.N,unconnected-(U3-CS0-Pad9)*%
X134700000Y-104710000D03*
%TO.P,U3,10,MISO*%
%TO.N,unconnected-(U3-MISO-Pad10)*%
X136700000Y-104710000D03*
%TO.P,U3,11,GPIO9*%
%TO.N,unconnected-(U3-GPIO9-Pad11)*%
X138700000Y-104710000D03*
%TO.P,U3,12,GPIO10*%
%TO.N,unconnected-(U3-GPIO10-Pad12)*%
X140700000Y-104710000D03*
%TO.P,U3,13,MOSI*%
%TO.N,unconnected-(U3-MOSI-Pad13)*%
X142700000Y-104710000D03*
%TO.P,U3,14,SCLK*%
%TO.N,unconnected-(U3-SCLK-Pad14)*%
X144700000Y-104710000D03*
D14*
%TO.P,U3,15,GND*%
%TO.N,GND*%
X147300000Y-103210000D03*
%TO.P,U3,16,GPIO15*%
%TO.N,Net-(U3-GPIO15)*%
X147300000Y-101210000D03*
%TO.P,U3,17,GPIO2*%
%TO.N,SDA*%
X147300000Y-99210000D03*
%TO.P,U3,18,GPIO0*%
%TO.N,BOOT*%
X147300000Y-97210000D03*
%TO.P,U3,19,GPIO4*%
%TO.N,INT*%
X147300000Y-95210000D03*
%TO.P,U3,20,GPIO5*%
%TO.N,unconnected-(U3-GPIO5-Pad20)*%
X147300000Y-93210000D03*
%TO.P,U3,21,GPIO3/RXD*%
%TO.N,RXD*%
X147300000Y-91210000D03*
%TO.P,U3,22,GPIO1/TXD*%
%TO.N,TXD*%
X147300000Y-89210000D03*
%TD*%
D13*
%TO.P,R5,1*%
%TO.N,Net-(Q2-E)*%
X138176000Y-108521000D03*
%TO.P,R5,2*%
%TO.N,Net-(Q1-B)*%
X138176000Y-106871000D03*
%TD*%
D16*
%TO.P,U1,1,SCL*%
%TO.N,SCL*%
X139062500Y-77582000D03*
%TO.P,U1,2,INT*%
%TO.N,INT*%
X139062500Y-78232000D03*
%TO.P,U1,3,GND*%
%TO.N,GND*%
X139062500Y-78882000D03*
%TO.P,U1,4,NC*%
%TO.N,unconnected-(U1-NC-Pad4)*%
X140337500Y-78882000D03*
%TO.P,U1,5,VDD*%
%TO.N,+3.3V*%
X140337500Y-78232000D03*
%TO.P,U1,6,SDA*%
%TO.N,SDA*%
X140337500Y-77582000D03*
%TD*%
D17*
%TO.P,R11,1*%
%TO.N,INT*%
X137223000Y-79502000D03*
%TO.P,R11,2*%
%TO.N,+3.3V*%
X135573000Y-79502000D03*
%TD*%
D18*
%TO.P,C4,1*%
%TO.N,VBAT*%
X145796000Y-114033000D03*
%TO.P,C4,2*%
%TO.N,GND*%
X145796000Y-115583000D03*
%TD*%
D12*
%TO.P,Q1,1,B*%
%TO.N,Net-(Q1-B)*%
X128983500Y-109006600D03*
%TO.P,Q1,2,E*%
%TO.N,Net-(Q1-E)*%
X128983500Y-110906600D03*
%TO.P,Q1,3,C*%
%TO.N,RST*%
X130858500Y-109956600D03*
%TD*%
D13*
%TO.P,R6,1*%
%TO.N,Net-(Q1-E)*%
X136398000Y-108521000D03*
%TO.P,R6,2*%
%TO.N,Net-(Q2-B)*%
X136398000Y-106871000D03*
%TD*%
D19*
%TO.P,D1,1,K*%
%TO.N,Net-(D1-K)*%
X143916400Y-113755200D03*
%TO.P,D1,2,A*%
%TO.N,VBUS*%
X143916400Y-115505200D03*
%TD*%
D11*
%TO.P,C1,1*%
%TO.N,VBUS*%
X149923200Y-112217200D03*
%TO.P,C1,2*%
%TO.N,GND*%
X151473200Y-112217200D03*
%TD*%
D20*
%TO.P,C8,1*%
%TO.N,Net-(U4-V3)*%
X136919000Y-117602000D03*
%TO.P,C8,2*%
%TO.N,GND*%
X135369000Y-117602000D03*
%TD*%
D21*
%TO.P,C6,1*%
%TO.N,VBAT*%
X144729200Y-108598000D03*
%TO.P,C6,2*%
%TO.N,GND*%
X144729200Y-107048000D03*
%TD*%
D10*
%TO.P,R2,1*%
%TO.N,Net-(J1-CC2)*%
X141669000Y-117602000D03*
%TO.P,R2,2*%
%TO.N,GND*%
X143319000Y-117602000D03*
%TD*%
D22*
%TO.P,U2,1,STAT*%
%TO.N,Net-(U2-STAT)*%
X145776100Y-110338700D03*
%TO.P,U2,2,V_{SS}*%
%TO.N,GND*%
X145776100Y-111288700D03*
%TO.P,U2,3,V_{BAT}*%
%TO.N,VBAT*%
X145776100Y-112238700D03*
%TO.P,U2,4,V_{DD}*%
%TO.N,VBUS*%
X148051100Y-112238700D03*
%TO.P,U2,5,PROG*%
%TO.N,Net-(U2-PROG)*%
X148051100Y-110338700D03*
%TD*%
D10*
%TO.P,R1,1*%
%TO.N,Net-(J1-CC1)*%
X138621000Y-117602000D03*
%TO.P,R1,2*%
%TO.N,GND*%
X140271000Y-117602000D03*
%TD*%
D11*
%TO.P,C7,1*%
%TO.N,VBUS*%
X133083000Y-108458000D03*
%TO.P,C7,2*%
%TO.N,GND*%
X134633000Y-108458000D03*
%TD*%
D17*
%TO.P,R3,1*%
%TO.N,Net-(U4-TXD)*%
X151193000Y-91186000D03*
%TO.P,R3,2*%
%TO.N,RXD*%
X149543000Y-91186000D03*
%TD*%
D21*
%TO.P,C5,1*%
%TO.N,+3.3V*%
X151079200Y-106769200D03*
%TO.P,C5,2*%
%TO.N,GND*%
X151079200Y-105219200D03*
%TD*%
D23*
%TO.P,J1,A1,GND*%
%TO.N,GND*%
X136500000Y-119637000D03*
%TO.P,J1,A4,VBUS*%
%TO.N,VBUS*%
X137300000Y-119637000D03*
D24*
%TO.P,J1,A5,CC1*%
%TO.N,Net-(J1-CC1)*%
X138450000Y-119637000D03*
%TO.P,J1,A6,D+*%
%TO.N,Net-(U4-UD+)*%
X139450000Y-119637000D03*
%TO.P,J1,A7,D-*%
%TO.N,Net-(U4-UD-)*%
X139950000Y-119637000D03*
%TO.P,J1,A8,SBU1*%
%TO.N,unconnected-(J1-SBU1-PadA8)*%
X140950000Y-119637000D03*
D23*
%TO.P,J1,A9,VBUS*%
%TO.N,VBUS*%
X142100000Y-119637000D03*
%TO.P,J1,A12,GND*%
%TO.N,GND*%
X142900000Y-119637000D03*
%TO.P,J1,B1,GND*%
X142900000Y-119637000D03*
%TO.P,J1,B4,VBUS*%
%TO.N,VBUS*%
X142100000Y-119637000D03*
D24*
%TO.P,J1,B5,CC2*%
%TO.N,Net-(J1-CC2)*%
X141450000Y-119637000D03*
%TO.P,J1,B6,D+*%
%TO.N,Net-(U4-UD+)*%
X140450000Y-119637000D03*
%TO.P,J1,B7,D-*%
%TO.N,Net-(U4-UD-)*%
X138950000Y-119637000D03*
%TO.P,J1,B8,SBU2*%
%TO.N,unconnected-(J1-SBU2-PadB8)*%
X137950000Y-119637000D03*
D23*
%TO.P,J1,B9,VBUS*%
%TO.N,VBUS*%
X137300000Y-119637000D03*
%TO.P,J1,B12,GND*%
%TO.N,GND*%
X136500000Y-119637000D03*
D25*
%TO.P,J1,S1,SHIELD*%
X134590000Y-120212000D03*
X134590000Y-124142000D03*
X144810000Y-120212000D03*
X144810000Y-124142000D03*
%TD*%
D17*
%TO.P,R4,1*%
%TO.N,Net-(U4-RXD)*%
X151193000Y-89154000D03*
%TO.P,R4,2*%
%TO.N,TXD*%
X149543000Y-89154000D03*
%TD*%
D26*
%TO.P,U4,1,GND*%
%TO.N,GND*%
X133231800Y-115505000D03*
%TO.P,U4,2,TXD*%
%TO.N,Net-(U4-TXD)*%
X134501800Y-115505000D03*
%TO.P,U4,3,RXD*%
%TO.N,Net-(U4-RXD)*%
X135771800Y-115505000D03*
%TO.P,U4,4,V3*%
%TO.N,Net-(U4-V3)*%
X137041800Y-115505000D03*
%TO.P,U4,5,UD+*%
%TO.N,Net-(U4-UD+)*%
X138311800Y-115505000D03*
%TO.P,U4,6,UD-*%
%TO.N,Net-(U4-UD-)*%
X139581800Y-115505000D03*
%TO.P,U4,7,NC*%
%TO.N,unconnected-(U4-NC-Pad7)*%
X140851800Y-115505000D03*
%TO.P,U4,8,NC*%
%TO.N,unconnected-(U4-NC-Pad8)*%
X142121800Y-115505000D03*
%TO.P,U4,9,~{CTS}*%
%TO.N,unconnected-(U4-~{CTS}-Pad9)*%
X142121800Y-110555000D03*
%TO.P,U4,10,~{DSR}*%
%TO.N,unconnected-(U4-~{DSR}-Pad10)*%
X140851800Y-110555000D03*
%TO.P,U4,11,~{RI}*%
%TO.N,unconnected-(U4-~{RI}-Pad11)*%
X139581800Y-110555000D03*
%TO.P,U4,12,~{DCD}*%
%TO.N,unconnected-(U4-~{DCD}-Pad12)*%
X138311800Y-110555000D03*
%TO.P,U4,13,~{DTR}*%
%TO.N,Net-(Q2-E)*%
X137041800Y-110555000D03*
%TO.P,U4,14,~{RTS}*%
%TO.N,Net-(Q1-E)*%
X135771800Y-110555000D03*
%TO.P,U4,15,R232*%
%TO.N,unconnected-(U4-R232-Pad15)*%
X134501800Y-110555000D03*
%TO.P,U4,16,VCC*%
%TO.N,VBUS*%
X133231800Y-110555000D03*
%TD*%
D13*
%TO.P,R8,1*%
%TO.N,Net-(D1-K)*%
X143916400Y-112153200D03*
%TO.P,R8,2*%
%TO.N,Net-(U2-STAT)*%
X143916400Y-110503200D03*
%TD*%
D27*
%TO.P,R12,1*%
%TO.N,Net-(U3-GPIO15)*%
X149860000Y-101537000D03*
%TO.P,R12,2*%
%TO.N,GND*%
X149860000Y-103187000D03*
%TD*%
D18*
%TO.P,C2,1*%
%TO.N,+3.3V*%
X129540000Y-103365000D03*
%TO.P,C2,2*%
%TO.N,GND*%
X129540000Y-104915000D03*
%TD*%
D28*
%TO.P,SW1,*%
%TO.N,*%
X149588000Y-121252000D03*
X151798000Y-121252000D03*
X149588000Y-113952000D03*
X151798000Y-113952000D03*
D29*
%TO.P,SW1,1,A*%
%TO.N,Net-(BT1-+)*%
X148938000Y-119852000D03*
%TO.P,SW1,2,B*%
%TO.N,VBAT*%
X148938000Y-116852000D03*
%TO.P,SW1,3,C*%
%TO.N,unconnected-(SW1-C-Pad3)*%
X148938000Y-115352000D03*
%TD*%
D17*
%TO.P,R7,1*%
%TO.N,GND*%
X151497800Y-110413800D03*
%TO.P,R7,2*%
%TO.N,Net-(U2-PROG)*%
X149847800Y-110413800D03*
%TD*%
D22*
%TO.P,U5,1,IN*%
%TO.N,VBAT*%
X146919100Y-106796800D03*
%TO.P,U5,2,GND*%
%TO.N,GND*%
X146919100Y-107746800D03*
%TO.P,U5,3,EN*%
%TO.N,VBAT*%
X146919100Y-108696800D03*
%TO.P,U5,4,NC*%
%TO.N,unconnected-(U5-NC-Pad4)*%
X149194100Y-108696800D03*
%TO.P,U5,5,OUT*%
%TO.N,+3.3V*%
X149194100Y-106796800D03*
%TD*%
D17*
%TO.P,R10,1*%
%TO.N,SCL*%
X137223000Y-77724000D03*
%TO.P,R10,2*%
%TO.N,+3.3V*%
X135573000Y-77724000D03*
%TD*%
D30*
%TO.P,BT1,1,+*%
%TO.N,Net-(BT1-+)*%
X130048000Y-119893000D03*
D31*
%TO.P,BT1,2,-*%
%TO.N,GND*%
X130048000Y-117353000D03*
%TD*%
D32*
%TO.N,VBUS*%
X133223000Y-112242600D03*
X138500001Y-121412000D03*
%TO.N,GND*%
X133908800Y-107594400D03*
X143357600Y-107061000D03*
X151485600Y-109270800D03*
X144957800Y-117627400D03*
X142748000Y-114046000D03*
X149809200Y-104089200D03*
X133519536Y-117280064D03*
X143687800Y-103470000D03*
X144297400Y-117627400D03*
X146786600Y-116738400D03*
%TO.N,Net-(U4-UD+)*%
X138811000Y-116627000D03*
X139928600Y-120812000D03*
%TO.N,BOOT*%
X131902200Y-113477600D03*
X149148800Y-97205800D03*
%TO.N,Net-(U4-TXD)*%
X141325600Y-112928400D03*
X151130000Y-92481400D03*
%TO.N,Net-(U4-RXD)*%
X151587200Y-90170000D03*
X140157200Y-113639600D03*
%TO.N,SDA*%
X141300200Y-77582000D03*
X149199600Y-99136200D03*
%TO.N,SCL*%
X130175000Y-96875600D03*
X136575800Y-78486000D03*
%TO.N,INT*%
X149199600Y-95199200D03*
X138055100Y-78669900D03*
%TO.N,RST*%
X130124200Y-89179400D03*
X131826000Y-109982000D03*
%TD*%
D33*
%TO.N,VBUS*%
X143916400Y-115505200D02*
X146292600Y-117881400D01*
D34*
X142619000Y-116802600D02*
X143916400Y-115505200D01*
D33*
X150672800Y-112966800D02*
X149923200Y-112217200D01*
D34*
X142100000Y-119637000D02*
X142100000Y-118402400D01*
D33*
X148051100Y-112238700D02*
X149901700Y-112238700D01*
D34*
X142100000Y-120094410D02*
X142100000Y-119637000D01*
X142619000Y-117883400D02*
X142619000Y-116802600D01*
X142100000Y-118402400D02*
X142619000Y-117883400D01*
X133231800Y-108606800D02*
X133083000Y-108458000D01*
X133231800Y-110555000D02*
X133231800Y-112233800D01*
X138500001Y-121412000D02*
X140782410Y-121412000D01*
X133231800Y-110555000D02*
X133231800Y-108606800D01*
X133231800Y-112233800D02*
X133223000Y-112242600D01*
X137300000Y-120211999D02*
X138500001Y-121412000D01*
D33*
X151765000Y-116738400D02*
X151765000Y-115419000D01*
D34*
X137300000Y-119637000D02*
X137300000Y-120211999D01*
D33*
X150672800Y-114326800D02*
X150672800Y-112966800D01*
X146292600Y-117881400D02*
X150622000Y-117881400D01*
D34*
X140782410Y-121412000D02*
X142100000Y-120094410D01*
D33*
X151765000Y-115419000D02*
X150672800Y-114326800D01*
D34*
X149901700Y-112238700D02*
X149923200Y-112217200D01*
D33*
X150622000Y-117881400D02*
X151765000Y-116738400D01*
%TO.N,GND*%
X144810000Y-118140000D02*
X144957800Y-117992200D01*
D34*
X149809200Y-104089200D02*
X149809200Y-103237800D01*
X134633000Y-108318600D02*
X133908800Y-107594400D01*
X145378300Y-111288700D02*
X145776100Y-111288700D01*
X144813600Y-114600600D02*
X144813600Y-111853400D01*
X144813600Y-111853400D02*
X145378300Y-111288700D01*
X145428000Y-107746800D02*
X144729200Y-107048000D01*
X143370600Y-107048000D02*
X143357600Y-107061000D01*
X140251800Y-114484800D02*
X140690600Y-114046000D01*
D33*
X144810000Y-120212000D02*
X143475000Y-120212000D01*
D34*
X144729200Y-107048000D02*
X143370600Y-107048000D01*
X136500000Y-118796200D02*
X136500000Y-119637000D01*
D33*
X144810000Y-118140000D02*
X144297400Y-117627400D01*
D34*
X140251800Y-117582800D02*
X140251800Y-114484800D01*
D33*
X134590000Y-124142000D02*
X144810000Y-124142000D01*
X144810000Y-120212000D02*
X144810000Y-118140000D01*
D34*
X150799800Y-102247200D02*
X149860000Y-103187000D01*
X145796000Y-115583000D02*
X145796000Y-115747800D01*
X150342600Y-82423000D02*
X150342600Y-100380800D01*
X135369000Y-117602000D02*
X135369000Y-117665200D01*
X150799800Y-100838000D02*
X150799800Y-102247200D01*
X132651200Y-104915000D02*
X129540000Y-104915000D01*
D33*
X134436000Y-120212000D02*
X134590000Y-120212000D01*
D34*
X133985000Y-117602000D02*
X135369000Y-117602000D01*
D33*
X143475000Y-120212000D02*
X142900000Y-119637000D01*
D34*
X150342600Y-100380800D02*
X150799800Y-100838000D01*
D33*
X130048000Y-117353000D02*
X131577000Y-117353000D01*
X134590000Y-120212000D02*
X134590000Y-124142000D01*
D34*
X145796000Y-115583000D02*
X144813600Y-114600600D01*
X135369000Y-117665200D02*
X136500000Y-118796200D01*
X145796000Y-115747800D02*
X146786600Y-116738400D01*
X147421600Y-79502000D02*
X150342600Y-82423000D01*
D33*
X131577000Y-117353000D02*
X134436000Y-120212000D01*
D34*
X134633000Y-108458000D02*
X134633000Y-108318600D01*
D33*
X135925000Y-120212000D02*
X136500000Y-119637000D01*
D34*
X151079200Y-105219200D02*
X150939200Y-105219200D01*
X140271000Y-117602000D02*
X140251800Y-117582800D01*
X151497800Y-110413800D02*
X151497800Y-109283000D01*
D33*
X134590000Y-120212000D02*
X135925000Y-120212000D01*
D34*
X149837000Y-103210000D02*
X149860000Y-103187000D01*
X142900000Y-118168085D02*
X142900000Y-119637000D01*
X139331544Y-78882000D02*
X140726544Y-80277000D01*
X151497800Y-109283000D02*
X151485600Y-109270800D01*
X143621200Y-103403400D02*
X134162800Y-103403400D01*
X146919100Y-107746800D02*
X145428000Y-107746800D01*
X151473200Y-110438400D02*
X151497800Y-110413800D01*
X134162800Y-103403400D02*
X132651200Y-104915000D01*
X143319000Y-117749085D02*
X142900000Y-118168085D01*
X143777000Y-79502000D02*
X147421600Y-79502000D01*
X143319000Y-117602000D02*
X143319000Y-117749085D01*
D33*
X144957800Y-117627400D02*
X144297400Y-117627400D01*
D34*
X133231800Y-115505000D02*
X133231800Y-116848800D01*
X147300000Y-103210000D02*
X149837000Y-103210000D01*
X133231800Y-116848800D02*
X133985000Y-117602000D01*
D33*
X144957800Y-117992200D02*
X144957800Y-117627400D01*
D34*
X143687800Y-103470000D02*
X143621200Y-103403400D01*
X139062500Y-78882000D02*
X139331544Y-78882000D01*
D33*
X144810000Y-124142000D02*
X144810000Y-120212000D01*
D34*
X140726544Y-80277000D02*
X143002000Y-80277000D01*
X143002000Y-80277000D02*
X143777000Y-79502000D01*
X150939200Y-105219200D02*
X149809200Y-104089200D01*
X140690600Y-114046000D02*
X142748000Y-114046000D01*
X149809200Y-103237800D02*
X149860000Y-103187000D01*
X151473200Y-112217200D02*
X151473200Y-110438400D01*
X143344400Y-117627400D02*
X143319000Y-117602000D01*
%TO.N,+3.3V*%
X135573000Y-77724000D02*
X136348000Y-76949000D01*
X129540000Y-94805000D02*
X129540000Y-103365000D01*
X149194100Y-106796800D02*
X151051600Y-106796800D01*
X128371600Y-93726000D02*
X129450600Y-94805000D01*
X131876800Y-79502000D02*
X128371600Y-83007200D01*
X144780000Y-102870000D02*
X132440000Y-102870000D01*
X143827000Y-77902000D02*
X142227000Y-79502000D01*
X149194100Y-106796800D02*
X148706800Y-106796800D01*
X140957000Y-78232000D02*
X140337500Y-78232000D01*
X132440000Y-102870000D02*
X132100000Y-103210000D01*
X128371600Y-83007200D02*
X128371600Y-93726000D01*
X143052000Y-76949000D02*
X143827000Y-77724000D01*
X129450600Y-94805000D02*
X129540000Y-94805000D01*
X151051600Y-106796800D02*
X151079200Y-106769200D01*
X143827000Y-77724000D02*
X143827000Y-77902000D01*
X148706800Y-106796800D02*
X144780000Y-102870000D01*
X136348000Y-76949000D02*
X143052000Y-76949000D01*
X135573000Y-79502000D02*
X135573000Y-77724000D01*
X129695000Y-103210000D02*
X129540000Y-103365000D01*
X132100000Y-103210000D02*
X129695000Y-103210000D01*
X142227000Y-79502000D02*
X140957000Y-78232000D01*
X135573000Y-79502000D02*
X131876800Y-79502000D01*
%TO.N,VBAT*%
X148031200Y-108331000D02*
X147665400Y-108696800D01*
X146663500Y-112238700D02*
X145776100Y-112238700D01*
X148031200Y-107246401D02*
X148031200Y-108331000D01*
X146919100Y-106796800D02*
X147581599Y-106796800D01*
X148938000Y-116852000D02*
X148538000Y-116852000D01*
X146913600Y-111988600D02*
X146663500Y-112238700D01*
X145776100Y-114013100D02*
X145796000Y-114033000D01*
X146913600Y-110046401D02*
X146919100Y-110040901D01*
X144828000Y-108696800D02*
X144729200Y-108598000D01*
X147665400Y-108696800D02*
X146919100Y-108696800D01*
D33*
X148538000Y-116852000D02*
X145796000Y-114110000D01*
X145776100Y-112238700D02*
X145776100Y-114013100D01*
D34*
X145796000Y-114110000D02*
X145796000Y-114033000D01*
X147581599Y-106796800D02*
X148031200Y-107246401D01*
X146919100Y-108696800D02*
X144828000Y-108696800D01*
X146913600Y-110046401D02*
X146913600Y-111988600D01*
X146919100Y-110040901D02*
X146919100Y-108696800D01*
%TO.N,Net-(J1-CC2)*%
X141669000Y-117602000D02*
X141450000Y-117821000D01*
X141450000Y-117821000D02*
X141450000Y-119637000D01*
%TO.N,Net-(U4-UD-)*%
X138950000Y-119637000D02*
X138950000Y-119029590D01*
X139225800Y-118762000D02*
X139571000Y-118416800D01*
X139571000Y-118416800D02*
X139571000Y-118408590D01*
X139571000Y-115515800D02*
X139581800Y-115505000D01*
X139571000Y-118408590D02*
X139571000Y-115515800D01*
X138950000Y-119029590D02*
X139217590Y-118762000D01*
X139217590Y-118762000D02*
X139225800Y-118762000D01*
X139950000Y-118787590D02*
X139571000Y-118408590D01*
X139950000Y-119637000D02*
X139950000Y-118787590D01*
%TO.N,Net-(U4-UD+)*%
X140055600Y-120726200D02*
X140450000Y-120331800D01*
X138311800Y-115505000D02*
X138311800Y-116127800D01*
X140450000Y-120331800D02*
X140450000Y-119637000D01*
X139450000Y-119637000D02*
X139450000Y-120400000D01*
X138311800Y-116127800D02*
X138811000Y-116627000D01*
X139776200Y-120726200D02*
X140055600Y-120726200D01*
X139450000Y-120400000D02*
X139776200Y-120726200D01*
%TO.N,Net-(J1-CC1)*%
X138450000Y-117773000D02*
X138621000Y-117602000D01*
X138450000Y-119637000D02*
X138450000Y-117773000D01*
D35*
%TO.N,Net-(BT1-+)*%
X132537200Y-125577600D02*
X133045200Y-126085600D01*
X133045200Y-126085600D02*
X145973800Y-126085600D01*
D34*
X130048000Y-119893000D02*
X130048000Y-119913400D01*
D35*
X132537200Y-122402600D02*
X132537200Y-125577600D01*
X146812000Y-125247400D02*
X146812000Y-121978000D01*
X145973800Y-126085600D02*
X146812000Y-125247400D01*
X146812000Y-121978000D02*
X148938000Y-119852000D01*
X130048000Y-119913400D02*
X132537200Y-122402600D01*
D34*
%TO.N,Net-(Q1-B)*%
X131945100Y-106045000D02*
X137350000Y-106045000D01*
X128983500Y-109006600D02*
X131945100Y-106045000D01*
X137350000Y-106045000D02*
X138176000Y-106871000D01*
%TO.N,Net-(U4-V3)*%
X137041800Y-117479200D02*
X136919000Y-117602000D01*
X137041800Y-115505000D02*
X137041800Y-117479200D01*
%TO.N,Net-(Q1-E)*%
X135771800Y-111090800D02*
X135771800Y-110555000D01*
X135771800Y-109147200D02*
X136398000Y-108521000D01*
X133985000Y-112877600D02*
X135771800Y-111090800D01*
X131691999Y-112877600D02*
X133985000Y-112877600D01*
X128983500Y-110906600D02*
X129720999Y-110906600D01*
X135771800Y-110555000D02*
X135771800Y-109147200D01*
X129720999Y-110906600D02*
X131691999Y-112877600D01*
%TO.N,BOOT*%
X149148800Y-97205800D02*
X147304200Y-97205800D01*
X147304200Y-97205800D02*
X147300000Y-97210000D01*
X131902200Y-113477600D02*
X131867200Y-113512600D01*
X131867200Y-113512600D02*
X130858500Y-113512600D01*
%TO.N,Net-(Q2-B)*%
X136398000Y-106871000D02*
X132574800Y-106871000D01*
X128463000Y-112562600D02*
X128983500Y-112562600D01*
X129821000Y-109616048D02*
X129821000Y-109624800D01*
X130080448Y-109356600D02*
X129821000Y-109616048D01*
X127711200Y-111810800D02*
X128463000Y-112562600D01*
X128168400Y-110058200D02*
X127711200Y-110515400D01*
X129387600Y-110058200D02*
X128168400Y-110058200D01*
X127711200Y-110515400D02*
X127711200Y-111810800D01*
X130089200Y-109356600D02*
X130080448Y-109356600D01*
X132574800Y-106871000D02*
X130089200Y-109356600D01*
X129821000Y-109624800D02*
X129387600Y-110058200D01*
%TO.N,Net-(U4-TXD)*%
X151193000Y-92418400D02*
X151193000Y-91186000D01*
X136353952Y-112928400D02*
X134501800Y-114780552D01*
X151130000Y-92481400D02*
X151193000Y-92418400D01*
X134501800Y-114780552D02*
X134501800Y-115505000D01*
X141325600Y-112928400D02*
X136353952Y-112928400D01*
%TO.N,RXD*%
X149519000Y-91210000D02*
X149543000Y-91186000D01*
X147300000Y-91210000D02*
X149519000Y-91210000D01*
%TO.N,Net-(U4-RXD)*%
X135771800Y-114530001D02*
X135771800Y-115505000D01*
X151587200Y-90170000D02*
X151587200Y-89712800D01*
X151587200Y-89712800D02*
X151193000Y-89318600D01*
X136662201Y-113639600D02*
X135771800Y-114530001D01*
X151193000Y-89318600D02*
X151193000Y-89154000D01*
X140157200Y-113639600D02*
X136662201Y-113639600D01*
%TO.N,TXD*%
X147300000Y-89210000D02*
X149487000Y-89210000D01*
X149487000Y-89210000D02*
X149543000Y-89154000D01*
%TO.N,Net-(U2-PROG)*%
X149772700Y-110338700D02*
X149847800Y-110413800D01*
X148051100Y-110338700D02*
X149772700Y-110338700D01*
%TO.N,Net-(U2-STAT)*%
X145776100Y-110338700D02*
X144080900Y-110338700D01*
X144080900Y-110338700D02*
X143916400Y-110503200D01*
%TO.N,Net-(D1-K)*%
X143916400Y-112153200D02*
X143916400Y-113755200D01*
%TO.N,SDA*%
X142177000Y-77724000D02*
X141442200Y-77724000D01*
X147373800Y-99136200D02*
X147300000Y-99210000D01*
X140337500Y-77582000D02*
X141300200Y-77582000D01*
X149199600Y-99136200D02*
X147373800Y-99136200D01*
X141442200Y-77724000D02*
X141300200Y-77582000D01*
%TO.N,SCL*%
X136575800Y-78486000D02*
X136575800Y-78371200D01*
X139062500Y-77582000D02*
X137365000Y-77582000D01*
X137365000Y-77582000D02*
X137223000Y-77724000D01*
X130509400Y-97210000D02*
X130175000Y-96875600D01*
X132100000Y-97210000D02*
X130509400Y-97210000D01*
X136575800Y-78371200D02*
X137223000Y-77724000D01*
%TO.N,INT*%
X139062500Y-78232000D02*
X138493000Y-78232000D01*
X138493000Y-78232000D02*
X137223000Y-79502000D01*
X149188800Y-95210000D02*
X149199600Y-95199200D01*
X147300000Y-95210000D02*
X149188800Y-95210000D01*
%TO.N,Net-(Q2-E)*%
X137041800Y-109655200D02*
X138176000Y-108521000D01*
X137041800Y-111268600D02*
X134416800Y-113893600D01*
X132791200Y-113893600D02*
X132222200Y-114462600D01*
X137041800Y-110555000D02*
X137041800Y-111268600D01*
X137041800Y-110555000D02*
X137041800Y-109655200D01*
X132222200Y-114462600D02*
X128983500Y-114462600D01*
X134416800Y-113893600D02*
X132791200Y-113893600D01*
%TO.N,Net-(U3-GPIO15)*%
X147300000Y-101210000D02*
X149533000Y-101210000D01*
X149533000Y-101210000D02*
X149860000Y-101537000D01*
%TO.N,Net-(U3-EN)*%
X132045000Y-93155000D02*
X132100000Y-93210000D01*
X129540000Y-93155000D02*
X132045000Y-93155000D01*
%TO.N,RST*%
X130883900Y-109982000D02*
X130858500Y-109956600D01*
X131826000Y-109982000D02*
X130883900Y-109982000D01*
X130124200Y-89179400D02*
X132069400Y-89179400D01*
X132069400Y-89179400D02*
X132100000Y-89210000D01*
%TD*%
M02*
