%TF.GenerationSoftware,KiCad,Pcbnew,8.0.8*%
%TF.CreationDate,2025-01-23T20:15:16-05:00*%
%TF.ProjectId,compact_sqm,636f6d70-6163-4745-9f73-716d2e6b6963,rev?*%
%TF.SameCoordinates,Original*%
%TF.FileFunction,Copper,L2,Bot*%
%TF.FilePolarity,Positive*%
%FSLAX46Y46*%
G04 Gerber Fmt 4.6, Leading zero omitted, Abs format (unit mm)*
G04 Created by KiCad (PCBNEW 8.0.8) date 2025-01-23 20:15:16*
%MOMM*%
%LPD*%
G01*
G04 APERTURE LIST*
%TA.AperFunction,ComponentPad*%
%ADD10R,1.700000X1.700000*%
%TD*%
%TA.AperFunction,ComponentPad*%
%ADD11O,1.700000X1.700000*%
%TD*%
%TA.AperFunction,ViaPad*%
%ADD12C,0.600000*%
%TD*%
%TA.AperFunction,Conductor*%
%ADD13C,0.200000*%
%TD*%
%TA.AperFunction,Conductor*%
%ADD14C,0.508000*%
%TD*%
G04 APERTURE END LIST*
D10*
%TO.P,BT1,1,+*%
%TO.N,Net-(BT1-+)*%
X130048000Y-119893000D03*
D11*
%TO.P,BT1,2,-*%
%TO.N,GND*%
X130048000Y-117353000D03*
%TD*%
D12*
%TO.N,VBUS*%
X133223000Y-112242600D03*
X138500001Y-121412000D03*
%TO.N,GND*%
X133908800Y-107594400D03*
X143357600Y-107061000D03*
X151485600Y-109270800D03*
X144957800Y-117627400D03*
X142748000Y-114046000D03*
X149809200Y-104089200D03*
X133519536Y-117280064D03*
X143687800Y-103470000D03*
X144297400Y-117627400D03*
X146786600Y-116738400D03*
%TO.N,Net-(U4-UD+)*%
X138811000Y-116627000D03*
X139928600Y-120812000D03*
%TO.N,BOOT*%
X131902200Y-113477600D03*
X149148800Y-97205800D03*
%TO.N,Net-(U4-TXD)*%
X141325600Y-112928400D03*
X151130000Y-92481400D03*
%TO.N,Net-(U4-RXD)*%
X151587200Y-90170000D03*
X140157200Y-113639600D03*
%TO.N,SDA*%
X141300200Y-77582000D03*
X149199600Y-99136200D03*
%TO.N,SCL*%
X130175000Y-96875600D03*
X136575800Y-78486000D03*
%TO.N,INT*%
X149199600Y-95199200D03*
X138055100Y-78669900D03*
%TO.N,RST*%
X130124200Y-89179400D03*
X131826000Y-109982000D03*
%TD*%
D13*
%TO.N,VBUS*%
X133223000Y-112242600D02*
X133223000Y-116134999D01*
X133223000Y-116134999D02*
X138500001Y-121412000D01*
D14*
%TO.N,GND*%
X144297400Y-116992400D02*
X144297400Y-117627400D01*
X144297400Y-117627400D02*
X144957800Y-117627400D01*
X151485600Y-112039400D02*
X146786600Y-116738400D01*
D13*
X133908800Y-107594400D02*
X133908800Y-109093000D01*
D14*
X142417800Y-117627400D02*
X144297400Y-117627400D01*
X142748000Y-115443000D02*
X144297400Y-116992400D01*
X145710200Y-103470000D02*
X146329400Y-104089200D01*
D13*
X131241800Y-111760000D02*
X131241800Y-115002328D01*
D14*
X143357600Y-107061000D02*
X146329400Y-104089200D01*
X143687800Y-103470000D02*
X145710200Y-103470000D01*
X139217400Y-114427000D02*
X142417800Y-117627400D01*
X146329400Y-104089200D02*
X149809200Y-104089200D01*
D13*
X133908800Y-109093000D02*
X131241800Y-111760000D01*
D14*
X151485600Y-109270800D02*
X151485600Y-112039400D01*
X145897600Y-117627400D02*
X144957800Y-117627400D01*
D13*
X131241800Y-115002328D02*
X133519536Y-117280064D01*
D14*
X142748000Y-114046000D02*
X142748000Y-115443000D01*
X143357600Y-107061000D02*
X143357600Y-109118400D01*
X146786600Y-116738400D02*
X145897600Y-117627400D01*
X139217400Y-113258600D02*
X139217400Y-114427000D01*
X143357600Y-109118400D02*
X139217400Y-113258600D01*
D13*
%TO.N,Net-(U4-UD+)*%
X139928600Y-117744600D02*
X138811000Y-116627000D01*
X139928600Y-120812000D02*
X139928600Y-117744600D01*
%TO.N,BOOT*%
X146923929Y-97205800D02*
X149148800Y-97205800D01*
X131902200Y-113477600D02*
X131902200Y-112227529D01*
X131902200Y-112227529D02*
X146923929Y-97205800D01*
%TO.N,Net-(U4-TXD)*%
X141325600Y-112928400D02*
X141960600Y-112928400D01*
X151282400Y-103606600D02*
X151282400Y-92633800D01*
X151282400Y-92633800D02*
X151130000Y-92481400D01*
X141960600Y-112928400D02*
X151282400Y-103606600D01*
%TO.N,Net-(U4-RXD)*%
X142062200Y-113639600D02*
X151800000Y-103901800D01*
X151800000Y-90382800D02*
X151587200Y-90170000D01*
X140157200Y-113639600D02*
X142062200Y-113639600D01*
X151800000Y-103901800D02*
X151800000Y-90382800D01*
%TO.N,SDA*%
X150291800Y-82042000D02*
X150291800Y-98044000D01*
X141300200Y-77582000D02*
X145831800Y-77582000D01*
X145831800Y-77582000D02*
X150291800Y-82042000D01*
X150291800Y-98044000D02*
X149199600Y-99136200D01*
%TO.N,SCL*%
X129524200Y-96224800D02*
X129524200Y-82210200D01*
X129524200Y-82210200D02*
X133248400Y-78486000D01*
X133248400Y-78486000D02*
X136575800Y-78486000D01*
X130175000Y-96875600D02*
X129524200Y-96224800D01*
%TO.N,INT*%
X138055100Y-78669900D02*
X138061200Y-78663800D01*
X138061200Y-78663800D02*
X146304000Y-78663800D01*
X146304000Y-78663800D02*
X149199600Y-81559400D01*
X149199600Y-81559400D02*
X149199600Y-95199200D01*
%TO.N,RST*%
X131826000Y-90881200D02*
X130124200Y-89179400D01*
X131826000Y-109982000D02*
X131826000Y-90881200D01*
%TD*%
M02*
