%TF.GenerationSoftware,KiCad,Pcbnew,8.0.8*%
%TF.CreationDate,2025-01-23T20:15:16-05:00*%
%TF.ProjectId,compact_sqm,636f6d70-6163-4745-9f73-716d2e6b6963,rev?*%
%TF.SameCoordinates,Original*%
%TF.FileFunction,Legend,Bot*%
%TF.FilePolarity,Positive*%
%FSLAX46Y46*%
G04 Gerber Fmt 4.6, Leading zero omitted, Abs format (unit mm)*
G04 Created by KiCad (PCBNEW 8.0.8) date 2025-01-23 20:15:16*
%MOMM*%
%LPD*%
G01*
G04 APERTURE LIST*
%ADD10C,0.100000*%
%ADD11C,0.254000*%
%ADD12C,0.300000*%
G04 APERTURE END LIST*
D10*
X128491409Y-117042666D02*
X127729505Y-117042666D01*
X128466009Y-119989066D02*
X127704105Y-119989066D01*
X128085057Y-120370019D02*
X128085057Y-119608114D01*
D11*
G36*
X141683219Y-90413609D02*
G01*
X141652449Y-90381101D01*
X141621182Y-90359264D01*
X141603067Y-90366212D01*
X141596119Y-90408646D01*
X141582222Y-90622056D01*
X141580733Y-90649600D01*
X141603067Y-90676897D01*
X141626641Y-90653074D01*
X141648960Y-90603944D01*
X141676713Y-90556866D01*
X141707480Y-90512746D01*
X141729624Y-90484084D01*
X141763949Y-90447824D01*
X141807744Y-90417290D01*
X141856409Y-90398388D01*
X141909943Y-90391118D01*
X141916977Y-90391027D01*
X141966758Y-90395777D01*
X142015415Y-90411974D01*
X142057679Y-90439665D01*
X142093786Y-90477384D01*
X142121470Y-90519105D01*
X142144259Y-90567901D01*
X142146269Y-90573170D01*
X142161623Y-90623418D01*
X142171053Y-90672533D01*
X142176512Y-90725835D01*
X142178032Y-90775909D01*
X142175869Y-90837086D01*
X142169381Y-90894217D01*
X142158566Y-90947300D01*
X142143427Y-90996337D01*
X142119549Y-91049838D01*
X142089442Y-91097512D01*
X142054694Y-91138076D01*
X142016893Y-91170248D01*
X141968932Y-91197174D01*
X141916816Y-91212677D01*
X141868836Y-91216873D01*
X141816064Y-91210897D01*
X141764950Y-91192969D01*
X141715494Y-91163089D01*
X141675546Y-91129059D01*
X141636749Y-91086729D01*
X141606541Y-91046890D01*
X141578500Y-91026293D01*
X141556166Y-91048627D01*
X141574309Y-91095138D01*
X141608126Y-91137895D01*
X141646451Y-91177121D01*
X141666097Y-91195532D01*
X141709275Y-91229771D01*
X141756362Y-91256926D01*
X141807357Y-91276997D01*
X141862260Y-91289984D01*
X141921072Y-91295888D01*
X141941544Y-91296281D01*
X141994885Y-91294172D01*
X142045349Y-91287844D01*
X142104383Y-91274002D01*
X142158922Y-91253568D01*
X142208965Y-91226543D01*
X142254513Y-91192926D01*
X142287715Y-91161287D01*
X142324317Y-91117509D01*
X142354715Y-91070702D01*
X142378910Y-91020866D01*
X142396901Y-90968001D01*
X142408688Y-90912106D01*
X142414272Y-90853183D01*
X142414768Y-90828765D01*
X142411642Y-90768692D01*
X142402263Y-90711150D01*
X142386633Y-90656142D01*
X142364750Y-90603665D01*
X142336615Y-90553721D01*
X142302228Y-90506310D01*
X142286722Y-90488054D01*
X142245060Y-90446376D01*
X142200102Y-90411762D01*
X142151848Y-90384213D01*
X142100299Y-90363727D01*
X142045454Y-90350305D01*
X141987313Y-90343947D01*
X141963133Y-90343382D01*
X141911406Y-90345851D01*
X141859329Y-90353258D01*
X141806903Y-90365602D01*
X141754129Y-90382885D01*
X141701005Y-90405105D01*
X141683219Y-90413609D01*
G37*
G36*
X141170811Y-90662411D02*
G01*
X141227608Y-90671571D01*
X141280368Y-90689281D01*
X141329090Y-90715541D01*
X141373775Y-90750350D01*
X141401799Y-90779534D01*
X141433052Y-90824911D01*
X141454996Y-90875560D01*
X141467631Y-90931482D01*
X141471051Y-90983611D01*
X141469612Y-91018271D01*
X141460172Y-91074652D01*
X141441921Y-91125595D01*
X141414859Y-91171100D01*
X141378987Y-91211165D01*
X141355234Y-91231114D01*
X141310420Y-91259625D01*
X141261474Y-91279989D01*
X141208395Y-91292208D01*
X141151184Y-91296281D01*
X141097816Y-91292713D01*
X141048078Y-91282009D01*
X140994636Y-91260501D01*
X140946134Y-91229279D01*
X140908493Y-91194787D01*
X140886043Y-91168898D01*
X140853958Y-91121409D01*
X140831041Y-91071142D01*
X140817290Y-91018095D01*
X140816680Y-91010660D01*
X141005520Y-91010660D01*
X141005651Y-91023867D01*
X141009478Y-91079293D01*
X141019947Y-91133188D01*
X141039020Y-91183124D01*
X141050289Y-91201997D01*
X141087072Y-91236097D01*
X141138777Y-91248636D01*
X141178282Y-91240639D01*
X141218203Y-91209931D01*
X141245233Y-91166746D01*
X141247615Y-91161568D01*
X141265648Y-91110927D01*
X141276535Y-91059816D01*
X141282093Y-91010386D01*
X141283945Y-90956563D01*
X141283410Y-90927979D01*
X141279129Y-90875743D01*
X141269197Y-90824838D01*
X141249700Y-90773924D01*
X141240693Y-90758628D01*
X141202145Y-90721152D01*
X141152673Y-90708660D01*
X141104086Y-90721781D01*
X141067702Y-90756862D01*
X141043735Y-90801965D01*
X141027016Y-90849998D01*
X141015074Y-90900791D01*
X141007908Y-90954345D01*
X141005520Y-91010660D01*
X140816680Y-91010660D01*
X140812707Y-90962270D01*
X140814130Y-90929840D01*
X140823468Y-90876745D01*
X140841522Y-90828304D01*
X140868292Y-90784518D01*
X140903778Y-90745387D01*
X140933474Y-90721080D01*
X140979200Y-90693973D01*
X141029772Y-90674940D01*
X141085188Y-90663981D01*
X141136543Y-90661015D01*
X141170811Y-90662411D01*
G37*
G36*
X140466288Y-90770450D02*
G01*
X140428403Y-90733076D01*
X140387124Y-90701487D01*
X140364795Y-90688312D01*
X140316256Y-90668719D01*
X140266954Y-90661122D01*
X140260323Y-90661015D01*
X140209107Y-90667748D01*
X140180915Y-90676649D01*
X140137054Y-90702518D01*
X140098585Y-90738977D01*
X140089347Y-90749357D01*
X140048008Y-90717113D01*
X140002574Y-90690542D01*
X139986117Y-90683101D01*
X139935732Y-90667248D01*
X139884147Y-90661102D01*
X139877178Y-90661015D01*
X139827342Y-90665157D01*
X139777414Y-90681468D01*
X139736725Y-90713375D01*
X139709960Y-90760543D01*
X139697092Y-90810779D01*
X139692845Y-90864487D01*
X139692802Y-90870951D01*
X139696277Y-91110416D01*
X139695511Y-91160575D01*
X139691277Y-91211601D01*
X139686599Y-91227047D01*
X139641298Y-91247350D01*
X139633494Y-91248636D01*
X139609176Y-91263525D01*
X139637713Y-91280400D01*
X139651858Y-91280400D01*
X139705096Y-91280400D01*
X139758103Y-91280400D01*
X139779407Y-91280400D01*
X139829622Y-91280400D01*
X139870230Y-91280400D01*
X139907701Y-91280400D01*
X139942690Y-91264766D01*
X139919612Y-91248636D01*
X139871563Y-91235497D01*
X139870975Y-91234988D01*
X139858327Y-91184125D01*
X139857078Y-91170965D01*
X139854054Y-91118376D01*
X139852702Y-91064874D01*
X139852193Y-91014929D01*
X139852115Y-90983115D01*
X139852518Y-90927328D01*
X139853936Y-90875949D01*
X139857414Y-90826193D01*
X139858567Y-90817102D01*
X139872623Y-90769197D01*
X139887104Y-90748364D01*
X139932742Y-90725123D01*
X139942938Y-90724542D01*
X139992386Y-90737484D01*
X140003983Y-90744146D01*
X140043436Y-90776599D01*
X140067758Y-90803702D01*
X140076170Y-90856211D01*
X140081736Y-90908590D01*
X140085784Y-90967774D01*
X140087998Y-91022292D01*
X140089158Y-91081535D01*
X140089347Y-91119350D01*
X140087881Y-91171280D01*
X140079157Y-91221216D01*
X140076940Y-91225310D01*
X140030284Y-91247186D01*
X140019617Y-91248636D01*
X139993065Y-91263029D01*
X140026565Y-91280400D01*
X140077334Y-91280400D01*
X140080166Y-91280400D01*
X140131598Y-91280400D01*
X140170244Y-91280400D01*
X140223187Y-91280400D01*
X140273833Y-91280400D01*
X140277694Y-91280400D01*
X140302012Y-91280400D01*
X140332783Y-91264518D01*
X140302757Y-91248636D01*
X140259672Y-91222348D01*
X140252630Y-91203721D01*
X140246697Y-91149594D01*
X140244498Y-91099035D01*
X140243226Y-91045561D01*
X140242575Y-90995357D01*
X140242249Y-90938553D01*
X140242208Y-90907677D01*
X140243641Y-90854175D01*
X140249284Y-90802698D01*
X140260323Y-90763998D01*
X140296139Y-90728395D01*
X140319631Y-90724542D01*
X140368823Y-90735290D01*
X140409570Y-90767534D01*
X140432043Y-90800972D01*
X140450065Y-90848043D01*
X140461611Y-90903963D01*
X140468369Y-90962839D01*
X140471788Y-91019619D01*
X140473076Y-91070095D01*
X140473236Y-91097016D01*
X140472216Y-91148743D01*
X140467137Y-91201074D01*
X140460333Y-91223325D01*
X140416073Y-91248276D01*
X140411695Y-91248636D01*
X140385143Y-91262781D01*
X140413680Y-91280400D01*
X140433284Y-91280400D01*
X140486416Y-91280400D01*
X140536395Y-91280400D01*
X140557608Y-91280400D01*
X140611243Y-91280400D01*
X140661204Y-91280400D01*
X140678457Y-91280400D01*
X140703520Y-91280400D01*
X140726598Y-91264518D01*
X140700791Y-91248636D01*
X140652099Y-91236558D01*
X140649175Y-91233499D01*
X140636847Y-91184862D01*
X140634534Y-91161039D01*
X140631709Y-91107720D01*
X140630391Y-91053398D01*
X140629746Y-90995129D01*
X140629571Y-90937207D01*
X140629726Y-90885662D01*
X140630378Y-90832860D01*
X140632407Y-90780843D01*
X140632797Y-90776405D01*
X140652053Y-90730121D01*
X140655627Y-90726775D01*
X140704041Y-90708946D01*
X140710469Y-90708660D01*
X140739006Y-90693027D01*
X140710469Y-90676897D01*
X140657644Y-90673093D01*
X140605528Y-90668393D01*
X140601034Y-90667963D01*
X140549260Y-90663729D01*
X140499393Y-90661348D01*
X140475222Y-90661015D01*
X140467321Y-90712013D01*
X140467033Y-90728760D01*
X140466288Y-90770450D01*
G37*
G36*
X139579149Y-90678386D02*
G01*
X139552597Y-90695756D01*
X139546249Y-90696556D01*
X139501975Y-90719579D01*
X139488932Y-90757502D01*
X139485845Y-90808169D01*
X139481626Y-91043664D01*
X139481676Y-91096209D01*
X139481824Y-91145960D01*
X139482232Y-91215349D01*
X139482862Y-91278452D01*
X139483715Y-91335270D01*
X139484790Y-91385802D01*
X139486570Y-91443400D01*
X139489351Y-91499683D01*
X139494282Y-91549147D01*
X139497058Y-91562463D01*
X139521892Y-91608862D01*
X139570216Y-91629796D01*
X139609176Y-91646422D01*
X139572946Y-91661559D01*
X139536716Y-91661559D01*
X139488628Y-91661559D01*
X139436711Y-91661559D01*
X139400984Y-91661559D01*
X139348157Y-91661559D01*
X139294521Y-91661559D01*
X139287348Y-91661559D01*
X139236453Y-91661559D01*
X139203697Y-91645677D01*
X139228016Y-91629796D01*
X139276762Y-91618858D01*
X139310402Y-91579669D01*
X139311349Y-91576475D01*
X139318516Y-91526831D01*
X139321941Y-91472840D01*
X139323970Y-91415080D01*
X139325051Y-91360514D01*
X139325652Y-91298519D01*
X139325787Y-91247147D01*
X139294813Y-91265060D01*
X139248364Y-91283874D01*
X139215613Y-91291907D01*
X139165978Y-91296281D01*
X139143922Y-91295446D01*
X139094611Y-91287000D01*
X139041949Y-91266209D01*
X138999101Y-91238272D01*
X138959269Y-91201239D01*
X138938738Y-91176936D01*
X138909397Y-91131793D01*
X138888438Y-91083325D01*
X138875863Y-91031532D01*
X138873540Y-91000982D01*
X139068455Y-91000982D01*
X139068975Y-91030915D01*
X139073131Y-91085012D01*
X139082776Y-91136676D01*
X139101707Y-91186599D01*
X139110478Y-91201139D01*
X139149358Y-91236762D01*
X139200968Y-91248636D01*
X139209018Y-91248458D01*
X139257608Y-91237221D01*
X139296506Y-91202976D01*
X139305156Y-91186752D01*
X139319025Y-91137837D01*
X139325095Y-91084293D01*
X139326532Y-91034234D01*
X139326411Y-91015152D01*
X139324593Y-90961557D01*
X139319716Y-90905954D01*
X139310508Y-90851539D01*
X139295513Y-90801965D01*
X139285075Y-90779660D01*
X139250959Y-90739361D01*
X139202953Y-90724542D01*
X139177869Y-90728021D01*
X139134185Y-90755855D01*
X139105926Y-90797250D01*
X139089532Y-90837156D01*
X139076689Y-90890837D01*
X139070248Y-90946365D01*
X139068455Y-91000982D01*
X138873540Y-91000982D01*
X138871672Y-90976415D01*
X138873052Y-90942635D01*
X138882110Y-90887253D01*
X138899624Y-90836621D01*
X138925591Y-90790738D01*
X138960013Y-90749605D01*
X138999017Y-90715086D01*
X139044727Y-90686018D01*
X139091647Y-90668023D01*
X139145878Y-90661015D01*
X139186448Y-90665100D01*
X139235957Y-90682356D01*
X139279712Y-90710860D01*
X139316110Y-90746131D01*
X139314621Y-90726527D01*
X139316110Y-90661015D01*
X139336753Y-90661015D01*
X139393017Y-90661015D01*
X139443699Y-90661015D01*
X139495734Y-90661015D01*
X139549123Y-90661015D01*
X139579149Y-90678386D01*
G37*
G36*
X138507262Y-90661318D02*
G01*
X138560483Y-90665866D01*
X138614368Y-90677319D01*
X138662729Y-90695508D01*
X138687522Y-90709691D01*
X138723644Y-90748979D01*
X138735685Y-90799980D01*
X138735607Y-90803985D01*
X138715585Y-90850106D01*
X138714305Y-90851175D01*
X138666699Y-90867477D01*
X138638757Y-90863570D01*
X138598262Y-90832317D01*
X138580839Y-90785835D01*
X138578265Y-90773657D01*
X138558505Y-90726527D01*
X138556596Y-90724364D01*
X138508875Y-90708660D01*
X138489737Y-90710366D01*
X138445349Y-90735957D01*
X138431286Y-90758977D01*
X138422271Y-90808665D01*
X138423232Y-90828439D01*
X138437656Y-90876410D01*
X138440606Y-90881189D01*
X138475871Y-90916362D01*
X138518346Y-90936157D01*
X138565454Y-90953833D01*
X138584608Y-90960964D01*
X138633695Y-90980820D01*
X138679603Y-91003711D01*
X138705786Y-91023272D01*
X138737422Y-91062027D01*
X138753368Y-91096978D01*
X138760748Y-91147639D01*
X138760408Y-91159107D01*
X138749823Y-91208301D01*
X138722037Y-91253103D01*
X138709146Y-91265542D01*
X138664607Y-91289155D01*
X138612106Y-91296281D01*
X138573165Y-91293241D01*
X138523516Y-91280400D01*
X138479780Y-91260796D01*
X138436415Y-91233251D01*
X138436184Y-91235387D01*
X138415074Y-91281888D01*
X138399214Y-91290083D01*
X138349066Y-91296281D01*
X138343004Y-91296226D01*
X138291296Y-91291806D01*
X138241369Y-91282137D01*
X138217496Y-91276294D01*
X138169653Y-91259307D01*
X138157742Y-91236973D01*
X138186279Y-91216873D01*
X138205139Y-91218362D01*
X138216306Y-91219106D01*
X138219825Y-91218964D01*
X138253776Y-91182628D01*
X138255328Y-91174979D01*
X138260290Y-91123134D01*
X138262046Y-91069440D01*
X138262205Y-91049619D01*
X138423015Y-91049619D01*
X138424689Y-91091392D01*
X138434086Y-91145087D01*
X138458004Y-91192306D01*
X138484863Y-91216954D01*
X138533194Y-91232755D01*
X138540553Y-91232324D01*
X138583817Y-91205210D01*
X138597896Y-91176216D01*
X138604413Y-91124561D01*
X138602499Y-91095665D01*
X138584809Y-91048130D01*
X138550786Y-91016942D01*
X138507386Y-90989319D01*
X138466337Y-90964019D01*
X138427234Y-90931003D01*
X138426480Y-90946804D01*
X138424350Y-90996455D01*
X138423015Y-91049619D01*
X138262205Y-91049619D01*
X138262462Y-91017608D01*
X138261221Y-90854821D01*
X138261236Y-90850299D01*
X138264166Y-90798394D01*
X138276606Y-90747620D01*
X138303895Y-90713352D01*
X138346585Y-90687071D01*
X138388100Y-90672237D01*
X138437239Y-90663560D01*
X138488527Y-90661015D01*
X138507262Y-90661318D01*
G37*
G36*
X138077093Y-90982867D02*
G01*
X138072794Y-90926613D01*
X138059899Y-90874016D01*
X138038406Y-90825076D01*
X138008316Y-90779794D01*
X137987262Y-90755561D01*
X137945644Y-90718721D01*
X137899609Y-90690930D01*
X137849156Y-90672187D01*
X137794286Y-90662493D01*
X137760949Y-90661015D01*
X137707199Y-90665280D01*
X137657617Y-90678076D01*
X137612204Y-90699401D01*
X137603621Y-90704690D01*
X137564910Y-90736451D01*
X137538882Y-90782388D01*
X137535628Y-90807672D01*
X137550291Y-90856536D01*
X137556225Y-90863258D01*
X137602319Y-90883182D01*
X137608088Y-90883358D01*
X137656863Y-90864329D01*
X137685047Y-90821703D01*
X137693948Y-90796754D01*
X137711500Y-90749886D01*
X137724719Y-90729009D01*
X137770811Y-90708740D01*
X137774845Y-90708660D01*
X137825096Y-90723177D01*
X137859360Y-90763155D01*
X137861202Y-90766727D01*
X137878743Y-90818292D01*
X137886586Y-90867729D01*
X137889734Y-90919418D01*
X137889987Y-90940681D01*
X137887719Y-90996319D01*
X137880915Y-91046852D01*
X137867585Y-91098351D01*
X137845507Y-91148316D01*
X137842591Y-91153346D01*
X137810229Y-91195222D01*
X137768306Y-91223371D01*
X137719756Y-91232755D01*
X137667915Y-91223215D01*
X137625458Y-91194596D01*
X137595594Y-91153139D01*
X137578062Y-91112153D01*
X137546795Y-91073938D01*
X137527191Y-91094783D01*
X137537389Y-91145617D01*
X137561948Y-91191189D01*
X137588981Y-91225806D01*
X137628566Y-91259874D01*
X137677809Y-91282792D01*
X137729688Y-91293804D01*
X137773605Y-91296281D01*
X137830061Y-91292042D01*
X137881743Y-91279325D01*
X137928652Y-91258129D01*
X137970788Y-91228455D01*
X137992722Y-91207691D01*
X138025597Y-91166653D01*
X138050397Y-91121056D01*
X138067123Y-91070898D01*
X138075775Y-91016181D01*
X138077093Y-90982867D01*
G37*
G36*
X137156454Y-90679130D02*
G01*
X137106516Y-90677527D01*
X137052276Y-90676951D01*
X137025927Y-90676897D01*
X136975802Y-90680615D01*
X136960167Y-90684093D01*
X136972322Y-90732463D01*
X136978778Y-90742409D01*
X137032878Y-90748185D01*
X137089937Y-90752163D01*
X137146003Y-90755676D01*
X137156454Y-90756305D01*
X137163898Y-91064012D01*
X137162663Y-91114685D01*
X137157446Y-91160295D01*
X137133950Y-91205088D01*
X137126924Y-91211910D01*
X137081371Y-91231757D01*
X137065631Y-91232755D01*
X137014740Y-91221898D01*
X136974063Y-91204962D01*
X136958678Y-91200991D01*
X136945526Y-91213895D01*
X136980058Y-91250918D01*
X137002104Y-91264270D01*
X137051268Y-91284996D01*
X137102322Y-91294749D01*
X137134617Y-91296281D01*
X137187135Y-91292016D01*
X137236173Y-91277472D01*
X137276062Y-91252607D01*
X137305308Y-91210886D01*
X137320206Y-91159608D01*
X137326176Y-91109059D01*
X137327430Y-91067238D01*
X137327229Y-91008825D01*
X137326627Y-90950464D01*
X137325624Y-90892155D01*
X137324219Y-90833899D01*
X137322413Y-90775695D01*
X137321722Y-90756305D01*
X137374390Y-90755640D01*
X137419494Y-90752831D01*
X137448031Y-90731490D01*
X137415275Y-90708164D01*
X137364743Y-90692579D01*
X137318799Y-90669213D01*
X137299140Y-90655804D01*
X137262744Y-90620861D01*
X137233120Y-90577795D01*
X137211543Y-90534707D01*
X137191691Y-90493514D01*
X137176554Y-90486317D01*
X137156454Y-90519321D01*
X137156454Y-90679130D01*
G37*
G36*
X144851857Y-92095178D02*
G01*
X144833742Y-92070114D01*
X144810167Y-92050262D01*
X144787089Y-92079792D01*
X144762522Y-92263920D01*
X144759793Y-92286254D01*
X144778652Y-92304369D01*
X144799000Y-92297917D01*
X144822575Y-92255731D01*
X144850608Y-92211878D01*
X144885992Y-92174745D01*
X144921835Y-92146545D01*
X144965024Y-92120896D01*
X145012700Y-92103654D01*
X145060551Y-92097907D01*
X145111867Y-92104378D01*
X145158795Y-92125820D01*
X145173460Y-92137115D01*
X145205699Y-92178111D01*
X145218200Y-92228049D01*
X145218375Y-92235383D01*
X145205106Y-92285598D01*
X145176438Y-92320747D01*
X145134097Y-92349257D01*
X145088051Y-92370685D01*
X145036839Y-92389766D01*
X145015140Y-92396929D01*
X144959691Y-92416238D01*
X144910131Y-92436323D01*
X144858433Y-92461448D01*
X144815214Y-92487690D01*
X144775509Y-92519717D01*
X144762026Y-92533908D01*
X144730238Y-92578235D01*
X144708853Y-92625231D01*
X144697872Y-92674897D01*
X144696266Y-92703643D01*
X144700074Y-92754949D01*
X144713238Y-92806247D01*
X144735804Y-92851534D01*
X144744407Y-92863949D01*
X144779733Y-92905221D01*
X144819516Y-92939984D01*
X144859549Y-92965939D01*
X144910069Y-92987131D01*
X144963732Y-92998763D01*
X145018327Y-93003016D01*
X145031270Y-93003161D01*
X145083972Y-93000074D01*
X145134355Y-92991678D01*
X145154104Y-92987031D01*
X145202307Y-92972480D01*
X145251627Y-92953391D01*
X145285128Y-92938146D01*
X145308950Y-92976857D01*
X145336991Y-93003161D01*
X145357836Y-92965442D01*
X145378184Y-92711088D01*
X145379673Y-92689995D01*
X145358580Y-92669647D01*
X145329299Y-92705380D01*
X145306050Y-92756747D01*
X145278986Y-92803648D01*
X145248107Y-92846082D01*
X145213412Y-92884049D01*
X145170610Y-92918596D01*
X145123999Y-92941837D01*
X145073581Y-92953771D01*
X145043925Y-92955516D01*
X144991038Y-92949681D01*
X144941904Y-92930005D01*
X144910916Y-92906134D01*
X144880068Y-92867213D01*
X144862073Y-92817042D01*
X144860294Y-92793970D01*
X144869271Y-92742958D01*
X144896202Y-92699355D01*
X144907194Y-92688258D01*
X144948123Y-92659213D01*
X144994784Y-92636146D01*
X145046213Y-92616170D01*
X145075440Y-92606368D01*
X145124124Y-92589719D01*
X145172695Y-92571127D01*
X145218329Y-92550767D01*
X145250883Y-92533164D01*
X145290816Y-92503258D01*
X145324258Y-92466023D01*
X145342947Y-92437129D01*
X145363966Y-92391101D01*
X145375789Y-92340686D01*
X145377440Y-92313302D01*
X145372151Y-92260524D01*
X145356285Y-92211870D01*
X145329841Y-92167343D01*
X145292820Y-92126941D01*
X145252770Y-92097063D01*
X145206877Y-92074524D01*
X145155142Y-92059323D01*
X145097565Y-92051460D01*
X145062040Y-92050262D01*
X145007607Y-92054649D01*
X144956697Y-92064474D01*
X144906782Y-92077676D01*
X144851857Y-92095178D01*
G37*
G36*
X144364240Y-92034381D02*
G01*
X144364240Y-92669647D01*
X144323284Y-92639996D01*
X144283449Y-92605532D01*
X144243163Y-92566930D01*
X144238428Y-92562197D01*
X144201482Y-92522562D01*
X144171029Y-92480157D01*
X144161998Y-92451770D01*
X144201983Y-92419818D01*
X144227509Y-92415540D01*
X144261010Y-92397922D01*
X144233217Y-92383777D01*
X144196242Y-92383777D01*
X144146188Y-92383777D01*
X144094997Y-92383777D01*
X144044402Y-92383777D01*
X144032215Y-92383777D01*
X143982146Y-92383777D01*
X143971418Y-92383777D01*
X143946355Y-92402885D01*
X143988788Y-92425714D01*
X144036515Y-92441143D01*
X144057278Y-92454748D01*
X144095431Y-92486697D01*
X144134379Y-92523163D01*
X144144379Y-92532916D01*
X144181223Y-92568143D01*
X144192520Y-92577831D01*
X144149218Y-92608105D01*
X144113567Y-92642738D01*
X144108645Y-92648306D01*
X144081548Y-92690498D01*
X144059422Y-92741595D01*
X144042240Y-92791650D01*
X144029981Y-92832930D01*
X144015976Y-92881835D01*
X144003926Y-92914323D01*
X143971418Y-92944101D01*
X143921630Y-92954888D01*
X143906650Y-92955516D01*
X143886302Y-92971894D01*
X143909380Y-92987280D01*
X143922532Y-92987280D01*
X143972239Y-92987280D01*
X144022356Y-92987280D01*
X144041893Y-92987280D01*
X144093940Y-92987280D01*
X144141649Y-92987280D01*
X144170993Y-92943481D01*
X144186568Y-92895487D01*
X144190535Y-92876604D01*
X144201529Y-92824212D01*
X144217153Y-92775211D01*
X144236939Y-92740618D01*
X144276852Y-92707056D01*
X144319077Y-92686273D01*
X144355243Y-92721103D01*
X144364240Y-92728955D01*
X144363502Y-92782543D01*
X144361897Y-92836214D01*
X144358536Y-92889725D01*
X144350096Y-92932686D01*
X144304091Y-92955020D01*
X144299473Y-92955516D01*
X144266717Y-92972887D01*
X144296743Y-92987280D01*
X144321062Y-92987280D01*
X144370696Y-92987280D01*
X144421200Y-92987280D01*
X144425037Y-92987280D01*
X144478080Y-92987280D01*
X144527876Y-92987280D01*
X144546383Y-92987280D01*
X144583357Y-92987280D01*
X144616858Y-92971646D01*
X144589561Y-92955516D01*
X144541902Y-92937817D01*
X144529757Y-92914819D01*
X144526544Y-92863116D01*
X144525380Y-92807360D01*
X144524915Y-92753573D01*
X144524794Y-92700914D01*
X144529757Y-92213297D01*
X144532702Y-92161878D01*
X144545142Y-92123963D01*
X144590513Y-92099233D01*
X144597254Y-92097907D01*
X144628025Y-92081529D01*
X144595269Y-92066144D01*
X144545283Y-92061486D01*
X144494988Y-92055545D01*
X144444384Y-92048322D01*
X144393472Y-92039817D01*
X144364240Y-92034381D01*
G37*
G36*
X143473379Y-92834170D02*
G01*
X143416056Y-92673617D01*
X143400202Y-92624140D01*
X143385851Y-92574488D01*
X143373960Y-92523422D01*
X143369404Y-92483534D01*
X143387893Y-92435053D01*
X143434916Y-92415540D01*
X143464198Y-92399410D01*
X143435660Y-92383777D01*
X143395212Y-92383777D01*
X143345210Y-92383777D01*
X143322504Y-92383777D01*
X143271807Y-92383777D01*
X143255007Y-92383777D01*
X143216543Y-92383777D01*
X143183043Y-92401147D01*
X143204632Y-92415540D01*
X143251470Y-92437502D01*
X143284288Y-92474600D01*
X143305992Y-92521409D01*
X143324365Y-92567781D01*
X143342741Y-92616900D01*
X143363904Y-92675542D01*
X143382841Y-92729313D01*
X143392978Y-92758485D01*
X143412741Y-92814972D01*
X143431457Y-92867835D01*
X143449126Y-92917072D01*
X143471057Y-92977084D01*
X143491126Y-93030652D01*
X143509334Y-93077775D01*
X143529477Y-93127617D01*
X143549810Y-93174137D01*
X143574671Y-93222852D01*
X143604235Y-93268647D01*
X143639063Y-93308341D01*
X143657259Y-93323772D01*
X143702519Y-93350991D01*
X143750083Y-93365647D01*
X143783071Y-93368439D01*
X143833645Y-93361896D01*
X143877120Y-93338661D01*
X143905299Y-93297263D01*
X143910869Y-93261982D01*
X143894979Y-93214916D01*
X143886798Y-93204660D01*
X143842317Y-93179534D01*
X143823768Y-93177859D01*
X143774873Y-93194108D01*
X143747637Y-93238593D01*
X143744112Y-93251808D01*
X143716319Y-93289031D01*
X143670125Y-93267548D01*
X143637633Y-93229356D01*
X143614081Y-93191259D01*
X143590088Y-93145786D01*
X143569736Y-93098540D01*
X143559239Y-93050310D01*
X143571565Y-93001220D01*
X143590332Y-92950620D01*
X143602914Y-92919286D01*
X143623458Y-92869478D01*
X143643355Y-92821984D01*
X143665363Y-92770059D01*
X143685315Y-92723402D01*
X143706734Y-92673668D01*
X143720289Y-92642350D01*
X143741947Y-92592768D01*
X143764513Y-92542611D01*
X143786121Y-92496972D01*
X143809808Y-92453277D01*
X143814090Y-92447304D01*
X143854205Y-92417448D01*
X143860743Y-92415540D01*
X143888039Y-92399907D01*
X143852554Y-92383777D01*
X143801838Y-92383777D01*
X143795975Y-92383777D01*
X143745065Y-92383777D01*
X143720537Y-92383777D01*
X143670391Y-92383777D01*
X143616872Y-92383777D01*
X143587032Y-92383777D01*
X143557254Y-92383777D01*
X143529213Y-92397673D01*
X143562713Y-92415540D01*
X143597703Y-92436633D01*
X143610110Y-92468148D01*
X143596988Y-92518152D01*
X143579540Y-92569488D01*
X143572888Y-92588253D01*
X143555319Y-92635644D01*
X143535398Y-92686621D01*
X143516453Y-92733169D01*
X143495780Y-92782353D01*
X143473379Y-92834170D01*
G37*
G36*
X142316730Y-92051530D02*
G01*
X142377344Y-92059273D01*
X142435183Y-92074057D01*
X142490248Y-92095880D01*
X142542537Y-92124744D01*
X142592053Y-92160647D01*
X142629667Y-92194438D01*
X142655920Y-92221990D01*
X142693938Y-92270217D01*
X142724782Y-92321328D01*
X142748453Y-92375322D01*
X142764952Y-92432201D01*
X142774277Y-92491963D01*
X142776572Y-92541849D01*
X142775591Y-92575183D01*
X142769153Y-92631520D01*
X142756707Y-92685316D01*
X142738253Y-92736571D01*
X142713790Y-92785285D01*
X142697474Y-92811500D01*
X142665936Y-92853364D01*
X142630597Y-92890122D01*
X142591459Y-92921774D01*
X142548521Y-92948320D01*
X142542097Y-92951694D01*
X142496906Y-92972313D01*
X142444794Y-92989451D01*
X142392186Y-92999734D01*
X142339082Y-93003161D01*
X142333248Y-93003101D01*
X142281896Y-92998293D01*
X142230144Y-92987776D01*
X142262435Y-93004309D01*
X142310421Y-93027108D01*
X142356711Y-93048319D01*
X142402030Y-93068687D01*
X142453480Y-93091503D01*
X142486354Y-93105584D01*
X142531688Y-93126587D01*
X142584711Y-93154366D01*
X142629250Y-93181890D01*
X142672994Y-93215934D01*
X142707989Y-93256259D01*
X142724957Y-93309131D01*
X142705105Y-93351068D01*
X142703855Y-93352137D01*
X142655971Y-93368439D01*
X142651671Y-93368370D01*
X142604852Y-93350820D01*
X142595434Y-93335071D01*
X142586737Y-93284812D01*
X142585000Y-93262106D01*
X142567877Y-93214834D01*
X142561988Y-93208757D01*
X142514277Y-93193741D01*
X142495854Y-93195607D01*
X142449013Y-93212849D01*
X142405634Y-93237194D01*
X142361679Y-93263657D01*
X142318734Y-93290272D01*
X142279517Y-93312790D01*
X142233128Y-93334775D01*
X142179934Y-93353477D01*
X142127738Y-93364699D01*
X142076539Y-93368439D01*
X142061437Y-93368103D01*
X142011102Y-93361628D01*
X141958374Y-93344137D01*
X141910764Y-93315883D01*
X141873303Y-93282331D01*
X141849855Y-93256979D01*
X141817663Y-93219193D01*
X141791910Y-93173889D01*
X141817718Y-93146096D01*
X141844766Y-93163963D01*
X141880331Y-93204791D01*
X141924939Y-93232237D01*
X141975293Y-93241386D01*
X142018471Y-93235927D01*
X142050977Y-93220755D01*
X142096887Y-93196471D01*
X142138918Y-93174044D01*
X142184040Y-93151681D01*
X142233370Y-93130959D01*
X142274293Y-93119593D01*
X142325930Y-93114333D01*
X142326987Y-93114336D01*
X142376801Y-93118055D01*
X142176295Y-93021028D01*
X142148022Y-93006750D01*
X142099634Y-92979827D01*
X142054465Y-92951334D01*
X142012516Y-92921271D01*
X142003612Y-92914349D01*
X141961858Y-92878663D01*
X141924708Y-92841184D01*
X141892163Y-92801911D01*
X141864091Y-92760796D01*
X141838585Y-92713387D01*
X141818710Y-92663691D01*
X141805624Y-92616867D01*
X141796827Y-92563961D01*
X141794805Y-92526464D01*
X142031127Y-92526464D01*
X142031201Y-92540456D01*
X142032975Y-92594002D01*
X142038518Y-92655483D01*
X142047757Y-92710905D01*
X142060692Y-92760268D01*
X142081092Y-92811507D01*
X142106813Y-92854023D01*
X142111570Y-92860267D01*
X142146347Y-92898426D01*
X142189261Y-92930143D01*
X142235557Y-92949173D01*
X142285234Y-92955516D01*
X142292430Y-92955406D01*
X142346690Y-92946624D01*
X142395056Y-92923790D01*
X142437529Y-92886905D01*
X142469858Y-92843104D01*
X142489660Y-92805668D01*
X142508993Y-92754859D01*
X142523492Y-92697629D01*
X142531883Y-92645033D01*
X142536917Y-92587978D01*
X142538595Y-92526464D01*
X142538525Y-92513274D01*
X142536845Y-92462562D01*
X142531592Y-92403774D01*
X142522838Y-92350100D01*
X142510582Y-92301538D01*
X142491252Y-92250014D01*
X142466880Y-92205853D01*
X142462345Y-92199212D01*
X142428541Y-92158627D01*
X142385486Y-92124894D01*
X142337717Y-92104654D01*
X142285234Y-92097907D01*
X142278370Y-92098012D01*
X142226180Y-92106426D01*
X142178830Y-92128302D01*
X142136319Y-92163641D01*
X142103091Y-92205605D01*
X142098663Y-92212439D01*
X142075050Y-92257769D01*
X142056497Y-92310515D01*
X142044901Y-92360134D01*
X142036820Y-92414903D01*
X142032252Y-92474821D01*
X142031127Y-92526464D01*
X141794805Y-92526464D01*
X141793895Y-92509589D01*
X141794401Y-92486164D01*
X141800094Y-92429451D01*
X141812111Y-92375379D01*
X141830453Y-92323948D01*
X141855120Y-92275159D01*
X141886113Y-92229011D01*
X141923430Y-92185504D01*
X141966201Y-92146543D01*
X142013709Y-92114185D01*
X142065955Y-92088431D01*
X142122939Y-92069281D01*
X142171937Y-92058715D01*
X142223967Y-92052375D01*
X142279030Y-92050262D01*
X142316730Y-92051530D01*
G37*
G36*
X141475518Y-92383777D02*
G01*
X141473686Y-92435050D01*
X141472617Y-92490105D01*
X141472128Y-92546129D01*
X141472044Y-92584531D01*
X141471959Y-92641398D01*
X141471704Y-92691493D01*
X141471175Y-92742665D01*
X141470089Y-92795723D01*
X141468569Y-92831441D01*
X141459065Y-92881161D01*
X141441025Y-92912586D01*
X141397487Y-92938684D01*
X141386183Y-92939635D01*
X141335898Y-92926146D01*
X141312731Y-92911097D01*
X141276858Y-92873217D01*
X141257641Y-92836156D01*
X141245428Y-92784512D01*
X141240891Y-92733840D01*
X141239774Y-92685032D01*
X141238286Y-92522741D01*
X141239758Y-92471906D01*
X141244986Y-92437626D01*
X141289901Y-92415540D01*
X141331838Y-92398170D01*
X141321664Y-92386258D01*
X141270978Y-92383779D01*
X141268312Y-92383777D01*
X141214775Y-92383777D01*
X141163318Y-92383777D01*
X141108584Y-92383777D01*
X141087410Y-92383777D01*
X141085747Y-92439657D01*
X141085203Y-92493874D01*
X141084896Y-92552437D01*
X141084747Y-92608046D01*
X141084683Y-92671441D01*
X141084680Y-92688506D01*
X141084614Y-92741052D01*
X141084347Y-92797836D01*
X141083753Y-92852925D01*
X141082501Y-92904230D01*
X141080462Y-92931694D01*
X141035050Y-92955516D01*
X141010731Y-92971398D01*
X141038772Y-92987280D01*
X141056143Y-92987280D01*
X141102051Y-92987280D01*
X141152069Y-92987280D01*
X141202238Y-92987280D01*
X141204785Y-92987280D01*
X141223645Y-92987280D01*
X141240023Y-92983061D01*
X141243249Y-92957998D01*
X141240457Y-92906724D01*
X141238286Y-92889508D01*
X141275124Y-92928150D01*
X141316687Y-92961033D01*
X141339779Y-92974872D01*
X141387508Y-92994210D01*
X141437326Y-93002719D01*
X141451943Y-93003161D01*
X141503201Y-92998139D01*
X141553242Y-92978853D01*
X141590773Y-92945102D01*
X141615793Y-92896887D01*
X141627087Y-92845659D01*
X141629867Y-92797444D01*
X141629867Y-92575101D01*
X141630379Y-92523594D01*
X141632754Y-92472171D01*
X141638056Y-92440355D01*
X141679994Y-92415540D01*
X141710765Y-92399907D01*
X141683468Y-92383777D01*
X141629057Y-92383777D01*
X141574479Y-92383777D01*
X141519894Y-92383777D01*
X141475518Y-92383777D01*
G37*
G36*
X140659722Y-92368198D02*
G01*
X140712943Y-92372746D01*
X140766828Y-92384199D01*
X140815189Y-92402388D01*
X140839982Y-92416571D01*
X140876104Y-92455859D01*
X140888145Y-92506860D01*
X140888066Y-92510865D01*
X140868045Y-92556986D01*
X140866765Y-92558055D01*
X140819159Y-92574357D01*
X140791217Y-92570450D01*
X140750722Y-92539197D01*
X140733299Y-92492715D01*
X140730725Y-92480537D01*
X140710965Y-92433407D01*
X140709056Y-92431244D01*
X140661335Y-92415540D01*
X140642197Y-92417246D01*
X140597809Y-92442837D01*
X140583745Y-92465857D01*
X140574731Y-92515545D01*
X140575692Y-92535319D01*
X140590116Y-92583290D01*
X140593066Y-92588069D01*
X140628331Y-92623242D01*
X140670806Y-92643037D01*
X140717913Y-92660713D01*
X140737068Y-92667844D01*
X140786155Y-92687700D01*
X140832063Y-92710591D01*
X140858245Y-92730152D01*
X140889882Y-92768907D01*
X140905828Y-92803858D01*
X140913208Y-92854519D01*
X140912868Y-92865987D01*
X140902283Y-92915181D01*
X140874497Y-92959983D01*
X140861606Y-92972422D01*
X140817066Y-92996035D01*
X140764566Y-93003161D01*
X140725625Y-93000121D01*
X140675976Y-92987280D01*
X140632239Y-92967676D01*
X140588875Y-92940131D01*
X140588644Y-92942267D01*
X140567534Y-92988768D01*
X140551673Y-92996963D01*
X140501526Y-93003161D01*
X140495464Y-93003106D01*
X140443755Y-92998686D01*
X140393829Y-92989017D01*
X140369956Y-92983174D01*
X140322113Y-92966187D01*
X140310202Y-92943853D01*
X140338739Y-92923753D01*
X140357599Y-92925242D01*
X140368765Y-92925986D01*
X140372285Y-92925844D01*
X140406236Y-92889508D01*
X140407788Y-92881859D01*
X140412750Y-92830014D01*
X140414506Y-92776320D01*
X140414665Y-92756499D01*
X140575475Y-92756499D01*
X140577149Y-92798272D01*
X140586546Y-92851967D01*
X140610464Y-92899186D01*
X140637323Y-92923834D01*
X140685654Y-92939635D01*
X140693013Y-92939204D01*
X140736277Y-92912090D01*
X140750356Y-92883096D01*
X140756873Y-92831441D01*
X140754959Y-92802545D01*
X140737269Y-92755010D01*
X140703245Y-92723822D01*
X140659846Y-92696199D01*
X140618797Y-92670899D01*
X140579694Y-92637883D01*
X140578940Y-92653684D01*
X140576810Y-92703335D01*
X140575475Y-92756499D01*
X140414665Y-92756499D01*
X140414921Y-92724488D01*
X140413681Y-92561701D01*
X140413696Y-92557179D01*
X140416626Y-92505274D01*
X140429066Y-92454500D01*
X140456355Y-92420232D01*
X140499045Y-92393951D01*
X140540560Y-92379117D01*
X140589699Y-92370440D01*
X140640987Y-92367895D01*
X140659722Y-92368198D01*
G37*
G36*
X139997036Y-92034381D02*
G01*
X139995050Y-92620761D01*
X139994795Y-92671191D01*
X139994095Y-92731463D01*
X139992985Y-92783770D01*
X139991018Y-92837955D01*
X139987186Y-92892908D01*
X139980410Y-92927723D01*
X139936996Y-92954314D01*
X139924576Y-92955516D01*
X139876120Y-92968243D01*
X139875690Y-92970653D01*
X139905716Y-92987280D01*
X139930035Y-92987280D01*
X139980251Y-92987280D01*
X140033312Y-92987280D01*
X140061307Y-92987280D01*
X140115134Y-92987280D01*
X140164997Y-92987280D01*
X140214168Y-92987280D01*
X140239231Y-92987280D01*
X140270746Y-92971894D01*
X140235260Y-92955516D01*
X140186518Y-92945498D01*
X140179178Y-92941372D01*
X140157589Y-92907623D01*
X140154177Y-92857838D01*
X140153619Y-92806378D01*
X140156348Y-92526960D01*
X140154115Y-92305361D01*
X140154744Y-92250284D01*
X140157005Y-92200018D01*
X140163478Y-92149977D01*
X140167267Y-92138108D01*
X140208820Y-92106418D01*
X140243449Y-92097907D01*
X140281913Y-92081529D01*
X140273227Y-92071107D01*
X140230297Y-92066144D01*
X140178471Y-92061776D01*
X140122725Y-92055754D01*
X140072062Y-92048735D01*
X140020385Y-92039491D01*
X139997036Y-92034381D01*
G37*
G36*
X139570961Y-92129671D02*
G01*
X139585036Y-92178197D01*
X139600739Y-92196919D01*
X139644520Y-92221647D01*
X139671462Y-92224960D01*
X139721054Y-92212884D01*
X139742681Y-92196919D01*
X139769103Y-92152978D01*
X139771963Y-92129671D01*
X139758123Y-92080707D01*
X139742681Y-92062174D01*
X139698798Y-92037665D01*
X139671462Y-92034381D01*
X139622419Y-92046350D01*
X139600739Y-92062174D01*
X139573869Y-92106019D01*
X139570961Y-92129671D01*
G37*
G36*
X139561035Y-92367895D02*
G01*
X139559971Y-92418646D01*
X139559267Y-92473980D01*
X139558828Y-92528435D01*
X139558521Y-92590475D01*
X139558372Y-92645569D01*
X139558308Y-92705516D01*
X139558305Y-92721262D01*
X139560290Y-92873378D01*
X139552599Y-92923731D01*
X139545401Y-92934920D01*
X139498374Y-92955196D01*
X139496267Y-92955516D01*
X139457060Y-92972639D01*
X139487830Y-92987280D01*
X139538701Y-92987280D01*
X139591271Y-92987280D01*
X139643548Y-92987280D01*
X139690818Y-92987280D01*
X139742361Y-92987280D01*
X139766255Y-92987280D01*
X139797522Y-92987280D01*
X139828293Y-92972390D01*
X139787845Y-92955516D01*
X139739358Y-92938747D01*
X139728040Y-92918542D01*
X139723006Y-92866040D01*
X139721689Y-92812364D01*
X139721588Y-92789007D01*
X139721778Y-92734636D01*
X139722348Y-92682260D01*
X139723298Y-92631878D01*
X139724849Y-92576742D01*
X139725559Y-92556738D01*
X139728182Y-92504320D01*
X139733844Y-92453971D01*
X139739703Y-92435640D01*
X139786107Y-92416560D01*
X139794048Y-92415540D01*
X139828293Y-92399907D01*
X139793304Y-92384770D01*
X139778663Y-92383777D01*
X139561035Y-92367895D01*
G37*
G36*
X139115356Y-92386010D02*
G01*
X139065418Y-92384407D01*
X139011178Y-92383831D01*
X138984829Y-92383777D01*
X138934705Y-92387495D01*
X138919069Y-92390973D01*
X138931224Y-92439343D01*
X138937680Y-92449289D01*
X138991780Y-92455065D01*
X139048839Y-92459043D01*
X139104906Y-92462556D01*
X139115356Y-92463185D01*
X139122801Y-92770892D01*
X139121566Y-92821565D01*
X139116349Y-92867175D01*
X139092853Y-92911968D01*
X139085826Y-92918790D01*
X139040273Y-92938637D01*
X139024533Y-92939635D01*
X138973643Y-92928778D01*
X138932965Y-92911842D01*
X138917580Y-92907871D01*
X138904428Y-92920775D01*
X138938961Y-92957798D01*
X138961006Y-92971150D01*
X139010171Y-92991876D01*
X139061224Y-93001629D01*
X139093519Y-93003161D01*
X139146038Y-92998896D01*
X139195075Y-92984352D01*
X139234965Y-92959487D01*
X139264210Y-92917766D01*
X139279108Y-92866488D01*
X139285078Y-92815939D01*
X139286332Y-92774118D01*
X139286131Y-92715705D01*
X139285529Y-92657344D01*
X139284526Y-92599035D01*
X139283121Y-92540779D01*
X139281316Y-92482575D01*
X139280624Y-92463185D01*
X139333293Y-92462520D01*
X139378396Y-92459711D01*
X139406933Y-92438370D01*
X139374177Y-92415044D01*
X139323646Y-92399459D01*
X139277701Y-92376093D01*
X139258043Y-92362684D01*
X139221646Y-92327741D01*
X139192022Y-92284675D01*
X139170446Y-92241587D01*
X139150593Y-92200394D01*
X139135456Y-92193197D01*
X139115356Y-92226201D01*
X139115356Y-92386010D01*
G37*
G36*
X138457757Y-92834170D02*
G01*
X138400434Y-92673617D01*
X138384579Y-92624140D01*
X138370228Y-92574488D01*
X138358337Y-92523422D01*
X138353781Y-92483534D01*
X138372271Y-92435053D01*
X138419293Y-92415540D01*
X138448575Y-92399410D01*
X138420038Y-92383777D01*
X138379589Y-92383777D01*
X138329587Y-92383777D01*
X138306881Y-92383777D01*
X138256185Y-92383777D01*
X138239384Y-92383777D01*
X138200921Y-92383777D01*
X138167420Y-92401147D01*
X138189009Y-92415540D01*
X138235848Y-92437502D01*
X138268666Y-92474600D01*
X138290369Y-92521409D01*
X138308742Y-92567781D01*
X138327118Y-92616900D01*
X138348281Y-92675542D01*
X138367218Y-92729313D01*
X138377356Y-92758485D01*
X138397119Y-92814972D01*
X138415835Y-92867835D01*
X138433504Y-92917072D01*
X138455434Y-92977084D01*
X138475503Y-93030652D01*
X138493711Y-93077775D01*
X138513854Y-93127617D01*
X138534187Y-93174137D01*
X138559049Y-93222852D01*
X138588612Y-93268647D01*
X138623441Y-93308341D01*
X138641636Y-93323772D01*
X138686897Y-93350991D01*
X138734460Y-93365647D01*
X138767449Y-93368439D01*
X138818023Y-93361896D01*
X138861498Y-93338661D01*
X138889677Y-93297263D01*
X138895246Y-93261982D01*
X138879356Y-93214916D01*
X138871176Y-93204660D01*
X138826695Y-93179534D01*
X138808145Y-93177859D01*
X138759251Y-93194108D01*
X138732014Y-93238593D01*
X138728489Y-93251808D01*
X138700696Y-93289031D01*
X138654502Y-93267548D01*
X138622010Y-93229356D01*
X138598458Y-93191259D01*
X138574465Y-93145786D01*
X138554114Y-93098540D01*
X138543617Y-93050310D01*
X138555943Y-93001220D01*
X138574709Y-92950620D01*
X138587291Y-92919286D01*
X138607836Y-92869478D01*
X138627732Y-92821984D01*
X138649740Y-92770059D01*
X138669693Y-92723402D01*
X138691112Y-92673668D01*
X138704667Y-92642350D01*
X138726324Y-92592768D01*
X138748890Y-92542611D01*
X138770498Y-92496972D01*
X138794186Y-92453277D01*
X138798468Y-92447304D01*
X138838583Y-92417448D01*
X138845120Y-92415540D01*
X138872416Y-92399907D01*
X138836931Y-92383777D01*
X138786215Y-92383777D01*
X138780353Y-92383777D01*
X138729442Y-92383777D01*
X138704915Y-92383777D01*
X138654768Y-92383777D01*
X138601250Y-92383777D01*
X138571410Y-92383777D01*
X138541632Y-92383777D01*
X138513591Y-92397673D01*
X138547091Y-92415540D01*
X138582080Y-92436633D01*
X138594488Y-92468148D01*
X138581365Y-92518152D01*
X138563917Y-92569488D01*
X138557265Y-92588253D01*
X138539696Y-92635644D01*
X138519776Y-92686621D01*
X138500830Y-92733169D01*
X138480157Y-92782353D01*
X138457757Y-92834170D01*
G37*
G36*
X137430661Y-92066144D02*
G01*
X137408920Y-92113614D01*
X137386180Y-92159387D01*
X137363660Y-92203123D01*
X137339279Y-92250194D01*
X137315022Y-92297607D01*
X137290890Y-92345360D01*
X137266881Y-92393455D01*
X137242175Y-92442340D01*
X137215948Y-92492467D01*
X137191753Y-92537345D01*
X137166395Y-92583174D01*
X137158936Y-92596442D01*
X137132943Y-92642365D01*
X137108391Y-92687512D01*
X137104591Y-92695454D01*
X137083024Y-92647166D01*
X137062122Y-92600071D01*
X137041885Y-92554171D01*
X137012777Y-92487560D01*
X136985164Y-92423636D01*
X136959048Y-92362399D01*
X136934428Y-92303849D01*
X136911304Y-92247986D01*
X136889677Y-92194810D01*
X136869545Y-92144321D01*
X136850910Y-92096519D01*
X136839318Y-92066144D01*
X136787603Y-92066144D01*
X136737149Y-92066144D01*
X136678268Y-92066144D01*
X136621201Y-92066144D01*
X136565948Y-92066144D01*
X136530122Y-92066144D01*
X136510518Y-92066144D01*
X136481980Y-92083018D01*
X136504314Y-92097907D01*
X136556344Y-92105584D01*
X136597552Y-92133947D01*
X136608786Y-92152500D01*
X136621872Y-92201912D01*
X136628148Y-92254698D01*
X136631638Y-92311869D01*
X136633213Y-92367922D01*
X136633601Y-92418270D01*
X136634345Y-92763199D01*
X136632166Y-92817637D01*
X136623585Y-92870525D01*
X136606800Y-92911097D01*
X136567729Y-92944644D01*
X136516970Y-92955516D01*
X136486944Y-92973135D01*
X136499599Y-92988520D01*
X136695638Y-92987280D01*
X136751549Y-92987280D01*
X136802281Y-92987280D01*
X136859355Y-92987280D01*
X136913321Y-92987280D01*
X136942052Y-92987280D01*
X136955204Y-92972142D01*
X136918974Y-92955516D01*
X136871242Y-92940984D01*
X136865622Y-92937401D01*
X136840806Y-92892982D01*
X136833556Y-92840735D01*
X136832369Y-92797940D01*
X136829640Y-92483782D01*
X136829628Y-92426680D01*
X136829593Y-92375976D01*
X136829517Y-92321592D01*
X136829377Y-92269527D01*
X136829070Y-92218419D01*
X136828895Y-92206101D01*
X136852060Y-92259915D01*
X136874097Y-92311239D01*
X136895006Y-92360075D01*
X136914786Y-92406421D01*
X136942341Y-92471272D01*
X136967358Y-92530523D01*
X136989835Y-92584173D01*
X137009774Y-92632222D01*
X137032410Y-92687575D01*
X137054358Y-92742765D01*
X137064142Y-92768411D01*
X137134617Y-92957253D01*
X137158439Y-92987280D01*
X137188466Y-92950305D01*
X137210754Y-92904742D01*
X137237789Y-92850923D01*
X137263434Y-92800426D01*
X137293681Y-92741244D01*
X137316403Y-92696965D01*
X137341169Y-92648825D01*
X137367981Y-92596826D01*
X137396838Y-92540967D01*
X137427741Y-92481248D01*
X137460689Y-92417669D01*
X137495682Y-92350230D01*
X137532720Y-92278932D01*
X137552006Y-92241835D01*
X137553007Y-92299152D01*
X137553686Y-92349263D01*
X137554256Y-92403158D01*
X137554717Y-92460837D01*
X137555070Y-92522301D01*
X137555314Y-92587549D01*
X137555426Y-92638969D01*
X137555477Y-92692517D01*
X137555481Y-92710840D01*
X137554870Y-92765164D01*
X137552614Y-92818377D01*
X137547270Y-92870706D01*
X137538110Y-92907623D01*
X137501741Y-92941532D01*
X137450113Y-92954515D01*
X137440339Y-92955516D01*
X137413786Y-92971894D01*
X137435376Y-92987280D01*
X137452250Y-92987280D01*
X137504172Y-92987280D01*
X137554139Y-92987280D01*
X137572355Y-92987280D01*
X137624241Y-92987280D01*
X137677315Y-92987280D01*
X137722238Y-92987280D01*
X137737127Y-92987280D01*
X137761446Y-92970157D01*
X137755490Y-92958742D01*
X137723727Y-92949809D01*
X137673983Y-92934318D01*
X137636130Y-92901419D01*
X137620682Y-92854209D01*
X137615855Y-92803737D01*
X137615533Y-92784044D01*
X137612059Y-92383032D01*
X137612391Y-92327545D01*
X137613586Y-92275007D01*
X137616646Y-92221709D01*
X137619007Y-92201882D01*
X137635641Y-92154617D01*
X137653252Y-92133889D01*
X137697652Y-92109592D01*
X137741842Y-92097907D01*
X137764920Y-92080785D01*
X137739857Y-92066144D01*
X137724471Y-92066144D01*
X137672437Y-92066144D01*
X137615409Y-92066144D01*
X137554998Y-92066144D01*
X137496525Y-92066144D01*
X137444425Y-92066144D01*
X137430661Y-92066144D01*
G37*
G36*
X136114562Y-92369419D02*
G01*
X136170352Y-92379419D01*
X136221771Y-92398752D01*
X136268821Y-92427419D01*
X136311501Y-92465419D01*
X136342873Y-92503621D01*
X136371269Y-92552315D01*
X136390832Y-92605449D01*
X136400568Y-92654528D01*
X136403813Y-92706869D01*
X136403498Y-92721728D01*
X136397434Y-92771796D01*
X136381052Y-92825323D01*
X136354589Y-92874910D01*
X136323164Y-92915068D01*
X136296453Y-92940446D01*
X136253988Y-92968750D01*
X136205610Y-92988622D01*
X136151319Y-93000064D01*
X136100077Y-93003161D01*
X136075937Y-93002437D01*
X136024653Y-92995900D01*
X135974760Y-92982565D01*
X135959856Y-92977043D01*
X135912331Y-92952833D01*
X135872026Y-92921023D01*
X135857774Y-92906559D01*
X135830089Y-92864445D01*
X135848204Y-92844345D01*
X135872026Y-92860226D01*
X135897606Y-92883103D01*
X135938810Y-92911640D01*
X135985573Y-92931880D01*
X136038039Y-92939635D01*
X136090691Y-92931395D01*
X136135368Y-92906676D01*
X136169062Y-92869904D01*
X136180404Y-92851933D01*
X136202141Y-92802831D01*
X136213624Y-92753542D01*
X136217452Y-92699425D01*
X136216956Y-92669647D01*
X135913963Y-92665428D01*
X135877896Y-92665035D01*
X135828351Y-92660465D01*
X135814951Y-92629198D01*
X135816611Y-92603622D01*
X135826343Y-92565175D01*
X135978979Y-92565175D01*
X135996846Y-92612076D01*
X136042812Y-92621885D01*
X136093376Y-92623491D01*
X136109339Y-92623373D01*
X136161559Y-92622721D01*
X136212737Y-92622002D01*
X136205681Y-92562523D01*
X136194130Y-92513125D01*
X136174336Y-92467156D01*
X136137873Y-92428444D01*
X136089902Y-92415540D01*
X136050110Y-92425518D01*
X136011735Y-92460952D01*
X136007768Y-92466652D01*
X135986176Y-92512860D01*
X135978979Y-92565175D01*
X135826343Y-92565175D01*
X135829891Y-92551161D01*
X135853198Y-92502455D01*
X135882945Y-92457974D01*
X135887255Y-92452432D01*
X135926079Y-92414430D01*
X135972626Y-92387688D01*
X136026897Y-92372206D01*
X136080721Y-92367895D01*
X136114562Y-92369419D01*
G37*
G36*
X135465555Y-92386010D02*
G01*
X135415617Y-92384407D01*
X135361377Y-92383831D01*
X135335028Y-92383777D01*
X135284904Y-92387495D01*
X135269268Y-92390973D01*
X135281423Y-92439343D01*
X135287879Y-92449289D01*
X135341979Y-92455065D01*
X135399038Y-92459043D01*
X135455105Y-92462556D01*
X135465555Y-92463185D01*
X135473000Y-92770892D01*
X135471765Y-92821565D01*
X135466548Y-92867175D01*
X135443052Y-92911968D01*
X135436025Y-92918790D01*
X135390472Y-92938637D01*
X135374732Y-92939635D01*
X135323842Y-92928778D01*
X135283164Y-92911842D01*
X135267779Y-92907871D01*
X135254627Y-92920775D01*
X135289160Y-92957798D01*
X135311205Y-92971150D01*
X135360370Y-92991876D01*
X135411423Y-93001629D01*
X135443718Y-93003161D01*
X135496237Y-92998896D01*
X135545274Y-92984352D01*
X135585164Y-92959487D01*
X135614409Y-92917766D01*
X135629307Y-92866488D01*
X135635277Y-92815939D01*
X135636531Y-92774118D01*
X135636330Y-92715705D01*
X135635728Y-92657344D01*
X135634725Y-92599035D01*
X135633320Y-92540779D01*
X135631515Y-92482575D01*
X135630823Y-92463185D01*
X135683492Y-92462520D01*
X135728595Y-92459711D01*
X135757132Y-92438370D01*
X135724376Y-92415044D01*
X135673845Y-92399459D01*
X135627900Y-92376093D01*
X135608242Y-92362684D01*
X135571845Y-92327741D01*
X135542221Y-92284675D01*
X135520645Y-92241587D01*
X135500792Y-92200394D01*
X135485655Y-92193197D01*
X135465555Y-92226201D01*
X135465555Y-92386010D01*
G37*
G36*
X134885720Y-92369419D02*
G01*
X134941509Y-92379419D01*
X134992929Y-92398752D01*
X135039979Y-92427419D01*
X135082659Y-92465419D01*
X135114030Y-92503621D01*
X135142427Y-92552315D01*
X135161989Y-92605449D01*
X135171725Y-92654528D01*
X135174971Y-92706869D01*
X135174656Y-92721728D01*
X135168591Y-92771796D01*
X135152209Y-92825323D01*
X135125746Y-92874910D01*
X135094322Y-92915068D01*
X135067610Y-92940446D01*
X135025146Y-92968750D01*
X134976768Y-92988622D01*
X134922476Y-93000064D01*
X134871234Y-93003161D01*
X134847095Y-93002437D01*
X134795810Y-92995900D01*
X134745918Y-92982565D01*
X134731013Y-92977043D01*
X134683489Y-92952833D01*
X134643184Y-92921023D01*
X134628931Y-92906559D01*
X134601246Y-92864445D01*
X134619361Y-92844345D01*
X134643184Y-92860226D01*
X134668763Y-92883103D01*
X134709968Y-92911640D01*
X134756731Y-92931880D01*
X134809196Y-92939635D01*
X134861849Y-92931395D01*
X134906526Y-92906676D01*
X134940220Y-92869904D01*
X134951561Y-92851933D01*
X134973299Y-92802831D01*
X134984782Y-92753542D01*
X134988609Y-92699425D01*
X134988113Y-92669647D01*
X134685121Y-92665428D01*
X134649054Y-92665035D01*
X134599509Y-92660465D01*
X134586109Y-92629198D01*
X134587769Y-92603622D01*
X134597501Y-92565175D01*
X134750137Y-92565175D01*
X134768003Y-92612076D01*
X134813969Y-92621885D01*
X134864534Y-92623491D01*
X134880497Y-92623373D01*
X134932717Y-92622721D01*
X134983895Y-92622002D01*
X134976839Y-92562523D01*
X134965288Y-92513125D01*
X134945493Y-92467156D01*
X134909031Y-92428444D01*
X134861060Y-92415540D01*
X134821267Y-92425518D01*
X134782892Y-92460952D01*
X134778926Y-92466652D01*
X134757334Y-92512860D01*
X134750137Y-92565175D01*
X134597501Y-92565175D01*
X134601049Y-92551161D01*
X134624355Y-92502455D01*
X134654102Y-92457974D01*
X134658412Y-92452432D01*
X134697236Y-92414430D01*
X134743784Y-92387688D01*
X134798055Y-92372206D01*
X134851878Y-92367895D01*
X134885720Y-92369419D01*
G37*
G36*
X134278402Y-92483534D02*
G01*
X134248294Y-92441186D01*
X134212114Y-92406391D01*
X134198249Y-92396681D01*
X134150232Y-92375092D01*
X134100483Y-92367923D01*
X134097004Y-92367895D01*
X134046604Y-92376369D01*
X134012136Y-92397922D01*
X133984840Y-92441367D01*
X133980373Y-92473111D01*
X133994307Y-92522196D01*
X134003203Y-92533660D01*
X134048553Y-92557869D01*
X134058540Y-92558475D01*
X134098989Y-92543090D01*
X134127621Y-92499749D01*
X134133234Y-92488000D01*
X134158113Y-92443854D01*
X134177156Y-92431422D01*
X134217973Y-92460522D01*
X134235968Y-92487752D01*
X134254617Y-92538771D01*
X134263318Y-92591530D01*
X134267573Y-92648508D01*
X134268724Y-92705380D01*
X134268409Y-92764844D01*
X134267464Y-92815439D01*
X134265082Y-92871371D01*
X134259538Y-92921117D01*
X134255820Y-92932686D01*
X134209490Y-92955159D01*
X134198994Y-92955516D01*
X134160530Y-92971894D01*
X134198249Y-92987280D01*
X134249357Y-92987280D01*
X134259046Y-92987280D01*
X134308948Y-92987280D01*
X134327288Y-92987280D01*
X134379004Y-92987280D01*
X134430301Y-92987280D01*
X134464267Y-92987280D01*
X134497767Y-92987280D01*
X134527049Y-92970902D01*
X134492804Y-92955516D01*
X134446152Y-92939138D01*
X134433079Y-92888927D01*
X134432752Y-92874123D01*
X134430022Y-92692725D01*
X134430830Y-92639392D01*
X134432807Y-92585512D01*
X134434241Y-92555745D01*
X134437300Y-92503494D01*
X134441933Y-92457974D01*
X134459800Y-92430181D01*
X134498264Y-92415540D01*
X134530275Y-92410577D01*
X134536727Y-92398666D01*
X134501738Y-92383777D01*
X134447049Y-92381564D01*
X134393867Y-92377819D01*
X134338071Y-92373066D01*
X134283365Y-92367895D01*
X134278402Y-92483534D01*
G37*
D12*
G36*
X142671569Y-87836652D02*
G01*
X142680728Y-87889042D01*
X142698537Y-87980450D01*
X142716976Y-88068194D01*
X142736044Y-88152274D01*
X142755742Y-88232691D01*
X142776069Y-88309445D01*
X142797026Y-88382534D01*
X142824108Y-88468744D01*
X142840830Y-88517723D01*
X142870284Y-88597146D01*
X142902546Y-88675818D01*
X142937617Y-88753738D01*
X142975497Y-88830907D01*
X143016185Y-88907325D01*
X143059682Y-88982991D01*
X143077867Y-89013047D01*
X143139050Y-89109806D01*
X143200966Y-89200322D01*
X143263614Y-89284596D01*
X143326995Y-89362627D01*
X143391109Y-89434416D01*
X143455955Y-89499963D01*
X143521534Y-89559266D01*
X143587846Y-89612328D01*
X143654891Y-89659146D01*
X143722668Y-89699723D01*
X143791179Y-89734056D01*
X143860421Y-89762148D01*
X143930397Y-89783996D01*
X144036734Y-89805065D01*
X144144720Y-89812088D01*
X144227816Y-89808218D01*
X144310042Y-89796609D01*
X144391398Y-89777260D01*
X144461870Y-89753981D01*
X144471883Y-89750172D01*
X144548316Y-89716764D01*
X144617880Y-89678090D01*
X144680574Y-89634149D01*
X144736398Y-89584942D01*
X144790061Y-89522920D01*
X144832621Y-89455283D01*
X144864078Y-89382030D01*
X144884432Y-89303162D01*
X144893685Y-89218678D01*
X144894301Y-89189268D01*
X144887745Y-89103810D01*
X144868078Y-89023838D01*
X144835298Y-88949353D01*
X144789407Y-88880355D01*
X144730403Y-88816843D01*
X144707822Y-88796892D01*
X144647320Y-88751614D01*
X144582364Y-88714010D01*
X144512953Y-88684080D01*
X144439088Y-88661824D01*
X144360769Y-88647243D01*
X144277995Y-88640336D01*
X144243638Y-88639722D01*
X144160836Y-88642797D01*
X144076469Y-88652022D01*
X143990537Y-88667398D01*
X143903040Y-88688924D01*
X143813978Y-88716600D01*
X143723351Y-88750426D01*
X143631159Y-88790402D01*
X143537403Y-88836528D01*
X143442081Y-88888805D01*
X143377664Y-88927073D01*
X143312551Y-88968074D01*
X143279734Y-88989600D01*
X143415289Y-89078626D01*
X143482433Y-89035792D01*
X143551974Y-88995443D01*
X143623913Y-88957581D01*
X143698248Y-88922206D01*
X143774981Y-88889317D01*
X143854110Y-88858915D01*
X143886433Y-88847451D01*
X143966030Y-88821381D01*
X144042245Y-88799730D01*
X144115080Y-88782498D01*
X144198019Y-88767652D01*
X144276089Y-88759168D01*
X144337428Y-88756959D01*
X144412874Y-88760771D01*
X144494351Y-88774856D01*
X144568781Y-88799319D01*
X144636163Y-88834161D01*
X144679978Y-88865402D01*
X144738642Y-88923265D01*
X144780545Y-88988409D01*
X144805687Y-89060835D01*
X144814068Y-89140542D01*
X144807574Y-89215011D01*
X144788093Y-89289306D01*
X144759113Y-89356697D01*
X144720652Y-89421118D01*
X144673962Y-89479744D01*
X144619043Y-89532573D01*
X144607072Y-89542444D01*
X144543430Y-89585636D01*
X144473477Y-89619868D01*
X144400670Y-89646578D01*
X144383223Y-89651987D01*
X144303763Y-89672707D01*
X144224477Y-89686647D01*
X144145365Y-89693805D01*
X144101489Y-89694851D01*
X144015464Y-89690836D01*
X143931731Y-89678790D01*
X143850291Y-89658713D01*
X143771143Y-89630606D01*
X143694288Y-89594468D01*
X143619726Y-89550299D01*
X143547456Y-89498100D01*
X143477479Y-89437870D01*
X143409795Y-89369609D01*
X143344403Y-89293317D01*
X143302082Y-89237995D01*
X143254791Y-89169327D01*
X143208814Y-89095765D01*
X143171503Y-89030725D01*
X143135105Y-88962286D01*
X143099618Y-88890448D01*
X143065045Y-88815211D01*
X143032458Y-88739204D01*
X143003163Y-88665058D01*
X142977160Y-88592773D01*
X142954448Y-88522348D01*
X142931539Y-88440294D01*
X142913370Y-88360919D01*
X142867208Y-88128278D01*
X142839364Y-87987594D01*
X142834235Y-87961215D01*
X142909261Y-87959756D01*
X142914469Y-87959750D01*
X143010456Y-87959750D01*
X143084510Y-87968357D01*
X143097651Y-87971840D01*
X143165180Y-88005829D01*
X143200966Y-88042182D01*
X143234339Y-88111591D01*
X143239800Y-88158319D01*
X143227207Y-88233911D01*
X143207560Y-88276655D01*
X143162040Y-88339029D01*
X143110468Y-88394584D01*
X143089957Y-88414774D01*
X143039689Y-88471824D01*
X143005889Y-88540426D01*
X143001664Y-88573044D01*
X143012789Y-88649773D01*
X143042808Y-88719420D01*
X143069075Y-88759523D01*
X143120251Y-88815113D01*
X143185961Y-88848521D01*
X143208293Y-88850748D01*
X143280337Y-88829361D01*
X143302449Y-88809349D01*
X143334846Y-88740665D01*
X143338352Y-88702004D01*
X143333223Y-88647049D01*
X143284465Y-88705009D01*
X143223177Y-88750089D01*
X143191807Y-88756959D01*
X143122783Y-88728790D01*
X143106444Y-88667932D01*
X143133948Y-88599641D01*
X143186481Y-88539981D01*
X143203897Y-88523585D01*
X143259996Y-88462562D01*
X143300067Y-88397097D01*
X143324110Y-88327190D01*
X143332124Y-88252841D01*
X143324476Y-88172150D01*
X143301533Y-88097137D01*
X143263293Y-88027802D01*
X143209758Y-87964146D01*
X143145599Y-87910932D01*
X143075852Y-87872922D01*
X143000519Y-87850115D01*
X142919598Y-87842513D01*
X142825076Y-87842513D01*
X142737515Y-87842513D01*
X142671569Y-87836652D01*
G37*
G36*
X142177710Y-89090350D02*
G01*
X142146936Y-89134680D01*
X142211851Y-89176583D01*
X142277480Y-89209266D01*
X142351348Y-89238232D01*
X142433457Y-89263482D01*
X142471168Y-89273166D01*
X142458105Y-89195252D01*
X142434440Y-89120667D01*
X142404752Y-89046997D01*
X142373380Y-88978739D01*
X142335980Y-88904237D01*
X142383460Y-88963262D01*
X142432202Y-89018062D01*
X142490663Y-89076656D01*
X142550842Y-89129500D01*
X142603792Y-89170218D01*
X142671684Y-89215097D01*
X142739578Y-89250260D01*
X142810358Y-89271197D01*
X142832770Y-89272800D01*
X142900609Y-89240574D01*
X142916667Y-89170950D01*
X142907851Y-89090923D01*
X142885675Y-89018532D01*
X142849999Y-88943932D01*
X142808675Y-88878231D01*
X142775617Y-88833529D01*
X142720211Y-88768090D01*
X142659783Y-88707236D01*
X142594331Y-88650968D01*
X142523856Y-88599285D01*
X142461289Y-88559718D01*
X142422075Y-88537506D01*
X142347244Y-88499405D01*
X142272503Y-88467761D01*
X142197851Y-88442575D01*
X142123288Y-88423848D01*
X142048815Y-88411578D01*
X141974431Y-88405766D01*
X141944703Y-88405249D01*
X141900006Y-88440786D01*
X141927495Y-88513074D01*
X141935910Y-88528714D01*
X142010007Y-88524043D01*
X142078426Y-88522485D01*
X142154383Y-88526103D01*
X142227650Y-88536957D01*
X142315451Y-88560699D01*
X142399047Y-88595747D01*
X142462898Y-88631925D01*
X142524058Y-88675340D01*
X142582527Y-88725989D01*
X142610753Y-88754028D01*
X142666407Y-88817333D01*
X142710547Y-88880303D01*
X142747490Y-88953345D01*
X142768760Y-89025932D01*
X142774518Y-89087786D01*
X142739568Y-89153908D01*
X142725425Y-89155563D01*
X142652947Y-89125857D01*
X142589869Y-89076483D01*
X142584008Y-89071299D01*
X142526635Y-89015615D01*
X142473126Y-88954349D01*
X142428271Y-88894438D01*
X142414015Y-88873462D01*
X142371510Y-88803866D01*
X142335035Y-88731641D01*
X142304591Y-88656786D01*
X142280178Y-88579301D01*
X142268935Y-88533843D01*
X142217093Y-88589343D01*
X142204821Y-88649980D01*
X142217032Y-88727999D01*
X142249677Y-88801416D01*
X142291650Y-88862838D01*
X142216499Y-88842573D01*
X142172215Y-88828033D01*
X142192731Y-88870532D01*
X142225601Y-88943819D01*
X142255354Y-89013497D01*
X142281801Y-89083479D01*
X142289451Y-89116728D01*
X142274064Y-89132116D01*
X142203311Y-89104097D01*
X142177710Y-89090350D01*
G37*
G36*
X141385631Y-89096945D02*
G01*
X141357054Y-89144206D01*
X141427740Y-89188284D01*
X141494962Y-89221029D01*
X141567197Y-89248340D01*
X141644447Y-89270217D01*
X141679089Y-89277929D01*
X141664697Y-89202010D01*
X141644361Y-89130223D01*
X141616440Y-89050691D01*
X141588642Y-88981488D01*
X141555990Y-88907328D01*
X141518484Y-88828211D01*
X141476123Y-88744136D01*
X141409078Y-88617007D01*
X141378510Y-88549276D01*
X141376472Y-88538606D01*
X141387463Y-88522485D01*
X141453800Y-88555733D01*
X141502501Y-88592827D01*
X141562014Y-88643706D01*
X141615366Y-88694768D01*
X141668002Y-88750410D01*
X141673227Y-88756226D01*
X141726391Y-88818812D01*
X141776889Y-88885441D01*
X141824722Y-88956113D01*
X141869890Y-89030827D01*
X141912392Y-89109585D01*
X141944475Y-89175502D01*
X141967417Y-89226638D01*
X142041851Y-89250030D01*
X142116057Y-89279242D01*
X142137410Y-89288187D01*
X142103729Y-89218817D01*
X142070692Y-89148553D01*
X142038299Y-89077395D01*
X142006550Y-89005342D01*
X141975444Y-88932395D01*
X141944983Y-88858553D01*
X141932979Y-88828766D01*
X141905326Y-88758826D01*
X141878330Y-88687625D01*
X141852833Y-88614289D01*
X141836992Y-88547765D01*
X141854943Y-88522485D01*
X141917958Y-88541903D01*
X141942138Y-88550329D01*
X141953129Y-88493909D01*
X141878597Y-88471675D01*
X141808873Y-88448571D01*
X141736182Y-88421540D01*
X141683851Y-88399753D01*
X141656008Y-88386931D01*
X141651978Y-88422468D01*
X141665251Y-88500628D01*
X141690338Y-88579140D01*
X141722195Y-88662036D01*
X141756042Y-88742115D01*
X141787899Y-88813379D01*
X141812812Y-88839024D01*
X141804019Y-88811913D01*
X141751619Y-88754998D01*
X141700435Y-88701947D01*
X141640620Y-88643386D01*
X141582557Y-88590389D01*
X141526246Y-88542956D01*
X141489678Y-88514425D01*
X141429259Y-88471885D01*
X141360077Y-88432543D01*
X141288509Y-88407914D01*
X141260701Y-88405249D01*
X141199939Y-88449067D01*
X141198419Y-88466798D01*
X141220911Y-88544825D01*
X141251656Y-88614489D01*
X141288390Y-88689605D01*
X141326321Y-88763064D01*
X141334706Y-88778940D01*
X141372316Y-88849987D01*
X141412276Y-88927122D01*
X141449885Y-89002564D01*
X141482480Y-89074102D01*
X141495174Y-89114896D01*
X141479054Y-89132116D01*
X141406518Y-89109576D01*
X141400285Y-89106470D01*
X141385631Y-89096945D01*
G37*
G36*
X140569371Y-89096945D02*
G01*
X140540795Y-89144206D01*
X140611480Y-89188284D01*
X140678702Y-89221029D01*
X140750938Y-89248340D01*
X140828187Y-89270217D01*
X140862829Y-89277929D01*
X140848438Y-89202010D01*
X140828102Y-89130223D01*
X140800181Y-89050691D01*
X140772383Y-88981488D01*
X140739731Y-88907328D01*
X140702224Y-88828211D01*
X140659863Y-88744136D01*
X140592818Y-88617007D01*
X140562250Y-88549276D01*
X140560212Y-88538606D01*
X140571203Y-88522485D01*
X140637541Y-88555733D01*
X140686241Y-88592827D01*
X140745755Y-88643706D01*
X140799107Y-88694768D01*
X140851743Y-88750410D01*
X140856967Y-88756226D01*
X140910131Y-88818812D01*
X140960630Y-88885441D01*
X141008463Y-88956113D01*
X141053630Y-89030827D01*
X141096133Y-89109585D01*
X141128215Y-89175502D01*
X141151158Y-89226638D01*
X141225592Y-89250030D01*
X141299798Y-89279242D01*
X141321151Y-89288187D01*
X141287469Y-89218817D01*
X141254432Y-89148553D01*
X141222039Y-89077395D01*
X141190290Y-89005342D01*
X141159185Y-88932395D01*
X141128724Y-88858553D01*
X141116719Y-88828766D01*
X141089067Y-88758826D01*
X141062070Y-88687625D01*
X141036574Y-88614289D01*
X141020732Y-88547765D01*
X141038684Y-88522485D01*
X141101698Y-88541903D01*
X141125878Y-88550329D01*
X141136869Y-88493909D01*
X141062337Y-88471675D01*
X140992613Y-88448571D01*
X140919922Y-88421540D01*
X140867592Y-88399753D01*
X140839748Y-88386931D01*
X140835718Y-88422468D01*
X140848992Y-88500628D01*
X140874079Y-88579140D01*
X140905935Y-88662036D01*
X140939783Y-88742115D01*
X140971639Y-88813379D01*
X140996552Y-88839024D01*
X140987759Y-88811913D01*
X140935359Y-88754998D01*
X140884175Y-88701947D01*
X140824361Y-88643386D01*
X140766298Y-88590389D01*
X140709986Y-88542956D01*
X140673419Y-88514425D01*
X140612999Y-88471885D01*
X140543817Y-88432543D01*
X140472249Y-88407914D01*
X140444441Y-88405249D01*
X140383680Y-88449067D01*
X140382159Y-88466798D01*
X140404652Y-88544825D01*
X140435396Y-88614489D01*
X140472130Y-88689605D01*
X140510062Y-88763064D01*
X140518447Y-88778940D01*
X140556056Y-88849987D01*
X140596016Y-88927122D01*
X140633626Y-89002564D01*
X140666221Y-89074102D01*
X140678914Y-89114896D01*
X140662794Y-89132116D01*
X140590258Y-89109576D01*
X140584026Y-89106470D01*
X140569371Y-89096945D01*
G37*
G36*
X139878042Y-88782970D02*
G01*
X139851950Y-88851556D01*
X139851297Y-88859907D01*
X139867964Y-88932333D01*
X139906395Y-88996292D01*
X139959289Y-89056696D01*
X139992347Y-89088152D01*
X140054449Y-89141346D01*
X140113670Y-89185525D01*
X140180933Y-89226638D01*
X140254166Y-89258194D01*
X140330948Y-89272619D01*
X140340027Y-89272800D01*
X140415326Y-89255786D01*
X140461823Y-89198419D01*
X140472285Y-89128818D01*
X140466308Y-89051905D01*
X140448379Y-88973205D01*
X140422887Y-88902878D01*
X140388243Y-88831183D01*
X140376664Y-88810448D01*
X140332127Y-88740484D01*
X140282507Y-88676129D01*
X140227802Y-88617385D01*
X140168013Y-88564251D01*
X140131566Y-88536407D01*
X140064500Y-88491834D01*
X140000138Y-88456483D01*
X139928469Y-88426895D01*
X139851069Y-88408451D01*
X139805135Y-88405249D01*
X139732526Y-88424998D01*
X139712079Y-88475224D01*
X139735160Y-88545910D01*
X139753112Y-88573044D01*
X139801800Y-88629006D01*
X139853862Y-88673061D01*
X139917334Y-88711255D01*
X139985044Y-88742420D01*
X139995645Y-88746700D01*
X140067644Y-88770893D01*
X140129001Y-88780406D01*
X140193403Y-88740405D01*
X140213631Y-88695776D01*
X140139571Y-88709380D01*
X140127169Y-88710064D01*
X140048984Y-88700873D01*
X139976362Y-88673302D01*
X139944720Y-88654377D01*
X139887869Y-88604208D01*
X139861555Y-88536407D01*
X139913579Y-88499038D01*
X139989417Y-88514363D01*
X140059713Y-88554892D01*
X140116878Y-88605554D01*
X140138527Y-88628731D01*
X140187836Y-88689933D01*
X140231349Y-88757216D01*
X140265555Y-88822972D01*
X140275913Y-88845985D01*
X140304121Y-88920818D01*
X140323082Y-88996687D01*
X140329403Y-89065804D01*
X140307689Y-89135840D01*
X140252466Y-89155563D01*
X140176058Y-89139479D01*
X140108760Y-89100746D01*
X140058293Y-89058110D01*
X140002709Y-88996946D01*
X139956513Y-88931922D01*
X139918571Y-88866799D01*
X139882943Y-88793998D01*
X139878042Y-88782970D01*
G37*
G36*
X139248994Y-88381802D02*
G01*
X139276105Y-88428696D01*
X139420453Y-88428696D01*
X139425582Y-88440054D01*
X139455585Y-88509577D01*
X139484127Y-88577766D01*
X139515901Y-88654412D01*
X139531461Y-88692112D01*
X139561909Y-88765253D01*
X139593501Y-88840136D01*
X139622845Y-88909161D01*
X139630746Y-88927684D01*
X139659582Y-88997150D01*
X139686250Y-89068277D01*
X139704679Y-89141355D01*
X139704751Y-89144206D01*
X139671046Y-89179010D01*
X139598235Y-89150262D01*
X139537648Y-89104389D01*
X139519005Y-89088152D01*
X139490428Y-89136512D01*
X139549395Y-89181939D01*
X139616955Y-89222612D01*
X139642103Y-89235064D01*
X139712315Y-89262150D01*
X139777292Y-89272800D01*
X139849278Y-89249152D01*
X139866318Y-89198061D01*
X139849558Y-89125963D01*
X139824932Y-89056869D01*
X139794405Y-88979770D01*
X139778757Y-88941973D01*
X139671412Y-88688815D01*
X139640642Y-88614665D01*
X139611353Y-88543882D01*
X139581857Y-88472140D01*
X139567731Y-88437123D01*
X139564068Y-88428696D01*
X139702187Y-88428696D01*
X139673611Y-88381802D01*
X139653827Y-88381802D01*
X139580323Y-88374771D01*
X139542086Y-88356889D01*
X139499980Y-88290882D01*
X139467339Y-88219373D01*
X139460753Y-88203749D01*
X139431077Y-88194223D01*
X139355436Y-88191279D01*
X139315673Y-88187995D01*
X139344126Y-88258545D01*
X139362934Y-88302301D01*
X139393708Y-88375207D01*
X139396639Y-88381802D01*
X139248994Y-88381802D01*
G37*
G36*
X138832805Y-88381802D02*
G01*
X138859915Y-88428696D01*
X139004263Y-88428696D01*
X139009392Y-88440054D01*
X139039395Y-88509577D01*
X139067937Y-88577766D01*
X139099711Y-88654412D01*
X139115271Y-88692112D01*
X139145720Y-88765253D01*
X139177311Y-88840136D01*
X139206655Y-88909161D01*
X139214556Y-88927684D01*
X139243392Y-88997150D01*
X139270060Y-89068277D01*
X139288489Y-89141355D01*
X139288562Y-89144206D01*
X139254856Y-89179010D01*
X139182046Y-89150262D01*
X139121458Y-89104389D01*
X139102815Y-89088152D01*
X139074239Y-89136512D01*
X139133205Y-89181939D01*
X139200765Y-89222612D01*
X139225913Y-89235064D01*
X139296125Y-89262150D01*
X139361102Y-89272800D01*
X139433088Y-89249152D01*
X139450128Y-89198061D01*
X139433369Y-89125963D01*
X139408742Y-89056869D01*
X139378215Y-88979770D01*
X139362567Y-88941973D01*
X139255223Y-88688815D01*
X139224452Y-88614665D01*
X139195163Y-88543882D01*
X139165668Y-88472140D01*
X139151541Y-88437123D01*
X139147878Y-88428696D01*
X139285997Y-88428696D01*
X139257421Y-88381802D01*
X139237637Y-88381802D01*
X139164133Y-88374771D01*
X139125896Y-88356889D01*
X139083791Y-88290882D01*
X139051149Y-88219373D01*
X139044563Y-88203749D01*
X139014888Y-88194223D01*
X138939246Y-88191279D01*
X138899483Y-88187995D01*
X138927936Y-88258545D01*
X138946744Y-88302301D01*
X138977518Y-88375207D01*
X138980449Y-88381802D01*
X138832805Y-88381802D01*
G37*
G36*
X137471967Y-87822661D02*
G01*
X137564909Y-87833446D01*
X137653501Y-87851421D01*
X137737742Y-87876585D01*
X137817632Y-87908940D01*
X137893172Y-87948484D01*
X137964361Y-87995219D01*
X138031200Y-88049143D01*
X138091821Y-88108511D01*
X138144360Y-88171760D01*
X138188816Y-88238891D01*
X138225189Y-88309903D01*
X138253480Y-88384795D01*
X138273687Y-88463570D01*
X138285811Y-88546225D01*
X138289853Y-88632761D01*
X138289166Y-88667098D01*
X138281438Y-88749646D01*
X138265123Y-88827489D01*
X138240222Y-88900628D01*
X138206734Y-88969062D01*
X138164659Y-89032791D01*
X138113998Y-89091816D01*
X138091648Y-89113732D01*
X138032556Y-89162336D01*
X137968866Y-89202103D01*
X137900579Y-89233033D01*
X137827694Y-89255125D01*
X137750212Y-89268381D01*
X137668133Y-89272800D01*
X137659758Y-89272753D01*
X137579244Y-89267128D01*
X137504597Y-89252130D01*
X137429263Y-89224806D01*
X137442086Y-89184506D01*
X137473341Y-89192360D01*
X137546500Y-89202458D01*
X137579311Y-89201753D01*
X137658320Y-89193832D01*
X137733019Y-89177110D01*
X137803406Y-89151586D01*
X137869483Y-89117261D01*
X137931248Y-89074134D01*
X137988701Y-89022206D01*
X138010085Y-88999276D01*
X138057508Y-88938856D01*
X138096309Y-88874018D01*
X138126488Y-88804761D01*
X138148044Y-88731086D01*
X138160978Y-88652992D01*
X138165289Y-88570479D01*
X138164510Y-88534581D01*
X138155752Y-88448493D01*
X138137262Y-88367628D01*
X138109040Y-88291987D01*
X138071087Y-88221569D01*
X138023403Y-88156375D01*
X137965987Y-88096404D01*
X137914324Y-88053385D01*
X137844577Y-88007677D01*
X137769087Y-87970931D01*
X137687856Y-87943148D01*
X137600882Y-87924327D01*
X137527168Y-87915723D01*
X137449779Y-87912855D01*
X137415666Y-87913444D01*
X137332824Y-87920061D01*
X137253471Y-87934030D01*
X137177606Y-87955352D01*
X137105230Y-87984026D01*
X137036341Y-88020052D01*
X136970941Y-88063431D01*
X136945954Y-88082654D01*
X136887644Y-88134217D01*
X136835272Y-88190788D01*
X136788840Y-88252369D01*
X136748346Y-88318959D01*
X136713792Y-88390557D01*
X136685177Y-88467164D01*
X136751141Y-88483796D01*
X136818057Y-88517571D01*
X136879717Y-88563152D01*
X136913458Y-88594699D01*
X136959998Y-88657485D01*
X136979001Y-88730214D01*
X136975956Y-88749906D01*
X136930275Y-88810081D01*
X136929100Y-88795318D01*
X136912133Y-88716578D01*
X136870849Y-88646040D01*
X136806425Y-88598468D01*
X136732786Y-88575971D01*
X136658433Y-88570113D01*
X136657333Y-88575608D01*
X136662829Y-88582203D01*
X136711073Y-88636816D01*
X136764551Y-88698125D01*
X136813212Y-88754822D01*
X136863894Y-88815142D01*
X136913788Y-88876393D01*
X136921906Y-88886431D01*
X136973002Y-88949460D01*
X137023962Y-89011899D01*
X137072058Y-89069467D01*
X137072621Y-88969091D01*
X137074312Y-88872257D01*
X137077129Y-88778966D01*
X137081074Y-88689216D01*
X137086145Y-88603008D01*
X137092344Y-88520342D01*
X137099669Y-88441218D01*
X137108122Y-88365636D01*
X137121145Y-88270370D01*
X137136172Y-88181400D01*
X137175006Y-88206313D01*
X137210172Y-88229780D01*
X137275024Y-88270793D01*
X137383101Y-88334907D01*
X137409113Y-88352126D01*
X137379071Y-88412576D01*
X137364777Y-88399868D01*
X137300303Y-88358354D01*
X137260003Y-88396823D01*
X137249998Y-88449059D01*
X137241249Y-88526035D01*
X137234724Y-88600887D01*
X137232695Y-88625513D01*
X137226996Y-88698695D01*
X137220298Y-88794648D01*
X137214631Y-88888747D01*
X137209994Y-88980990D01*
X137206388Y-89071379D01*
X137203812Y-89159914D01*
X137202266Y-89246593D01*
X137201751Y-89331418D01*
X137161084Y-89283790D01*
X136905728Y-88964321D01*
X136902895Y-88960816D01*
X136854598Y-88902491D01*
X136802963Y-88841497D01*
X136752588Y-88782604D01*
X136711517Y-88734799D01*
X136660997Y-88675992D01*
X136644134Y-88652644D01*
X136639631Y-88684513D01*
X136628808Y-88771270D01*
X136619953Y-88858636D01*
X136613066Y-88946610D01*
X136608146Y-89035192D01*
X136605195Y-89124383D01*
X136604211Y-89214181D01*
X136605310Y-89337646D01*
X136568209Y-89303685D01*
X136506346Y-89245437D01*
X136444447Y-89185131D01*
X136382512Y-89122769D01*
X136320541Y-89058349D01*
X136258535Y-88991873D01*
X136208904Y-88937210D01*
X136160721Y-88882971D01*
X136104856Y-88818472D01*
X136053839Y-88757641D01*
X136007669Y-88700477D01*
X135958665Y-88636721D01*
X135920520Y-88583302D01*
X136023890Y-88583302D01*
X136031649Y-88596492D01*
X136073863Y-88661553D01*
X136121411Y-88727218D01*
X136170753Y-88790723D01*
X136218795Y-88849649D01*
X136252186Y-88889336D01*
X136301091Y-88945540D01*
X136356357Y-89006065D01*
X136409694Y-89061155D01*
X136468290Y-89117461D01*
X136468290Y-89108668D01*
X136468711Y-89045803D01*
X136470586Y-88966010D01*
X136473961Y-88890820D01*
X136480288Y-88803304D01*
X136488959Y-88722979D01*
X136499973Y-88649846D01*
X136516283Y-88571578D01*
X136507857Y-88572677D01*
X136434853Y-88579525D01*
X136358928Y-88585724D01*
X136284350Y-88590446D01*
X136203042Y-88592827D01*
X136178203Y-88592679D01*
X136102302Y-88590139D01*
X136023890Y-88583302D01*
X135920520Y-88583302D01*
X135910317Y-88569014D01*
X135893463Y-88565670D01*
X135811896Y-88546195D01*
X135734838Y-88522122D01*
X135662288Y-88493451D01*
X135594246Y-88460183D01*
X135530712Y-88422318D01*
X135460421Y-88370811D01*
X135408810Y-88324405D01*
X135358424Y-88266806D01*
X135315560Y-88196969D01*
X135289842Y-88124293D01*
X135288298Y-88110692D01*
X135412794Y-88110692D01*
X135412945Y-88120330D01*
X135425024Y-88194009D01*
X135456428Y-88261598D01*
X135507158Y-88323096D01*
X135567400Y-88371910D01*
X135620797Y-88403211D01*
X135694226Y-88433115D01*
X135771369Y-88454977D01*
X135848035Y-88470462D01*
X135840436Y-88457373D01*
X135806647Y-88389438D01*
X135779871Y-88317353D01*
X135760107Y-88241118D01*
X136048802Y-88241118D01*
X136048802Y-88304132D01*
X136016196Y-88305964D01*
X135992660Y-88308410D01*
X135934497Y-88354691D01*
X135943839Y-88414408D01*
X135971866Y-88482918D01*
X136077745Y-88475591D01*
X136157111Y-88475188D01*
X136240053Y-88473978D01*
X136313993Y-88472299D01*
X136390560Y-88470028D01*
X136469755Y-88467164D01*
X136439609Y-88434504D01*
X136380066Y-88372294D01*
X136321522Y-88314231D01*
X136263977Y-88260315D01*
X136207431Y-88210547D01*
X136124485Y-88143671D01*
X136043787Y-88086126D01*
X135965336Y-88037913D01*
X135889132Y-87999031D01*
X135815177Y-87969482D01*
X135720065Y-87944597D01*
X135628949Y-87936303D01*
X135616699Y-87936492D01*
X135539922Y-87948393D01*
X135471412Y-87984663D01*
X135429338Y-88036258D01*
X135412794Y-88110692D01*
X135288298Y-88110692D01*
X135281269Y-88048776D01*
X135283935Y-88012159D01*
X135308005Y-87941746D01*
X135357107Y-87883546D01*
X135403069Y-87852377D01*
X135474630Y-87826685D01*
X135550547Y-87819066D01*
X135633533Y-87824437D01*
X135717626Y-87840550D01*
X135788550Y-87862183D01*
X135860244Y-87891276D01*
X135932706Y-87927828D01*
X136005938Y-87971840D01*
X136050681Y-88001968D01*
X136112121Y-88046968D01*
X136175600Y-88097486D01*
X136241116Y-88153523D01*
X136308670Y-88215078D01*
X136378262Y-88282151D01*
X136431793Y-88336078D01*
X136486471Y-88393108D01*
X136542295Y-88453243D01*
X136557738Y-88398535D01*
X136582136Y-88329137D01*
X136618751Y-88248090D01*
X136662163Y-88173375D01*
X136712374Y-88104993D01*
X136769382Y-88042944D01*
X136833188Y-87987227D01*
X136903016Y-87938782D01*
X136978317Y-87898549D01*
X137059093Y-87866526D01*
X137145342Y-87842714D01*
X137218283Y-87829576D01*
X137294727Y-87821694D01*
X137374675Y-87819066D01*
X137471967Y-87822661D01*
G37*
M02*
