%TF.GenerationSoftware,KiCad,Pcbnew,8.0.8*%
%TF.CreationDate,2025-01-23T20:15:16-05:00*%
%TF.ProjectId,compact_sqm,636f6d70-6163-4745-9f73-716d2e6b6963,rev?*%
%TF.SameCoordinates,Original*%
%TF.FileFunction,Paste,Top*%
%TF.FilePolarity,Positive*%
%FSLAX46Y46*%
G04 Gerber Fmt 4.6, Leading zero omitted, Abs format (unit mm)*
G04 Created by KiCad (PCBNEW 8.0.8) date 2025-01-23 20:15:16*
%MOMM*%
%LPD*%
G01*
G04 APERTURE LIST*
G04 Aperture macros list*
%AMRoundRect*
0 Rectangle with rounded corners*
0 $1 Rounding radius*
0 $2 $3 $4 $5 $6 $7 $8 $9 X,Y pos of 4 corners*
0 Add a 4 corners polygon primitive as box body*
4,1,4,$2,$3,$4,$5,$6,$7,$8,$9,$2,$3,0*
0 Add four circle primitives for the rounded corners*
1,1,$1+$1,$2,$3*
1,1,$1+$1,$4,$5*
1,1,$1+$1,$6,$7*
1,1,$1+$1,$8,$9*
0 Add four rect primitives between the rounded corners*
20,1,$1+$1,$2,$3,$4,$5,0*
20,1,$1+$1,$4,$5,$6,$7,0*
20,1,$1+$1,$6,$7,$8,$9,0*
20,1,$1+$1,$8,$9,$2,$3,0*%
G04 Aperture macros list end*
%ADD10RoundRect,0.200000X-0.200000X-0.275000X0.200000X-0.275000X0.200000X0.275000X-0.200000X0.275000X0*%
%ADD11RoundRect,0.225000X-0.225000X-0.250000X0.225000X-0.250000X0.225000X0.250000X-0.225000X0.250000X0*%
%ADD12RoundRect,0.150000X-0.587500X-0.150000X0.587500X-0.150000X0.587500X0.150000X-0.587500X0.150000X0*%
%ADD13RoundRect,0.200000X0.275000X-0.200000X0.275000X0.200000X-0.275000X0.200000X-0.275000X-0.200000X0*%
%ADD14R,2.500000X1.000000*%
%ADD15R,1.000000X1.800000*%
%ADD16RoundRect,0.100000X-0.337500X-0.100000X0.337500X-0.100000X0.337500X0.100000X-0.337500X0.100000X0*%
%ADD17RoundRect,0.200000X0.200000X0.275000X-0.200000X0.275000X-0.200000X-0.275000X0.200000X-0.275000X0*%
%ADD18RoundRect,0.225000X-0.250000X0.225000X-0.250000X-0.225000X0.250000X-0.225000X0.250000X0.225000X0*%
%ADD19RoundRect,0.237500X-0.237500X0.287500X-0.237500X-0.287500X0.237500X-0.287500X0.237500X0.287500X0*%
%ADD20RoundRect,0.225000X0.225000X0.250000X-0.225000X0.250000X-0.225000X-0.250000X0.225000X-0.250000X0*%
%ADD21RoundRect,0.225000X0.250000X-0.225000X0.250000X0.225000X-0.250000X0.225000X-0.250000X-0.225000X0*%
%ADD22RoundRect,0.150000X-0.512500X-0.150000X0.512500X-0.150000X0.512500X0.150000X-0.512500X0.150000X0*%
%ADD23RoundRect,0.150000X-0.150000X-0.425000X0.150000X-0.425000X0.150000X0.425000X-0.150000X0.425000X0*%
%ADD24RoundRect,0.075000X-0.075000X-0.500000X0.075000X-0.500000X0.075000X0.500000X-0.075000X0.500000X0*%
%ADD25RoundRect,0.250000X-0.840000X-0.750000X0.840000X-0.750000X0.840000X0.750000X-0.840000X0.750000X0*%
%ADD26RoundRect,0.150000X0.150000X-0.825000X0.150000X0.825000X-0.150000X0.825000X-0.150000X-0.825000X0*%
%ADD27RoundRect,0.200000X-0.275000X0.200000X-0.275000X-0.200000X0.275000X-0.200000X0.275000X0.200000X0*%
%ADD28R,0.800000X1.000000*%
%ADD29R,1.500000X0.700000*%
G04 APERTURE END LIST*
D10*
%TO.C,R9*%
X142177000Y-77724000D03*
X143827000Y-77724000D03*
%TD*%
D11*
%TO.C,C3*%
X142227000Y-79502000D03*
X143777000Y-79502000D03*
%TD*%
D12*
%TO.C,Q2*%
X128983500Y-112562600D03*
X128983500Y-114462600D03*
X130858500Y-113512600D03*
%TD*%
D13*
%TO.C,R13*%
X129540000Y-94805000D03*
X129540000Y-93155000D03*
%TD*%
D14*
%TO.C,U3*%
X132100000Y-89210000D03*
X132100000Y-91210000D03*
X132100000Y-93210000D03*
X132100000Y-95210000D03*
X132100000Y-97210000D03*
X132100000Y-99210000D03*
X132100000Y-101210000D03*
X132100000Y-103210000D03*
D15*
X134700000Y-104710000D03*
X136700000Y-104710000D03*
X138700000Y-104710000D03*
X140700000Y-104710000D03*
X142700000Y-104710000D03*
X144700000Y-104710000D03*
D14*
X147300000Y-103210000D03*
X147300000Y-101210000D03*
X147300000Y-99210000D03*
X147300000Y-97210000D03*
X147300000Y-95210000D03*
X147300000Y-93210000D03*
X147300000Y-91210000D03*
X147300000Y-89210000D03*
%TD*%
D13*
%TO.C,R5*%
X138176000Y-108521000D03*
X138176000Y-106871000D03*
%TD*%
D16*
%TO.C,U1*%
X139062500Y-77582000D03*
X139062500Y-78232000D03*
X139062500Y-78882000D03*
X140337500Y-78882000D03*
X140337500Y-78232000D03*
X140337500Y-77582000D03*
%TD*%
D17*
%TO.C,R11*%
X137223000Y-79502000D03*
X135573000Y-79502000D03*
%TD*%
D18*
%TO.C,C4*%
X145796000Y-114033000D03*
X145796000Y-115583000D03*
%TD*%
D12*
%TO.C,Q1*%
X128983500Y-109006600D03*
X128983500Y-110906600D03*
X130858500Y-109956600D03*
%TD*%
D13*
%TO.C,R6*%
X136398000Y-108521000D03*
X136398000Y-106871000D03*
%TD*%
D19*
%TO.C,D1*%
X143916400Y-113755200D03*
X143916400Y-115505200D03*
%TD*%
D11*
%TO.C,C1*%
X149923200Y-112217200D03*
X151473200Y-112217200D03*
%TD*%
D20*
%TO.C,C8*%
X136919000Y-117602000D03*
X135369000Y-117602000D03*
%TD*%
D21*
%TO.C,C6*%
X144729200Y-108598000D03*
X144729200Y-107048000D03*
%TD*%
D10*
%TO.C,R2*%
X141669000Y-117602000D03*
X143319000Y-117602000D03*
%TD*%
D22*
%TO.C,U2*%
X145776100Y-110338700D03*
X145776100Y-111288700D03*
X145776100Y-112238700D03*
X148051100Y-112238700D03*
X148051100Y-110338700D03*
%TD*%
D10*
%TO.C,R1*%
X138621000Y-117602000D03*
X140271000Y-117602000D03*
%TD*%
D11*
%TO.C,C7*%
X133083000Y-108458000D03*
X134633000Y-108458000D03*
%TD*%
D17*
%TO.C,R3*%
X151193000Y-91186000D03*
X149543000Y-91186000D03*
%TD*%
D21*
%TO.C,C5*%
X151079200Y-106769200D03*
X151079200Y-105219200D03*
%TD*%
D23*
%TO.C,J1*%
X136500000Y-119637000D03*
X137300000Y-119637000D03*
D24*
X138450000Y-119637000D03*
X139450000Y-119637000D03*
X139950000Y-119637000D03*
X140950000Y-119637000D03*
D23*
X142100000Y-119637000D03*
X142900000Y-119637000D03*
X142900000Y-119637000D03*
X142100000Y-119637000D03*
D24*
X141450000Y-119637000D03*
X140450000Y-119637000D03*
X138950000Y-119637000D03*
X137950000Y-119637000D03*
D23*
X137300000Y-119637000D03*
X136500000Y-119637000D03*
D25*
X134590000Y-120212000D03*
X134590000Y-124142000D03*
X144810000Y-120212000D03*
X144810000Y-124142000D03*
%TD*%
D17*
%TO.C,R4*%
X151193000Y-89154000D03*
X149543000Y-89154000D03*
%TD*%
D26*
%TO.C,U4*%
X133231800Y-115505000D03*
X134501800Y-115505000D03*
X135771800Y-115505000D03*
X137041800Y-115505000D03*
X138311800Y-115505000D03*
X139581800Y-115505000D03*
X140851800Y-115505000D03*
X142121800Y-115505000D03*
X142121800Y-110555000D03*
X140851800Y-110555000D03*
X139581800Y-110555000D03*
X138311800Y-110555000D03*
X137041800Y-110555000D03*
X135771800Y-110555000D03*
X134501800Y-110555000D03*
X133231800Y-110555000D03*
%TD*%
D13*
%TO.C,R8*%
X143916400Y-112153200D03*
X143916400Y-110503200D03*
%TD*%
D27*
%TO.C,R12*%
X149860000Y-101537000D03*
X149860000Y-103187000D03*
%TD*%
D18*
%TO.C,C2*%
X129540000Y-103365000D03*
X129540000Y-104915000D03*
%TD*%
D28*
%TO.C,SW1*%
X149588000Y-121252000D03*
X151798000Y-121252000D03*
X149588000Y-113952000D03*
X151798000Y-113952000D03*
D29*
X148938000Y-119852000D03*
X148938000Y-116852000D03*
X148938000Y-115352000D03*
%TD*%
D17*
%TO.C,R7*%
X151497800Y-110413800D03*
X149847800Y-110413800D03*
%TD*%
D22*
%TO.C,U5*%
X146919100Y-106796800D03*
X146919100Y-107746800D03*
X146919100Y-108696800D03*
X149194100Y-108696800D03*
X149194100Y-106796800D03*
%TD*%
D17*
%TO.C,R10*%
X137223000Y-77724000D03*
X135573000Y-77724000D03*
%TD*%
M02*
