M48
; DRILL file {KiCad 8.0.8} date 2025-01-23T20:15:22-0500
; FORMAT={-:-/ absolute / inch / decimal}
; #@! TF.CreationDate,2025-01-23T20:15:22-05:00
; #@! TF.GenerationSoftware,Kicad,Pcbnew,8.0.8
; #@! TF.FileFunction,Plated,1,2,PTH
FMAT,2
INCH
; #@! TA.AperFunction,Plated,PTH,ViaDrill
T1C0.0118
; #@! TA.AperFunction,Plated,PTH,ComponentDrill
T2C0.0394
%
G90
G05
T1
X5.123Y-3.511
X5.125Y-3.814
X5.19Y-4.33
X5.193Y-4.4676
X5.245Y-4.419
X5.2567Y-4.6173
X5.272Y-4.236
X5.377Y-3.09
X5.4352Y-3.0972
X5.4528Y-4.78
X5.465Y-4.5916
X5.509Y-4.7564
X5.518Y-4.474
X5.563Y-3.0544
X5.564Y-4.446
X5.62Y-4.49
X5.644Y-4.215
X5.657Y-4.0736
X5.681Y-4.631
X5.707Y-4.631
X5.779Y-4.596
X5.872Y-3.827
X5.874Y-3.748
X5.874Y-3.903
X5.898Y-4.098
X5.95Y-3.641
X5.964Y-4.302
X5.968Y-3.55
T2
X5.12Y-4.6202
X5.12Y-4.7202
M30
